<?xml version="1.0" encoding="UTF-8"?>
<svg width="126px" height="126px" viewBox="0 0 126 126" version="1.1" xmlns="http://www.w3.org/2000/svg" xmlns:xlink="http://www.w3.org/1999/xlink">
    <!-- Generator: sketchtool 42 (36781) - http://www.bohemiancoding.com/sketch -->
    <title>6FF3D1EB-AFDE-4306-ABC8-37E0EBBBE23E</title>
    <desc>Created with sketchtool.</desc>
    <defs></defs>
    <g id="Page-1" stroke="none" stroke-width="1" fill="none" fill-rule="evenodd">
        <g id="Desktop-HD-Copy-8" transform="translate(-657.000000, -2890.000000)">
            <g id="Group-40" transform="translate(275.000000, 2891.000000)">
                <g id="Page-1-Copy" transform="translate(383.000000, 0.000000)">
                    <path d="M72.7737078,104.303815 C72.7737078,104.303815 22.698975,92.4411815 20.381107,70.7479393 C20.381107,70.7479393 16.1959613,49.5489736 82.0394521,12.0975936 C82.1444626,11.9650291 88.3916326,8.85165585 83.5229641,14.9060684 C83.3759494,14.8038043 50.2823686,44.430088 45.5110735,64.7711718 C45.5110735,64.7711718 39.2925428,83.3889163 73.5087812,101.688506 C73.6386124,101.788876 79.416099,105.949509 72.7737078,104.303815" id="Fill-1" fill="#62676D"></path>
                    <path d="M90.3484093,58.4867572 C86.5927719,51.0926588 77.8615374,47.7168412 68.5500081,51.1503651 C59.2212423,54.5761947 53.8875094,63.422568 56.6147035,70.91092 C59.3457279,78.3954249 69.1073209,81.6827596 78.4265109,78.2530828 C80.3320995,77.5471426 82.0634081,76.6142243 83.5955396,75.5197285 L77.6891726,109.154797 C77.1797389,115.135092 81.7857092,115.652525 83.1359001,109.154797 C83.1359001,109.154797 90.1875355,68.8257996 91.323228,63.9669306 C91.9590625,61.2335763 90.4001187,58.5636989 90.3484093,58.4867572" id="Fill-3" fill="#62676D"></path>
                    <path d="M124,62 C124,96.2406723 96.243415,124 62.0018945,124 C27.756585,124 0,96.2406723 0,62 C0,27.7593277 27.756585,0 62.0018945,0 C96.243415,0 124,27.7593277 124,62 Z" id="Stroke-5" stroke="#62676D" stroke-width="1.25"></path>
                </g>
            </g>
        </g>
    </g>
</svg>