<?xml version="1.0" encoding="UTF-8"?>
<svg width="219px" height="75px" viewBox="0 0 219 75" version="1.1" xmlns="http://www.w3.org/2000/svg" xmlns:xlink="http://www.w3.org/1999/xlink">
    <!-- Generator: sketchtool 42 (36781) - http://www.bohemiancoding.com/sketch -->
    <title>07EB80EE-3669-4BA7-AD8C-8542DA813629</title>
    <desc>Created with sketchtool.</desc>
    <defs>
        <polygon id="path-1" points="4.56506178e-20 0.808228 4.56506178e-20 42.060708 30.9483789 42.060708 30.9483789 0.808228 0 0.808228"></polygon>
        <polygon id="path-3" points="0.120628571 10 9.78748571 10 9.78748571 0.553916667 0.120628571 0.553916667 0.120628571 10"></polygon>
        <polygon id="path-5" points="0.337375 10 9.40166071 10 9.40166071 0.553916667 0.337375 0.553916667"></polygon>
        <polygon id="path-7" points="0.275218108 10 7.26845333 10 7.26845333 0.554565015 0.275218108 0.554565015 0.275218108 10"></polygon>
    </defs>
    <g id="Page-1" stroke="none" stroke-width="1" fill="none" fill-rule="evenodd">
        <g id="Desktop-HD-Copy-8" transform="translate(-275.000000, -2916.000000)">
            <g id="Group-40" transform="translate(275.000000, 2891.000000)">
                <g id="Page-1-Copy-2" transform="translate(0.000000, 25.000000)">
                    <g id="Group-3">
                        <mask id="mask-2" fill="white">
                            <use xlink:href="#path-1"></use>
                        </mask>
                        <g id="Clip-2"></g>
                        <path d="M10.8911158,38.698108 L4.79090526,38.698108 C3.96395789,38.698108 3.29364211,38.013548 3.29364211,37.167308 L3.29364211,5.613908 C3.29364211,4.817548 3.92690526,4.170828 4.70837895,4.170828 L10.8911158,4.170828 C20.1492211,4.170828 27.6557474,11.835148 27.6557474,21.289988 L27.6557474,21.577228 C27.6557474,31.033788 20.1492211,38.698108 10.8911158,38.698108 M30.9483789,21.577228 L30.9483789,21.289988 C30.9483789,9.996468 21.9513263,0.808228 10.8911158,0.808228 L1.64648421,0.808228 C0.737010526,0.808228 -0.000673684211,1.559868 -0.000673684211,2.490388 L-0.000673684211,40.378548 C-0.000673684211,41.307348 0.737010526,42.060708 1.64648421,42.060708 L10.8911158,42.060708 C21.9513263,42.060708 30.9483789,32.872468 30.9483789,21.577228" id="Fill-1" fill="#62676D" mask="url(#mask-2)"></path>
                    </g>
                    <path d="M155.702586,9.81798838 L155.702586,9.94213929 C155.702586,13.552582 152.761057,16.4785171 149.131372,16.4785171 L137.00431,16.4785171 C136.061469,16.4785171 135.297414,15.7185122 135.297414,14.7823472 L135.297414,4.71605696 C135.297414,3.92417546 135.94509,3.28161061 136.739505,3.28161061 L149.131372,3.28161061 C152.761057,3.28161061 155.702586,6.20754563 155.702586,9.81798838 L155.702586,9.81798838 Z M133.647864,0 C132.738756,0 132,0.734839185 132,1.6408053 L132,2.19277355 L132,18.1193224 L132,39.151158 C132,40.0554464 132.738756,40.7902856 133.647864,40.7902856 C134.560345,40.7902856 135.297414,40.0554464 135.297414,39.151158 L135.297414,20.5 C135.297414,20.1325804 135.283921,19.7601277 135.98051,19.7601277 C136.677099,19.7601277 136.899738,19.9094443 137.442841,20.5016777 C137.985945,21.0955888 155.711019,40.4648089 155.711019,40.4648089 C156.036544,40.8188068 156.483508,41 156.930472,41 C157.328523,41 157.724888,40.8590719 158.041979,40.5721827 C158.714955,39.9614944 158.763868,38.9246665 158.149925,38.2552582 L142.2009,20.8288321 C141.824775,20.417792 142.116567,19.7601277 142.676537,19.7601277 L149.131372,19.7601277 C154.58096,19.7601277 159,15.3628366 159,9.94213929 L159,9.81798838 C159,4.39561339 154.58096,0 149.131372,0 L133.647864,0 Z" id="Fill-4" fill="#62676D"></path>
                    <path d="M42.7263924,29 L64.2718405,29 C65.226039,29 66,28.2856142 66,27.4028491 C66,26.5200841 65.226039,25.8040635 64.2718405,25.8040635 L46.3576477,25.8040635 C45.3080294,25.8040635 44.4545519,25.0144792 44.4545519,24.0434376 L44.4545519,17.2134517 C44.4545519,16.4075199 45.1595985,15.7552546 46.0289794,15.7552546 L58.9866412,15.7552546 C59.9390727,15.7552546 60.7130336,15.039234 60.7130336,14.1581037 C60.7130336,13.2753386 59.9390727,12.5593181 58.9866412,12.5593181 L46.0431156,12.5593181 C45.1648996,12.5593181 44.4545519,11.9021485 44.4545519,11.0896777 L44.4545519,5.53970107 C44.4545519,4.79752452 45.1048205,4.19593648 45.907054,4.19593648 L64.2718405,4.19593648 C65.226039,4.19593648 66,3.47991593 66,2.59715086 C66,1.71602055 65.226039,1 64.2718405,1 L42.7263924,1 C41.7721939,1 41,1.71602055 41,2.59715086 L41,27.4028491 C41,28.2856142 41.7721939,29 42.7263924,29" id="Fill-6" fill="#62676D"></path>
                    <path d="M99.3214685,37.739493 L83.2896053,37.739493 C82.222073,37.739493 81.3570629,36.8989326 81.3570629,35.8615744 L81.3570629,2.63108739 C81.3570629,1.72881921 80.605328,1 79.6785315,1 C78.7517349,1 78,1.72881921 78,2.63108739 L78,39.3705804 C78,40.269513 78.7517349,41 79.6785315,41 L99.3214685,41 C100.248265,41 101,40.269513 101,39.3705804 C101,38.46998 100.248265,37.739493 99.3214685,37.739493" id="Fill-8" fill="#62676D"></path>
                    <path d="M113,1 C111.895706,1 111,1.73048699 111,2.63108739 L111,39.3705804 C111,40.2711808 111.895706,41 113,41 C114.104294,41 115,40.2711808 115,39.3705804 L115,2.63108739 C115,1.73048699 114.104294,1 113,1" id="Fill-10" fill="#62676D"></path>
                    <path d="M62.3842839,39 L42.6157161,39 C41.7236029,39 41,39.8961637 41,41.001023 C41,42.1038363 41.7236029,43 42.6157161,43 L62.3842839,43 C63.2763971,43 64,42.1038363 64,41.001023 C64,39.8961637 63.2763971,39 62.3842839,39" id="Fill-12" fill="#62676D"></path>
                    <path d="M214.350652,39 L191.647662,39 C190.736979,39 190,39.8961637 190,41.001023 C190,42.1038363 190.736979,43 191.647662,43 L214.350652,43 C215.261335,43 216,42.1038363 216,41.001023 C216,39.8961637 215.261335,39 214.350652,39" id="Fill-14" fill="#62676D"></path>
                    <path d="M176,1 C174.895706,1 174,1.73048699 174,2.63108739 L174,39.3705804 C174,40.2711808 174.895706,41 176,41 C177.104294,41 178,40.2711808 178,39.3705804 L178,2.63108739 C178,1.73048699 177.104294,1 176,1" id="Fill-16" fill="#62676D"></path>
                    <path d="M203.5,3.35464408 C210.197277,3.35464408 215.64364,8.80272335 215.64364,15.5 C215.64364,22.1955607 210.197277,27.64364 203.5,27.64364 C196.802723,27.64364 191.354644,22.1955607 191.354644,15.5 C191.354644,8.80272335 196.802723,3.35464408 203.5,3.35464408 M203.5,31 C212.04705,31 219,24.0453338 219,15.5 C219,6.95295029 212.04705,0 203.5,0 C194.95295,0 188,6.95295029 188,15.5 C188,24.0453338 194.95295,31 203.5,31" id="Fill-18" fill="#62676D"></path>
                    <path d="M32.1321606,71.3402945 C32.0498791,71.2736034 31.9396219,71.2434336 31.8227822,71.2481973 C31.7092337,71.2593125 31.605559,71.3133005 31.5364425,71.3990462 C31.289598,71.7007442 30.9950302,71.935751 30.662613,72.0977151 C30.0208173,72.4073525 29.1124295,72.4152919 28.4525318,72.1199455 C28.1266971,71.9754481 27.84694,71.7769626 27.6149061,71.5276648 C27.3828723,71.2783671 27.1969161,70.9766691 27.0636201,70.6320983 C26.9286784,70.2859396 26.8612076,69.9064354 26.8612076,69.501525 C26.8612076,69.1251965 26.9286784,68.7599833 27.0636201,68.4138246 C27.1969161,68.0692538 27.3845179,67.7643801 27.6231343,67.505555 C27.8584594,67.2514936 28.1415077,67.0434808 28.4673425,66.8910439 C29.0943275,66.5988733 29.8430892,66.589346 30.4700743,66.8672257 C30.7597051,66.9942564 31.0081953,67.191154 31.2089621,67.451567 C31.3439038,67.6278221 31.6072046,67.6643434 31.7898696,67.5373127 L32.6225584,66.9529714 C32.7147136,66.8894561 32.7756019,66.794183 32.7920582,66.6862069 C32.8068689,66.5798187 32.7788932,66.4686668 32.7097767,66.3813332 C32.3214081,65.892265 31.8326559,65.5334032 31.258331,65.3158632 C30.1129725,64.8823709 28.7849491,64.8950739 27.7021245,65.3539724 C27.1491928,65.5905671 26.6670232,65.9129075 26.2671351,66.3146421 C25.8656014,66.7195525 25.5496404,67.2006813 25.329126,67.7469134 C25.1086116,68.2915575 25,68.8822503 25,69.501525 C25,70.1462059 25.1151941,70.7480139 25.3439367,71.292658 C25.5726793,71.8373022 25.8935771,72.318431 26.2984021,72.7185777 C26.7048727,73.1187245 27.1903336,73.4347133 27.7416196,73.6601929 C28.2945513,73.8872602 28.8935607,74 29.5254826,74 C30.2281666,74 30.8699624,73.8777329 31.4344135,73.6347867 C32.0136752,73.3870768 32.5123011,72.9948695 32.9171261,72.4740436 C33.0487765,72.30414 33.0208008,72.0627817 32.8529466,71.9230479 L32.1321606,71.3402945 Z" id="Fill-20" fill="#62676D"></path>
                    <g id="Group-24" transform="translate(37.000000, 65.000000)">
                        <mask id="mask-4" fill="white">
                            <use xlink:href="#path-3"></use>
                        </mask>
                        <g id="Clip-23"></g>
                        <path d="M7.63262857,6.4485 C7.49205714,6.8085 7.29148571,7.12516667 7.03777143,7.3935 C6.78405714,7.6585 6.4772,7.87016667 6.12577143,8.02183333 C5.42634286,8.32683333 4.48348571,8.32683333 3.78234286,8.02183333 C3.4292,7.87016667 3.12234286,7.6585 2.87034286,7.3935 C2.61491429,7.12516667 2.41605714,6.8085 2.27548571,6.4485 C2.1332,6.08516667 2.05948571,5.69016667 2.05948571,5.27683333 C2.05948571,4.8635 2.1332,4.4685 2.27548571,4.1035 C2.41777143,3.7435 2.61662857,3.42683333 2.87034286,3.16016667 C3.12405714,2.8935 3.43091429,2.68183333 3.78234286,2.53016667 C4.13034286,2.3785 4.52462857,2.30183333 4.9532,2.30183333 C5.38177143,2.30183333 5.77777143,2.3785 6.12577143,2.53016667 C6.4772,2.68183333 6.78405714,2.89516667 7.03605714,3.16016667 C7.28977143,3.42516667 7.49034286,3.7435 7.63262857,4.10183333 C7.77491429,4.4685 7.84862857,4.8635 7.84862857,5.27683333 C7.84862857,5.69016667 7.77491429,6.08516667 7.63262857,6.4485 M8.41948571,1.89683333 L8.41777143,1.89683333 C7.9892,1.4785 7.4732,1.14516667 6.88691429,0.910166667 C5.71262857,0.435166667 4.19548571,0.435166667 3.0212,0.910166667 C2.4332,1.14683333 1.91891429,1.4785 1.49034286,1.89683333 C1.05834286,2.31683333 0.718914286,2.8235 0.478914286,3.4035 C0.240628571,3.9785 0.120628571,4.6085 0.120628571,5.27683333 C0.120628571,5.94516667 0.240628571,6.57516667 0.478914286,7.15016667 C0.7172,7.7285 1.05834286,8.23516667 1.49034286,8.65516667 C1.91891429,9.07516667 2.4332,9.40683333 3.0212,9.64183333 C3.60748571,9.88016667 4.25891429,10.0001667 4.9532,10.0001667 C5.6492,10.0001667 6.29891429,9.88016667 6.88691429,9.64183333 C7.4732,9.40683333 7.9892,9.07516667 8.41948571,8.65516667 C8.84977143,8.23516667 9.19091429,7.7285 9.4292,7.1485 C9.66748571,6.5735 9.78748571,5.9435 9.78748571,5.27683333 C9.78748571,4.61016667 9.66748571,3.9785 9.4292,3.40183333 C9.19091429,2.8235 8.84805714,2.31683333 8.41948571,1.89683333" id="Fill-22" fill="#62676D" mask="url(#mask-4)"></path>
                    </g>
                    <path d="M57.5725148,65 L52.4274852,65 C52.1909321,65 52,65.1877076 52,65.4202658 L52,73.5780731 C52,73.8106312 52.1909321,74 52.4274852,74 L53.4125598,74 C53.6474233,74 53.8400451,73.8106312 53.8400451,73.5780731 L53.8400451,70.3355482 L57.2785131,70.3355482 C57.5150662,70.3355482 57.7059983,70.1461794 57.7059983,69.9136213 L57.7059983,69.0149502 C57.7059983,68.782392 57.5150662,68.5946844 57.2785131,68.5946844 L53.8400451,68.5946844 L53.8400451,66.7425249 L57.5725148,66.7425249 C57.8090679,66.7425249 58,66.5531561 58,66.320598 L58,65.4202658 C58,65.1877076 57.8090679,65 57.5725148,65" id="Fill-25" fill="#62676D"></path>
                    <path d="M68.5725148,65 L63.4274852,65 C63.1909321,65 63,65.1877076 63,65.4202658 L63,73.5780731 C63,73.8106312 63.1909321,74 63.4274852,74 L64.4108702,74 C64.6474233,74 64.8400451,73.8106312 64.8400451,73.5780731 L64.8400451,70.3355482 L68.2785131,70.3355482 C68.5150662,70.3355482 68.7059983,70.1461794 68.7059983,69.9136213 L68.7059983,69.0149502 C68.7059983,68.782392 68.5150662,68.5946844 68.2785131,68.5946844 L64.8400451,68.5946844 L64.8400451,66.7425249 L68.5725148,66.7425249 C68.8090679,66.7425249 69,66.5531561 69,66.320598 L69,65.4202658 C69,65.1877076 68.8090679,65 68.5725148,65" id="Fill-27" fill="#62676D"></path>
                    <path d="M79.5902124,72.2588148 L75.7585372,72.2588148 L75.7585372,70.1986339 L79.1207314,70.1986339 C79.3465985,70.1986339 79.5289056,70.0108916 79.5289056,69.7766291 L79.5289056,68.8777921 C79.5289056,68.6451911 79.3465985,68.4557873 79.1207314,68.4557873 L75.7585372,68.4557873 L75.7585372,66.7411852 L79.3901586,66.7411852 C79.6144125,66.7411852 79.7983329,66.5534429 79.7983329,66.3191804 L79.7983329,65.4220048 C79.7983329,65.1877423 79.6144125,65 79.3901586,65 L74.4097876,65 C74.1839204,65 74,65.1877423 74,65.4220048 L74,73.5779952 C74,73.8122577 74.1839204,74 74.4097876,74 L79.5902124,74 C79.8160796,74 80,73.8122577 80,73.5779952 L80,72.6791582 C80,72.4465571 79.8160796,72.2588148 79.5902124,72.2588148" id="Fill-29" fill="#62676D"></path>
                    <path d="M91.591716,72.2588148 L87.7590102,72.2588148 L87.7590102,70.1986339 L91.1221087,70.1986339 C91.3480366,70.1986339 91.5303927,70.0108916 91.5303927,69.7766291 L91.5303927,68.8777921 C91.5303927,68.6451911 91.3480366,68.4557873 91.1221087,68.4557873 L87.7590102,68.4557873 L87.7590102,66.7411852 L91.3899946,66.7411852 C91.6159225,66.7411852 91.7982786,66.5534429 91.7982786,66.3191804 L91.7982786,65.4220048 C91.7982786,65.1877423 91.6159225,65 91.3899946,65 L86.408284,65 C86.1839699,65 86,65.1877423 86,65.4220048 L86,73.5779952 C86,73.8122577 86.1839699,74 86.408284,74 L91.591716,74 C91.8176439,74 92,73.8122577 92,73.5779952 L92,72.6791582 C92,72.4465571 91.8176439,72.2588148 91.591716,72.2588148" id="Fill-31" fill="#62676D"></path>
                    <path d="M108.872028,68.1677741 C108.770092,68.2940199 108.640355,68.3853821 108.479728,68.4451827 C108.292846,68.5149502 108.081251,68.5581395 107.851122,68.5714286 C107.591649,68.5863787 107.338353,68.5946844 107.094324,68.5946844 L106.68349,68.5946844 L106.68349,66.7425249 L107.556125,66.7425249 C107.763087,66.7425249 107.966959,66.755814 108.164653,66.7857143 C108.333002,66.807309 108.488995,66.8571429 108.62491,66.9318937 C108.739202,66.9950166 108.828782,67.0813953 108.898284,67.1943522 C108.963153,67.3023256 108.995587,67.461794 108.995587,67.6677741 C108.995587,67.8953488 108.953886,68.0681063 108.872028,68.1677741 L108.872028,68.1677741 Z M109.074356,70.0980066 C109.494456,69.948505 109.849688,69.7209302 110.127696,69.4136213 C110.53544,68.9651163 110.742401,68.3787375 110.742401,67.6677741 C110.742401,67.0813953 110.631198,66.5980066 110.411881,66.2325581 C110.195653,65.8770764 109.909923,65.6013289 109.562414,65.4119601 C109.236527,65.2375415 108.867395,65.1229236 108.462739,65.0714286 C108.075073,65.0232558 107.693585,65 107.33063,65 L105.3923,65 C105.174527,65 105,65.1877076 105,65.4219269 L105,73.5780731 C105,73.8106312 105.174527,74 105.3923,74 L106.291191,74 C106.507419,74 106.68349,73.8106312 106.68349,73.5780731 L106.68349,70.3355482 L107.22715,70.3355482 L109.168569,73.7940199 C109.238071,73.9219269 109.366264,74 109.505268,74 L110.608031,74 C110.750124,74 110.881405,73.9152824 110.949363,73.7840532 C111.018864,73.6528239 111.01732,73.4883721 110.94164,73.3554817 L109.074356,70.0980066 Z" id="Fill-33" fill="#62676D"></path>
                    <g id="Group-37" transform="translate(115.000000, 65.000000)">
                        <mask id="mask-6" fill="white">
                            <use xlink:href="#path-5"></use>
                        </mask>
                        <g id="Clip-36"></g>
                        <path d="M7.38148214,6.4485 C7.24969643,6.80516667 7.06166071,7.1235 6.82219643,7.3935 C6.58433929,7.6585 6.29666071,7.87016667 5.96880357,8.02183333 C5.309875,8.32683333 4.42755357,8.32683333 3.77023214,8.02183333 C3.44076786,7.87016667 3.15308929,7.6585 2.91523214,7.3935 C2.677375,7.12516667 2.48933929,6.8085 2.35755357,6.4485 C2.22576786,6.08683333 2.15666071,5.69183333 2.15666071,5.27683333 C2.15666071,4.86016667 2.22576786,4.46683333 2.35755357,4.1035 C2.49094643,3.7435 2.677375,3.42683333 2.91523214,3.16016667 C3.15469643,2.8935 3.442375,2.68183333 3.77023214,2.53016667 C4.09648214,2.3785 4.466125,2.30183333 4.86791071,2.30183333 C5.27130357,2.30183333 5.64094643,2.3785 5.96880357,2.53016667 C6.29666071,2.68183333 6.58433929,2.89516667 6.82219643,3.16016667 C7.06005357,3.4285 7.24808929,3.74516667 7.379875,4.10183333 C7.514875,4.4685 7.582375,4.8635 7.582375,5.27683333 C7.582375,5.6885 7.514875,6.0835 7.38148214,6.4485 M8.11755357,1.89683333 L8.11755357,1.89683333 C7.71416071,1.4785 7.23041071,1.14516667 6.682375,0.910166667 C5.57505357,0.435166667 4.15433929,0.435166667 3.05666071,0.910166667 C2.50541071,1.14683333 2.02326786,1.4785 1.62148214,1.89683333 C1.21648214,2.31683333 0.898267857,2.8235 0.673267857,3.4035 C0.451482143,3.98183333 0.337375,4.61183333 0.337375,5.27683333 C0.337375,5.9435 0.451482143,6.5735 0.673267857,7.15016667 C0.898267857,7.7285 1.21648214,8.23516667 1.62148214,8.65516667 C2.02326786,9.07516667 2.50541071,9.40683333 3.05826786,9.64183333 C3.60791071,9.88016667 4.218625,10.0001667 4.86791071,10.0001667 C5.52201786,10.0001667 6.12951786,9.88016667 6.682375,9.64183333 C7.23041071,9.40683333 7.71416071,9.07516667 8.11755357,8.65516667 C8.52094643,8.23516667 8.84076786,7.7285 9.06576786,7.1485 C9.28916071,6.5735 9.40166071,5.9435 9.40166071,5.27683333 C9.40166071,4.61016667 9.28916071,3.98016667 9.06576786,3.40183333 C8.83916071,2.8235 8.52094643,2.31683333 8.11755357,1.89683333" id="Fill-35" fill="#62676D" mask="url(#mask-6)"></path>
                    </g>
                    <path d="M133.443072,70.2541528 L134.526721,67.744186 L135.556103,70.2541528 L133.443072,70.2541528 Z M135.425523,65.2574751 C135.357688,65.1013289 135.203366,65 135.028693,65 L134.099367,65 C133.929782,65 133.775459,65.0996678 133.705929,65.2508306 L130.036107,73.4086379 C129.978448,73.5398671 129.990319,73.6893688 130.068328,73.807309 C130.149729,73.9285714 130.282005,74 130.429544,74 L131.548806,74 C131.721783,74 131.876105,73.8986711 131.943939,73.7408638 L132.693506,71.9933555 L136.283623,71.9933555 L137.019623,73.7392027 C137.087457,73.8986711 137.241779,74 137.416452,74 L138.569631,74 C138.713779,74 138.847751,73.9285714 138.927456,73.8106312 C139.008857,73.6910299 139.022424,73.5415282 138.964765,73.4136213 L135.425523,65.2574751 Z" id="Fill-38" fill="#62676D"></path>
                    <g id="Group-42" transform="translate(143.000000, 65.000000)">
                        <mask id="mask-8" fill="white">
                            <use xlink:href="#path-7"></use>
                        </mask>
                        <g id="Clip-41"></g>
                        <path d="M6.25112,5.18533333 L6.25112,5.18366667 C5.95805333,4.982 5.62018667,4.81366667 5.25245333,4.68533333 C4.91085333,4.56866667 4.55432,4.45533333 4.19032,4.352 C3.84685333,4.257 3.55378667,4.162 3.32605333,4.07033333 C3.11885333,3.98533333 2.95832,3.90033333 2.84632,3.812 C2.75672,3.74366667 2.69512,3.66866667 2.65778667,3.58366667 C2.61672,3.497 2.59618667,3.387 2.59618667,3.25366667 C2.59618667,3.08866667 2.63165333,2.94866667 2.70258667,2.837 C2.77725333,2.71866667 2.87432,2.627 2.99378667,2.55533333 C3.13752,2.47366667 3.30178667,2.412 3.48285333,2.36866667 C3.95885333,2.26033333 4.42365333,2.28366667 4.83058667,2.44533333 C5.04525333,2.52866667 5.21325333,2.662 5.34392,2.852 C5.41858667,2.95866667 5.53805333,3.02866667 5.67805333,3.047 C5.80872,3.06866667 5.95618667,3.02866667 6.05885333,2.94866667 L6.95112,2.25533333 C7.14525333,2.10366667 7.16765333,1.837 7.00152,1.662 C6.61138667,1.252 6.15965333,0.962 5.66125333,0.793666667 C4.78952,0.503666667 3.68258667,0.475333333 2.77538667,0.720333333 C2.34978667,0.835333333 1.96525333,1.007 1.63112,1.23366667 C1.28578667,1.46366667 1.00392,1.75866667 0.794853333,2.10866667 C0.587653333,2.462 0.48312,2.87366667 0.48312,3.33366667 C0.48312,3.73033333 0.554053333,4.07866667 0.69592,4.37366667 C0.83592,4.66533333 1.03192,4.922 1.28205333,5.137 C1.51912,5.34033333 1.80098667,5.51366667 2.12205333,5.652 C2.42258667,5.78033333 2.74552,5.89533333 3.08152,5.98866667 L4.14178667,6.312 C4.40685333,6.392 4.62525333,6.48366667 4.78765333,6.577 C4.92018667,6.65533333 5.01538667,6.742 5.07138667,6.83533333 C5.12738667,6.92866667 5.15725333,7.07366667 5.15725333,7.252 C5.15725333,7.40533333 5.11992,7.53366667 5.04525333,7.64533333 C4.95752,7.77366667 4.84365333,7.88033333 4.70925333,7.96533333 C4.56365333,8.057 4.39565333,8.127 4.20898667,8.17533333 C3.71245333,8.30866667 3.18418667,8.26866667 2.71938667,8.06366667 C2.44685333,7.94533333 2.24152,7.77533333 2.09032,7.54533333 C2.01938667,7.44033333 1.89992,7.367 1.76552,7.34533333 C1.62365333,7.32033333 1.48925333,7.35533333 1.38098667,7.43366667 L0.447653333,8.117 C0.25912,8.25533333 0.21992,8.49866667 0.356186667,8.67866667 C0.53912,8.922 0.76312,9.13533333 1.02258667,9.31033333 C1.27085333,9.47366667 1.54152,9.607 1.82338667,9.70866667 C2.09965333,9.80866667 2.39085333,9.882 2.68578667,9.92866667 C2.97698667,9.977 3.27565333,10.0003333 3.57245333,10.0003333 C4.02232,10.0003333 4.46845333,9.947 4.90152,9.84033333 C5.34952,9.72866667 5.74712,9.557 6.08498667,9.332 C6.43778667,9.10033333 6.72525333,8.80366667 6.93992,8.447 C7.15832,8.08533333 7.26845333,7.66033333 7.26845333,7.18366667 C7.26845333,6.71866667 7.17512,6.31866667 6.99218667,5.99033333 C6.80738667,5.67033333 6.55912,5.39866667 6.25112,5.18533333" id="Fill-40" fill="#62676D" mask="url(#mask-8)"></path>
                    </g>
                    <path d="M161.533103,65 L154.466897,65 C154.208535,65 154,65.1877076 154,65.4202658 L154,66.320598 C154,66.5531561 154.208535,66.7425249 154.466897,66.7425249 L156.99331,66.7425249 L156.99331,73.5780731 C156.99331,73.8106312 157.203691,74 157.463899,74 L158.536101,74 C158.796309,74 159.004844,73.8106312 159.004844,73.5780731 L159.004844,66.7425249 L161.533103,66.7425249 C161.791465,66.7425249 162,66.5531561 162,66.320598 L162,65.4202658 C162,65.1877076 161.791465,65 161.533103,65" id="Fill-43" fill="#62676D"></path>
                    <path d="M171.591716,72.2588148 L167.75901,72.2588148 L167.75901,70.1986339 L171.122109,70.1986339 C171.348037,70.1986339 171.530393,70.0108916 171.530393,69.7766291 L171.530393,68.8777921 C171.530393,68.6451911 171.348037,68.4557873 171.122109,68.4557873 L167.75901,68.4557873 L167.75901,66.7411852 L171.389995,66.7411852 C171.615923,66.7411852 171.799892,66.5534429 171.799892,66.3191804 L171.799892,65.4220048 C171.799892,65.1877423 171.615923,65 171.389995,65 L166.408284,65 C166.18397,65 166,65.1877423 166,65.4220048 L166,73.5779952 C166,73.8122577 166.18397,74 166.408284,74 L171.591716,74 C171.817644,74 172,73.8122577 172,73.5779952 L172,72.6791582 C172,72.4465571 171.817644,72.2588148 171.591716,72.2588148" id="Fill-45" fill="#62676D"></path>
                    <path d="M181.873402,68.1677741 C181.769926,68.2940199 181.64174,68.3853821 181.479576,68.4451827 C181.292701,68.5149502 181.081115,68.5581395 180.852542,68.5714286 C180.58999,68.5863787 180.33825,68.5946844 180.094232,68.5946844 L179.684961,68.5946844 L179.684961,66.7425249 L180.556013,66.7425249 C180.762965,66.7425249 180.968373,66.755814 181.164514,66.7857143 C181.332856,66.807309 181.488842,66.8571429 181.624751,66.9318937 C181.739038,66.9950166 181.828614,67.0813953 181.898113,67.1943522 C181.962979,67.3023256 181.996956,67.461794 181.996956,67.6677741 C181.996956,67.8953488 181.953712,68.0697674 181.873402,68.1677741 L181.873402,68.1677741 Z M182.074177,70.0980066 C182.495803,69.948505 182.849475,69.7209302 183.129015,69.4136213 C183.536741,68.9651163 183.743693,68.3787375 183.743693,67.6677741 C183.743693,67.0813953 183.632495,66.5996678 183.413188,66.2325581 C183.195425,65.8770764 182.909707,65.5996678 182.562213,65.4119601 C182.237885,65.2375415 181.868769,65.1245847 181.464131,65.0714286 C181.074938,65.0232558 180.693466,65 180.330528,65 L178.392282,65 C178.176064,65 178,65.1877076 178,65.4219269 L178,73.5780731 C178,73.8106312 178.176064,74 178.392282,74 L179.291134,74 C179.508897,74 179.684961,73.8106312 179.684961,73.5780731 L179.684961,70.3355482 L180.227052,70.3355482 L182.168386,73.7940199 C182.23943,73.9219269 182.367616,74 182.50507,74 L183.609329,74 C183.749871,74 183.881147,73.9169435 183.950646,73.7840532 C184.020144,73.6511628 184.015511,73.4883721 183.941379,73.3554817 L182.074177,70.0980066 Z" id="Fill-47" fill="#62676D"></path>
                    <path d="M194.762903,70.1800451 C194.604305,69.8734958 194.391238,69.6145965 194.126907,69.4112892 C193.875393,69.2191002 193.588634,69.0586779 193.269835,68.9363758 C192.97827,68.8251921 192.672287,68.7171851 192.359896,68.6187081 C192.063525,68.5281728 191.813613,68.4360491 191.616566,68.3486905 C191.438744,68.2692735 191.300971,68.1866799 191.206453,68.1056746 C191.129557,68.0373761 191.076691,67.9659008 191.043049,67.8880722 C191.009406,67.8007136 190.990182,67.6958832 190.990182,67.5719928 C190.990182,67.4147473 191.02062,67.2829151 191.083099,67.1749081 C191.147179,67.062136 191.228881,66.9747774 191.333011,66.9064788 C191.456366,66.8286502 191.597342,66.7682934 191.754339,66.7285849 C192.161248,66.6237545 192.558545,66.6475796 192.909384,66.8016485 C193.093614,66.8810654 193.236193,67.0065442 193.348333,67.1892032 C193.414015,67.2892685 193.516544,67.3575671 193.636694,67.3766271 C193.756844,67.3893338 193.873791,67.3575671 193.963503,67.2797385 L194.727659,66.6189895 C194.89587,66.4744507 194.913492,66.2219048 194.770913,66.0551292 C194.436094,65.6643979 194.050011,65.3864386 193.620674,65.2276047 C192.87414,64.9512338 191.924151,64.924232 191.143975,65.1593061 C190.78032,65.2673132 190.450307,65.4309121 190.163548,65.6453378 C189.863973,65.8661169 189.623672,66.1488412 189.44585,66.4792157 C189.268027,66.8143552 189.178315,67.2066749 189.178315,67.6482331 C189.178315,68.0262577 189.239191,68.3598089 189.360944,68.6393565 C189.481094,68.9157274 189.649305,69.1603316 189.863973,69.3652273 C190.067428,69.560593 190.310932,69.7257802 190.584875,69.856024 C190.842798,69.9799145 191.119945,70.0895098 191.408306,70.1768685 L192.318244,70.4850062 C192.545729,70.5644231 192.731561,70.6486051 192.87414,70.7391404 C192.984678,70.812204 193.064778,70.8947976 193.114441,70.9853329 C193.164103,71.0742799 193.188133,71.210877 193.188133,71.3824176 C193.188133,71.5301331 193.157695,71.6524352 193.093614,71.7556773 C193.01832,71.8779793 192.920598,71.9812214 192.805254,72.0606383 C192.680297,72.1479969 192.536117,72.2162955 192.375916,72.2623573 C191.944977,72.3878361 191.493212,72.3481276 191.097517,72.1543503 C190.863624,72.0415782 190.685802,71.8827444 190.557641,71.6635536 C190.495163,71.5603116 190.394237,71.4904247 190.27729,71.4713646 C190.160344,71.4475395 190.041796,71.4793063 189.948879,71.5539582 L189.147877,72.2067655 C188.987677,72.3385976 188.952432,72.5689067 189.067777,72.7420357 C189.226375,72.9755215 189.417014,73.1772405 189.641294,73.3424277 C189.855963,73.4996733 190.086652,73.6283287 190.328554,73.723629 C190.565651,73.817341 190.815564,73.8888163 191.068681,73.9332898 C191.318593,73.9777633 191.573312,74 191.828031,74 C192.214114,74 192.598595,73.9491732 192.97026,73.8475195 C193.351537,73.7426891 193.692764,73.5806786 193.985931,73.3646645 C194.290312,73.1438854 194.537021,72.8595727 194.719649,72.5196682 C194.907084,72.176587 195,71.7715606 195,71.3172957 C195,70.8741492 194.921502,70.4929479 194.764505,70.1816335 L194.762903,70.1800451 Z" id="Fill-49" fill="#62676D"></path>
                </g>
            </g>
        </g>
    </g>
</svg>