<?xml version="1.0" encoding="UTF-8"?>
<svg width="238px" height="80px" viewBox="0 0 238 80" version="1.1" xmlns="http://www.w3.org/2000/svg" xmlns:xlink="http://www.w3.org/1999/xlink">
    <!-- Generator: sketchtool 42 (36781) - http://www.bohemiancoding.com/sketch -->
    <title>98062EE2-50BD-4F52-9191-BEDDA2F197AE</title>
    <desc>Created with sketchtool.</desc>
    <defs>
        <polygon id="path-1" points="-3.35214793e-13 5.87513229 -3.35214793e-13 80.0357143 238.813921 80.0357143 238.813921 0.388258359 -3.35214793e-13 0.388258359 -3.35214793e-13 5.87513229 -0.000222675898 80.035705 54.4797262 80.035705 54.4797262 5.87513229"></polygon>
        <polygon id="path-3" points="12.8523281 0.385066667 0.199962054 0.385066667 0.199962054 15.3815134 12.8523281 15.3815134 12.8523281 0.385066667"></polygon>
    </defs>
    <g id="Page-1" stroke="none" stroke-width="1" fill="none" fill-rule="evenodd">
        <g id="Desktop-HD-Copy-8" transform="translate(-926.000000, -2913.000000)">
            <g id="Group-40" transform="translate(275.000000, 2891.000000)">
                <g id="Page-1-Copy-3" transform="translate(651.000000, 22.000000)">
                    <g id="Group-3">
                        <mask id="mask-2" fill="white">
                            <use xlink:href="#path-1"></use>
                        </mask>
                        <g id="Clip-2"></g>
                    </g>
                    <path d="M53.2024941,8.36358781 C53.3869334,8.00335732 53.5849095,7.60574442 53.7625804,7.23871712 C54.1010011,6.55563854 54.0739274,6 53.7050489,6 L53.0315917,6 L45.7927727,6 L44.8147369,6 C44.2698795,6 44.082056,6.56583375 44.3866347,7.26250593 L44.7656659,8.13589495 C45.0702445,8.83766473 45.2326865,10.0118122 45.127776,10.7662572 L39.8467209,48.7043055 C39.7384263,49.4587504 39.4981476,49.4774417 39.3069399,48.7365903 L33.0816909,25.1007121 C32.8904832,24.3632592 33.0038542,23.2112013 33.3371986,22.5281227 L33.670543,21.8552393 C34.0055795,21.1704615 33.6603904,20.614823 32.9040201,20.614823 L24.453655,20.614823 C23.6955926,20.614823 23.3554798,21.1670631 23.6922084,21.8501417 L24.0001713,22.4771467 C24.3335156,23.1602252 24.4688839,24.3139823 24.2912131,25.0548337 L17.2080676,55.0117375 C17.0303968,55.7593857 16.7901181,55.7491905 16.6699787,54.9981439 L9.49545972,10.9191853 C9.36855196,10.1681387 9.54453072,9.00078798 9.87449091,8.3177094 L10.4058114,7.23871712 C10.7357716,6.55563854 10.4938008,6 9.84910936,6 L8.68663423,6 L0.935107919,6 L0.271803332,6 C-0.0936910322,6 -0.0886147216,6.54204494 0.275187539,7.20643231 L0.782818601,8.12909815 C1.15000507,8.79348552 1.54088099,9.94724262 1.65763613,10.6982892 L11.4870656,74.6120146 C11.6004365,75.3664596 11.5868997,76.5915831 11.4582998,77.3375321 L11.1486449,79.1607741 C11.0132766,79.9084223 11.4498393,80.2142784 12.1114518,79.8404543 L20.6650352,75.0113267 C21.3266477,74.6358034 21.5753869,73.8456752 21.2251214,73.2441582 C20.8731639,72.6460396 20.7259509,71.5568522 20.8985455,70.8177 L28.6585323,37.5983314 C28.8311269,36.8591792 29.1187845,36.8540816 29.3032237,37.5915346 L36.2154667,65.3394778 C36.399906,66.0820284 36.4642059,67.2918591 36.3576034,68.0480033 L36.3153008,68.3436641 C36.2086983,69.0964099 36.7044846,69.5144132 37.4287049,69.2731268 L45.6878623,66.4932349 C46.4053142,66.2502492 46.6574376,65.5348858 46.2479486,64.8908888 L46.1971855,64.807628 C45.7860043,64.1670295 45.5389572,63.0285652 45.6370992,62.2741202 L52.3801318,10.9548685 C52.4782738,10.1970251 52.8623813,9.04326799 53.2024941,8.36358781" id="Fill-1" fill="#62676D"></path>
                    <path d="M66.9011353,38.1380165 L70.5648965,18.4099236 C70.7061337,17.6579215 70.9482547,17.6510851 71.1063059,18.4030872 L75.8478417,40.6162055 C76.0058929,41.3630803 75.5451904,41.8176998 74.8121019,41.624572 L67.9755471,39.8488214 C67.2390958,39.6591118 66.7615794,38.8968551 66.9011353,38.1380165 M76.2984557,8.82189613 L76.5809302,8.24593084 C76.9121651,7.55716523 76.6868581,7 76.0731487,7 L74.9533392,7 L65.8452188,7 L64.9137256,7 C64.4008999,7 64.2277162,7.5691289 64.5270046,8.26985819 L64.7035511,8.66807751 C65.0062024,9.37393408 65.1255814,10.5549193 64.9776186,11.3035032 L54.9968539,60.6724448 C54.8488911,61.4244469 54.5243817,62.620814 54.2772166,63.3471797 L54.0720863,63.959036 C53.8266025,64.690529 54.2284561,65.136603 54.9682702,64.9622752 L62.8439275,63.1147427 C63.5803788,62.942124 63.8645347,62.2619039 63.4778137,61.6107384 L63.4710881,61.5902292 C63.0843671,60.9305182 62.8859624,59.785424 63.0255182,59.0334219 L65.0700954,48.0080448 C65.2096512,47.2560427 65.9124746,46.8236414 66.6371562,47.0355693 L76.6229651,50.0247779 C77.3476466,50.2384149 78.067284,51.0211807 78.2253352,51.7714738 L79.1585098,56.1604318 C79.3199237,56.912434 79.3199237,58.1276011 79.1585098,58.8761851 L79.1232004,59.0402583 C78.9617865,59.7922604 79.4342586,60.3066983 80.1807983,60.195607 L87.2107136,59.1684405 C87.9572533,59.0624765 88.2229138,58.4523293 87.7958393,57.8199639 L87.6394695,57.5789814 C87.2174392,56.9414886 86.7315159,55.8254491 86.5499251,55.0768651 L76.0243882,11.4214309 C75.8444789,10.6728469 75.9672208,9.50895265 76.2984557,8.82189613" id="Fill-4" fill="#62676D"></path>
                    <path d="M141.983683,32.9883752 C141.221683,32.9883752 140.600858,32.365052 140.600858,31.5999868 L140.600858,14.8744317 C140.600858,14.1093665 141.085612,13.487751 141.687728,13.487751 L142.767794,13.487751 C142.767794,13.487751 156.514403,13.2162212 156.614755,23.1893927 C156.614755,23.1893927 157.654,32.9883752 143.773021,32.9883752 L141.983683,32.9883752 Z M140.600858,7.02226687 L140.044666,7.02226687 L139.854166,7.02226687 L133.181567,7.02226687 L132.397456,7.02226687 C131.970532,7.02226687 131.87188,7.59094257 132.178041,8.29282159 L132.625375,9.33283212 C132.936638,10.0312957 133.181567,11.2232946 133.181567,11.9917753 L133.181567,54.2769978 C133.181567,55.0437708 132.877107,56.201615 132.491005,56.8642161 L132.448482,56.935941 C132.070884,57.5968344 132.377045,58.1706333 133.139045,58.2235731 C133.787084,58.2696819 134.629026,58.3345758 135.57132,58.4131316 C136.763645,58.5343808 138.234917,58.688077 139.582023,58.8349422 C139.961322,58.8861742 140.337219,58.9356985 140.708014,58.990346 C141.327138,59.0757328 141.590777,58.5856129 141.298223,57.8803184 L141.134938,57.4824162 C140.844085,56.7754139 140.600858,55.583415 140.600858,54.8149343 L140.600858,40.7688152 C140.600858,40.00375 141.221683,39.3804268 141.983683,39.3804268 L144.691503,39.3804268 C165.080094,39.4999682 163.989823,24.1166927 163.989823,24.1166927 C164.331702,5.6663254 143.308678,7.02226687 143.308678,7.02226687 L140.600858,7.02226687 Z" id="Fill-6" fill="#62676D"></path>
                    <path d="M178.575921,7.37993991 L175.361618,7.37993991 L171.607862,7.37993991 L170.820229,7.37993991 C170.387633,7.37993991 170.289395,7.94729413 170.596175,8.64754213 L171.044282,9.64594926 C171.35451,10.3461973 171.607862,11.5303149 171.607862,12.2953061 L171.607862,59.6617165 C171.607862,60.4284113 171.176991,61.5000804 170.649603,62.0606196 L170.299736,62.4269294 C169.772348,62.9874685 169.960209,63.5514152 170.711649,63.7337182 C171.924984,64.019951 173.48474,64.4254474 173.639854,64.4629302 C175.780425,65.0473221 186.019663,67.8517217 192.641301,70.0938783 C193.370336,70.3443319 194.513008,70.8520543 195.190338,71.2149566 L195.76943,71.5216345 C196.450208,71.8862406 197,72.0855812 197,71.9646138 L197,71.7465317 L197,64.3232214 L197,63.0385815 C197,62.3281109 196.460548,62.0742497 195.8039,62.4712273 L195.500566,62.648419 C194.84047,63.0453966 193.709863,63.1595489 192.980828,62.9125028 C189.890615,61.874909 185.340609,60.4352264 180.482098,59.2153297 C179.730658,59.0262116 179.120543,58.2595167 179.120543,57.4945256 L179.120543,39.9695841 C179.120543,39.2062967 179.744446,38.6287199 180.521738,38.6849442 L189.919914,39.3528207 C190.68859,39.4056374 191.81058,39.831579 192.422418,40.298411 L193.003233,40.7413903 C193.616795,41.2116298 194.111435,41.1554055 194.111435,40.6204229 L194.111435,39.649276 L194.111435,32.6962052 L194.111435,31.7540224 C194.111435,31.2360774 193.578878,31.1406665 192.922229,31.5478667 L192.503422,31.8000241 C191.846773,32.2038167 190.68859,32.4900495 189.919914,32.4457516 L180.521738,31.8818049 C179.744446,31.8358032 179.120543,31.1798531 179.120543,30.414862 L179.120543,15.4779417 C179.120543,14.7146544 179.747893,14.0944834 180.521738,14.0944834 L192.236281,14.0944834 C193.008404,14.0944834 194.171757,14.4216066 194.821512,14.8288067 L195.815964,15.4506815 C196.469166,15.8578816 197,15.7215803 197,15.140596 L197,14.0944834 L197,7.37993991 L197,7.11244858 C197,6.96251714 196.503636,6.96251714 195.888351,7.11244858 C195.274789,7.26238003 194.149352,7.37993991 193.378953,7.37993991 L179.120543,7.37993991 L178.575921,7.37993991 Z" id="Fill-8" fill="#62676D"></path>
                    <path d="M103.106373,32.2128897 C102.328687,32.2128897 101.693028,31.5942119 101.693028,30.8310626 L101.693028,14.830423 C101.693028,14.0689734 102.193588,13.4485959 102.803266,13.4485959 L103.913504,13.4485959 C103.913504,13.4485959 116.572984,13.2106429 117.889334,21.7378586 C118.005381,22.4925096 118.05561,23.7383635 117.96208,24.4896151 C117.634724,27.0357122 115.65327,32.2128897 104.994296,32.2128897 L103.106373,32.2128897 Z M114.704112,38.661416 C114.513588,37.9203624 114.986435,37.1555134 115.719088,36.9056628 C126.220446,33.3210708 125.508578,24.0341051 125.508578,24.0341051 C125.856718,5.67263177 104.448704,7.02216521 104.448704,7.02216521 L101.693028,7.02216521 L100.929199,7.02216521 L94.141334,7.02216521 L93.3757724,7.02216521 C92.9635469,7.02216521 92.8752128,7.58815342 93.18698,8.28501578 L93.574957,9.16884121 C93.8919203,9.86230424 94.141334,11.0486699 94.141334,11.8135189 L94.141334,53.9923879 C94.141334,54.7521378 93.9144368,55.9470018 93.6286502,56.6591612 L93.4121452,57.1945554 C93.1298227,57.9067148 93.5281919,58.4183137 94.3041458,58.3554261 C96.0604343,58.209255 99.1902305,57.9848993 101.989207,57.9424077 C102.766893,57.9339094 103.099445,57.3968155 102.733984,56.7237484 L102.359864,56.0302854 C101.989207,55.3572183 101.693028,54.1929483 101.693028,53.429799 L101.693028,39.6829142 C101.693028,38.9214646 102.328687,38.3010872 103.106373,38.3010872 L105.856852,38.3010872 C106.066429,38.3010872 106.267346,38.2976878 106.46653,38.2942885 C106.800814,38.2874899 107.251145,38.8755737 107.457257,39.608129 L108.600404,43.5598485 C108.600404,43.5598485 115.053985,69.8349588 134.62084,70.9584369 C134.62084,70.9584369 142.527602,71.9068495 142.996985,64.7427645 C143.048947,63.9881136 142.421948,63.6107881 141.677171,63.8249458 C138.621852,64.7070716 130.857117,65.9495262 124.159319,58.6222734 C124.159319,58.6222734 117.859889,51.1301532 114.704112,38.661416 L114.704112,38.661416 Z" id="Fill-10" fill="#62676D"></path>
                    <path d="M217.748035,71.0083844 L213.869594,68.7453678 C213.21869,68.3634098 212.682453,67.4389363 212.682453,66.6817806 L212.682453,15.9895334 C212.682453,15.2323777 213.297945,14.5631062 214.053398,14.5867673 C216.695797,14.6577506 222.525263,15.4656087 225.820252,20.9448467 C227.491354,23.4309538 228.747632,27.2556039 229.58234,30.6644944 C230.417048,34.0767651 232.794701,51.7448572 226.887667,66.66826 C226.887667,66.66826 224.361621,74.4138948 217.748035,71.0083844 M226.000684,11.1170339 C224.636484,10.015102 223.238559,9.18020267 221.818712,8.56839386 C220.393807,7.95151481 218.906509,7.54082547 217.366936,7.32111512 C215.862775,7.11323533 214.299595,7.01014048 212.682453,7.00338016 L212.210295,7.00338016 L210.365506,7.00338016 C208.380756,7 204.940747,7 204.940747,7 L203.918862,7 C203.355645,7 203.202194,7.53406515 203.583293,8.19319619 L204.256118,9.36780151 C204.635531,10.0269325 204.940747,11.1778768 204.940747,11.9350324 L204.940747,67.9391999 C204.940747,68.6997357 204.529295,69.7729362 204.02847,70.3357327 L203.299998,71.1385205 C202.7958,71.7030071 202.94082,72.4179108 203.632195,72.7356457 L206.070554,73.8696891 C207.561224,74.5693821 210.255898,75.842012 212.668963,76.9490142 C212.680767,76.9557745 214.937008,78.0644667 216.405757,78.7844406 C217.085328,79.1156962 218.225252,79.5686375 218.970587,79.7224348 C229.963439,81.9668605 233.622664,69.8625104 233.622664,69.8625104 C241.607195,49.9668935 237.629263,23.5222181 230.005596,15.0752003 C228.700416,13.3546993 227.364884,12.2257261 226.000684,11.1170339" id="Fill-12" fill="#62676D"></path>
                    <g id="Group-16" transform="translate(22.000000, 0.000000)">
                        <mask id="mask-4" fill="white">
                            <use xlink:href="#path-3"></use>
                        </mask>
                        <g id="Clip-15"></g>
                        <path d="M11.7123616,8.47670222 C9.42459375,9.45288 7.66262946,11.55048 6.91919196,14.2155467 C6.48044196,15.7693244 6.57271875,15.7710133 6.13919196,14.2155467 C5.39053125,11.55048 3.62856696,9.45288 1.33731696,8.47670222 C-0.17915625,7.82985778 -0.17915625,7.93794667 1.33731696,7.28772444 C3.62856696,6.31492444 5.39053125,4.21732444 6.13919196,1.54888 C6.57271875,-0.00489777778 6.48044196,-0.00489777778 6.91919196,1.54888 C7.66262946,4.21732444 9.42459375,6.31492444 11.7123616,7.28772444 C13.232317,7.93794667 13.232317,7.82985778 11.7123616,8.47670222" id="Fill-14" fill="#62676D" mask="url(#mask-4)"></path>
                    </g>
                </g>
            </g>
        </g>
    </g>
</svg>