<?xml version="1.0" encoding="UTF-8"?>
<svg width="604px" height="362px" viewBox="0 0 604 362" version="1.1" xmlns="http://www.w3.org/2000/svg" xmlns:xlink="http://www.w3.org/1999/xlink">
    <!-- Generator: sketchtool 42 (36781) - http://www.bohemiancoding.com/sketch -->
    <title>32E2564F-1C84-46AB-B4F0-05C4418FFD0B</title>
    <desc>Created with sketchtool.</desc>
    <defs>
        <path d="M229.468047,32.0791829 C230.523696,37.8507772 230.997067,37.8489224 235.842159,43.859789 C240.68725,49.8706557 243.205708,50.3318886 243.205708,50.3318886 C243.205708,50.3318886 238.114958,59.0371964 241.395141,68.1882802 C244.675324,77.3393641 248.365762,77.7573178 248.365762,77.7573178 C248.365762,77.7573178 247.727175,87.3498497 248.046468,88.9746757 C248.365762,90.5995016 253.366169,93.1288634 255.14394,82.9217663 C256.921711,72.7146693 262.173345,65.1748093 268.30613,68.5369871 C274.438915,71.899165 273.898096,86.4836469 266.712138,93.5536181 C259.52618,100.623589 267.481907,113.590046 283.6186,114.232434 C299.755293,114.874821 298.698407,112.263229 298.698407,111.069959 C298.698407,109.876688 300.753394,101.612211 304.306462,94.5249276 C307.859529,87.4376448 310.757921,85.7367711 310.757921,85.7367711 C310.757921,85.7367711 319.408545,80.3454157 320.094159,66.5646909 C320.779774,52.783966 313.30608,47.4476371 313.30608,47.4476371 C313.30608,47.4476371 325.461506,20.36906 290.302723,14.0867708 C255.14394,7.80448155 260.609055,0 260.609055,0 C260.609055,0 244.053444,0.220105794 237.99677,7.75130993 C231.940096,15.2825141 236.104524,25.7227007 236.104524,25.7227007 L231.110304,22.0767347 C231.110304,22.0767347 228.412399,26.3075885 229.468047,32.0791829 Z" id="path-1"></path>
    </defs>
    <g id="Page-1" stroke="none" stroke-width="1" fill="none" fill-rule="evenodd">
        <g id="Desktop-HD-Copy-8" transform="translate(-700.000000, -2317.000000)">
            <g id="Group-34" transform="translate(644.000000, 2317.000000)">
                <g id="Group-33">
                    <g id="Group-31" transform="translate(148.000000, 0.000000)">
                        <path d="M298.135231,127.041564 C298.135231,127.041564 305.535465,119.355621 307.769768,118.516232 C310.004071,117.676844 317.665453,112.262714 320.079273,106.360561 C322.493092,100.458408 327.904241,93.0588235 332.52161,93.0588235 C337.138978,93.0588235 337.087483,94.3768424 335.872349,97.8365525 C334.657214,101.296263 329.357106,111.997576 329.357106,113.600629 C329.357106,115.203683 345.155848,111.058058 352.934426,111.058058 C360.713004,111.058058 372.515917,113.600629 372.515917,113.600629 C372.515917,113.600629 374.354129,118.909138 371.449679,120.391463 C368.545228,121.873787 366.898109,122.346702 366.898109,122.346702 C366.898109,122.346702 366.061318,126.024296 363.955037,127.041564 C361.848756,128.058832 358.459262,131.574263 348.309777,134.263164 C338.160292,136.952066 323.044418,140.362484 318.118081,140.362484 C313.191743,140.362484 305.431761,143.134253 305.431761,143.134253 L298.135231,127.041564 Z" id="Path-121" fill="#A2A7AD"></path>
                        <path d="M6.51134383,239.425393 C6.51134383,239.425393 -3.66856179,156.103472 2.63636889,140.76942 C4.47305035,136.302477 15.3741641,130.263104 36.0258497,112.961498 C56.6775353,95.6598914 111.261858,93.9587529 111.261858,93.9587529 L142.944237,100.184138 L226.434016,142.880101 L307.600324,117.485744 L319.347279,143.877371 L228.296292,177.75364 L142.944237,159.066607 C142.944237,159.066607 150.458894,212.003687 158.292703,222.229392 C166.126512,232.455096 175.499552,239.425393 175.499552,239.425393 L60.7293608,293.709113 L120.604431,312.699097 L117.844333,328.312441 L117.504582,337.922501 L25.4171159,317.150363 L13.7276346,306.611145 L6.51134383,239.425393 Z" id="Path-109" fill="#E4DFCE"></path>
                        <path d="M83.7425495,122.738988 C83.7425495,122.738988 96.3706882,162.485337 96.3706882,163.909596 C96.3706882,165.333855 103.622249,214.66571 103.622249,214.66571 L121.951844,264.98325" id="Path-115" stroke="#CAC1A2" stroke-width="2"></path>
                        <path d="M50.9814347,97.9547949 L50.9814347,88.4887425 C50.9814347,88.4887425 39.729864,78.5846162 32.2158358,64.5594164 C24.7018076,50.5342165 21.5129787,22.8735212 44.0140617,10.0305603 C66.5151447,-2.81240059 97.689431,4.02108895 102.574868,38.2253129 C107.460304,72.4295369 98.3970485,84.7151075 98.3970485,84.7151075 L84.0905202,87.3928792 L84.7739751,103.839914 L82.7880439,122.613047 L49.7450998,108.607534 L50.9814347,97.9547949 Z" id="Path-116" fill="#A2A7AD"></path>
                        <path d="M51.8558712,106.352941 C51.8558712,106.352941 76.71446,115.783094 81.6238688,119.927168 C86.5332777,124.071241 76.121804,133.367135 76.121804,133.367135 C76.121804,133.367135 52.5021763,117.287228 49.2455516,108.211883 C45.9889269,99.1365375 51.8558712,106.352941 51.8558712,106.352941 Z" id="Path-110" fill="#CAC1A2"></path>
                        <path d="M86.9829073,98.8061916 C86.9829073,98.8061916 93.6573801,112.677949 95.805701,119.715335 C97.954022,126.752721 98.2543336,130.226136 95.6162862,128.288915 C92.9782387,126.351693 83.2454257,123.638317 82.1154122,122.178933 C80.9853986,120.719549 84.4118702,102.61111 84.4118702,99.7737076 C84.4118702,96.9363052 86.9829073,98.8061916 86.9829073,98.8061916 Z" id="Path-111" fill="#CAC1A2"></path>
                        <path d="M107.447589,162.435404 L128.452259,158.141973 C128.452259,158.141973 135.447175,183.31028 125.033902,186.348925 C114.62063,189.387569 110.126493,171.318405 110.126493,171.318405" id="Path-112" fill="#CAC1A2"></path>
                        <path d="M107.447589,162.435404 L128.452259,158.141973 C128.452259,158.141973 135.447175,183.31028 125.033902,186.348925 C114.62063,189.387569 110.126493,171.318405 110.126493,171.318405" id="Path-112" stroke="#968A64" stroke-width="2"></path>
                        <path d="M143.932806,163.190257 L135.758007,128.952941" id="Path-113" stroke="#968A64" stroke-width="2"></path>
                        <path d="M61.8915363,293.26385 L49.2654892,284.807798 C49.2654892,284.807798 46.2518242,209.482367 48.4201328,200.407519 C50.5884413,191.332671 51.2252354,167.529993 51.2252354,167.529993" id="Path-114" stroke="#968A64" stroke-width="2"></path>
                        <path d="M57.7655613,33.3254134 C60.3378969,33.3254134 64.7118767,20.4263728 81.9129289,24.9830051 C99.1139812,29.5396374 105.505889,14.4829972 103.735966,10.3420553 C101.966044,6.2011134 102.334909,0.694046453 91.6139792,2.95939307 C80.8930499,5.22473969 76.1547327,-2.28961325 57.1895254,0.723976164 C38.2243181,3.73756558 30.1864904,21.3369011 30.1864904,21.3369011 C30.1864904,21.3369011 19.68519,23.5503696 18.1156904,32.4188757 C16.5461908,41.2873818 22.638906,48.6966482 22.638906,48.6966482 C22.638906,48.6966482 20.3607164,54.5874806 23.4824129,59.7194285 C26.6041094,64.8513764 29.3062153,65.2856897 29.3062153,65.2856897 C29.3062153,65.2856897 30.593104,72.7721083 33.7602201,76.2878517 C36.9273361,79.8035952 42.4829465,80.8358377 42.4829465,80.8358377 C42.4829465,80.8358377 50.7759892,70.1429494 44.1122847,62.0007376 C37.4485802,53.8585258 35.271323,43.9890371 40.9098422,41.809489 C46.5483614,39.6299409 50.3340492,43.8174401 51.7499873,51.4249077 C53.1659254,59.0323753 60.3862003,57.7021659 57.9948222,47.4349446 C55.6034441,37.1677233 55.1932257,33.3254134 57.7655613,33.3254134 Z" id="Path-117" fill="#4A4F56"></path>
                        <path d="M226.243608,142.863513 C226.243608,142.863513 224.441894,147.643044 224.441894,148.361948 C224.441894,149.080852 223.684986,160.890908 223.684986,160.890908" id="Path-118" stroke="#968A64" stroke-width="2"></path>
                        <path d="M50.2888436,43.4896571 L70.6744594,46.170387 L109.038351,39.7860444 C109.038351,39.7860444 111.064963,49.9239641 109.851219,51.5644626 C108.637476,53.2049611 100.15308,56.1022035 96.6876224,52.647719 C93.222165,49.1932345 91.9709042,47.8566862 91.9709042,47.8566862 C91.9709042,47.8566862 89.8261834,55.8329508 84.6801042,56.9932357 C79.534025,58.1535206 73.8363072,58.5331114 73.8363072,58.5331114 L71.3635411,46.170387" id="Path-119" stroke="#4A4F56" stroke-width="2"></path>
                    </g>
                    <polygon id="Path-120" fill="#4A4F56" points="0.637800392 387.613433 345.767836 228 635 228 436.976344 426 118.045242 426"></polygon>
                    <ellipse id="Oval-13" fill="#62676D" cx="360" cy="263.5" rx="14" ry="5.5"></ellipse>
                    <ellipse id="Oval-13-Copy" fill="#62676D" cx="418" cy="295.5" rx="17" ry="6.5"></ellipse>
                    <g id="Group-32" transform="translate(315.000000, 60.000000)">
                        <path d="M65.0352499,275.423209 C65.0352499,275.423209 57.5473562,271.51983 49.3968108,270.304441 C41.2462653,269.089052 32.7958647,259.354631 29.664358,259.354631 C26.5328512,259.354631 26.4918333,264.992766 31.184143,268.556966 C35.8764526,272.121165 36.8516893,276.108632 36.8516893,276.108632 C36.8516893,276.108632 22.2952748,276.224518 17.2557271,274.602821 C12.2161795,272.981124 3.33155455,262.338695 3.33155455,262.338695 C3.33155455,262.338695 0.0741651945,262.700485 1.27358602,267.369134 C2.47300685,272.037784 11.6744599,280.484033 13.8399237,281.383563 C16.0053875,282.283092 31.8970063,287.555903 31.8970063,287.555903 L13.5287532,282.88796 L0.859870703,271.868195 C0.859870703,271.868195 -4.37486572,279.789424 11.234578,288.603823 C26.8440217,297.418222 45.7624808,298.706393 45.7624808,298.706393 L66.2848824,298.550937 L65.0352499,275.423209 Z" id="Path-107" fill="#E4DFCE"></path>
                        <ellipse id="Oval-12" stroke="#4A4F56" stroke-width="2" cx="223.234615" cy="67.1483516" rx="9.98076923" ry="9.97252747"></ellipse>
                        <path d="M260.105817,138.19035 C260.105817,138.19035 258.135004,131.274001 257.060788,126.582432 C255.986572,121.890862 252.511517,115.438999 252.511517,115.438999 C252.511517,115.438999 234.049276,114.944793 231.152971,114.944793 C228.256667,114.944793 217.879943,77.9285239 225.045067,47.7997337 C232.210191,17.6709434 265.036673,10.4973006 286.833743,19.6995694 C308.630813,28.9018382 321.44662,61.9432226 305.745557,87.9960795 C290.044494,114.048936 300.524051,121.628474 300.524051,121.628474 L260.105817,138.19035 Z" id="Path-97" fill="#D3CFC6"></path>
                        <path d="M254.407832,146.292383 L247.853846,148.751411 C247.853846,148.751411 248.036834,143.253929 249.583837,139.750875 C251.130839,136.247821 289.569871,125.014375 295.160296,122.436989 C300.75072,119.859603 301.410185,117.499502 302.951884,118.631856 C304.493582,119.76421 310.606452,130.256591 310.606452,130.256591 L254.407832,146.292383 Z" id="Path-96" fill="#E4DFCE"></path>
                        <path d="M120.495857,360.967603 L196.287547,344.263113 C196.287547,344.263113 206.572582,308.159396 206.572582,298.313146 C206.572582,288.466896 213.588059,271.738368 213.588059,271.738368 C213.588059,271.738368 177.685466,296.313127 172.363712,296.313127 C167.041958,296.313127 57.5538462,302.161741 57.5538462,302.161741 L58.8578202,271.293652 L167.5111,250.565085 C167.5111,250.565085 235.789301,158.311782 240.189612,152.770862 C244.589923,147.229943 312.540927,126.318681 312.540927,126.318681 C312.540927,126.318681 344.974275,155.34781 344.974275,177.944184 C344.974275,200.540559 330.856711,361.832996 330.856711,361.832996 L120.495857,360.967603 Z" id="Path-95" fill="#62676D"></path>
                        <path d="M223.576627,87.4160104 C223.576627,87.4160104 227.373002,92.5490042 235.233992,93.4919467 C243.094981,94.4348892 249.343802,81.7707598 249.343802,81.7707598 L252.620738,85.3269807 C252.620738,85.3269807 251.229144,108.091069 252.611084,114.700799 C253.993024,121.310529 230.994475,123.321376 228.412646,116.476496 C227.116015,113.0389 226.642682,113.399775 225.755357,106.969583 C224.875857,100.596092 223.576627,87.4160104 223.576627,87.4160104 Z" id="Path-3" fill="#B6A694"></path>
                        <mask id="mask-2" fill="white">
                            <use xlink:href="#path-1"></use>
                        </mask>
                        <use id="Path-98" fill="#62676D" xlink:href="#path-1"></use>
                        <g id="Group-30" mask="url(#mask-2)">
                            <g transform="translate(233.215385, 11.637363)">
                                <path d="M81.7823448,75.4068174 C81.7823448,75.4068174 71.2946349,81.0819862 59.5091438,77.7210784 C47.7236526,74.3601706 45.3712765,55.3034931 36.8109568,53.7378479 C28.2506371,52.1722028 18.4972086,60.4140546 9.0239561,58.8248186 C-0.449296447,57.2355826 -3.13300428,72.358095 7.66557495,86.5873011 C18.4641542,100.816507 43.1660714,118.524575 59.5044217,115.812415 C75.842772,113.100256 81.7823448,75.4068174 81.7823448,75.4068174 Z" id="Path-99" stroke="none" fill="#4A4F56" fill-rule="evenodd"></path>
                                <path d="M13.3306098,0.161653981 C13.3306098,0.161653981 11.4471774,13.8265819 24.1375394,23.3300618 C36.8279014,32.8335417 62.1490326,32.8063427 62.1490326,32.8063427" id="Path-100" stroke="#4A4F56" stroke-width="2" fill="none"></path>
                                <path d="M23.9538462,4.31868132 C23.9538462,4.31868132 25.1545344,16.97063 46.0930064,22.5412806" id="Path-101" stroke="#4A4F56" stroke-width="2" fill="none"></path>
                            </g>
                        </g>
                        <path d="M213.319536,65.2165798 L255.126328,73.8280262" id="Path-102" stroke="#4A4F56" stroke-width="2"></path>
                        <path d="M214.10791,272.221819 C214.10791,272.221819 247.274113,246.384587 256.010576,236.715832 C264.747039,227.047076 271.14641,209.548566 271.14641,209.548566" id="Path-103" stroke="#4A4F56" stroke-width="2"></path>
                        <path d="M242.52304,150.460482 C242.52304,150.460482 263.547257,157.149065 270.140451,162.995773" id="Path-104" stroke="#4A4F56" stroke-width="2"></path>
                        <path d="M327.217637,230.948919 C327.217637,230.948919 313.150484,292.912807 308.672919,321.174112 C304.195354,349.435417 301.353505,360.388963 301.353505,360.388963" id="Path-105" stroke="#4A4F56" stroke-width="2"></path>
                        <path d="M76.8598545,300.668158 L78.6006946,275.758929" id="Path-108" stroke="#4A4F56"></path>
                    </g>
                    <path d="M360,264.812759 C367.179702,264.812759 373,258.99246 373,251.812759 C373,244.633057 367.179702,245.003235 360,245.003235 C352.820298,245.003235 347,244.633057 347,251.812759 C347,258.99246 352.820298,264.812759 360,264.812759 Z" id="Oval-14" fill="#CAC1A2"></path>
                    <path d="M417.918941,296.939736 C426.595581,296.939736 433.629387,289.90593 433.629387,281.229291 C433.629387,272.552651 426.595581,273.00001 417.918941,273.00001 C409.242302,273.00001 402.208496,272.552651 402.208496,281.229291 C402.208496,289.90593 409.242302,296.939736 417.918941,296.939736 Z" id="Oval-14-Copy" fill="#CAC1A2"></path>
                </g>
                <ellipse id="Oval-15" fill="#4A4F56" cx="360" cy="249" rx="10" ry="2"></ellipse>
                <ellipse id="Oval-15-Copy" fill="#4A4F56" cx="418" cy="277.5" rx="12" ry="2.5"></ellipse>
            </g>
        </g>
    </g>
</svg>