<?xml version="1.0" encoding="UTF-8"?>
<svg width="63px" height="54px" viewBox="0 0 63 54" version="1.1" xmlns="http://www.w3.org/2000/svg" xmlns:xlink="http://www.w3.org/1999/xlink">
    <!-- Generator: sketchtool 42 (36781) - http://www.bohemiancoding.com/sketch -->
    <title>9D5D657D-F104-4DD9-B862-D54032CC208A</title>
    <desc>Created with sketchtool.</desc>
    <defs></defs>
    <g id="Page-1" stroke="none" stroke-width="1" fill="none" fill-rule="evenodd">
        <g id="Desktop-HD-Copy-8" transform="translate(-1080.000000, -1454.000000)">
            <g id="Group-2" transform="translate(0.000000, 1059.000000)">
                <g id="Group-71" transform="translate(1080.000000, 395.000000)">
                    <path d="M57.01077,0 L5.12573668,0 C2.29471177,0 0,2.21318471 0,4.94362829 L0,35.0090758 C0,37.7395193 2.29471177,39.952704 5.12573668,39.952704 L23.747548,39.952704 L31.0682534,54.074231 L38.3892695,39.9530037 L57.0110808,39.9530037 C59.8421057,39.9530037 62.1368174,37.739819 62.1368174,35.0093754 L62.1368174,4.94422767 C62.1368174,2.21378408 59.8417949,0 57.01077,0 Z" id="Shape" fill="#D3CFC6"></path>
                    <path d="M47.5844171,11.9205417 C47.5016082,10.7827059 46.4700858,9.92999461 45.2988925,10.004537 L37.4665543,10.5321904 C36.2868041,10.6120572 35.3971608,11.5986785 35.4794177,12.7365143 C35.5616745,13.8743501 36.5818796,14.7238667 37.7649422,14.6530515 L40.6110828,14.4611049 L29.8144634,25.2838562 L23.5066364,19.2001351 C22.671095,18.3932141 21.3144098,18.3932141 20.4788684,19.2001351 L12.6274842,26.7725735 C11.7908386,27.5789621 11.7908386,28.8863817 12.6274842,29.6927703 C13.4630256,30.4996913 14.8197108,30.4996913 15.6552522,29.6927703 L21.9926144,23.5810958 L28.3299766,29.6927703 C28.7315995,30.0806567 29.2759298,30.2976282 29.8439986,30.2976282 L29.8644248,30.2976282 C30.4396703,30.2920376 30.988417,30.0641509 31.3870037,29.6642844 L43.6838437,17.3376411 L43.8593984,19.7621312 C43.9383429,20.8507159 44.8790516,21.6831942 45.9931068,21.6831942 C46.0430681,21.6831942 46.0938576,21.6813307 46.144923,21.678136 C47.3246733,21.5982692 48.2140404,20.6116479 48.1315076,19.4732796 L47.5844171,11.9205417 Z" id="Shape" fill="#F8F5EC"></path>
                </g>
            </g>
        </g>
    </g>
</svg>