<?xml version="1.0" encoding="UTF-8"?>
<svg width="563px" height="260px" viewBox="0 0 563 260" version="1.1" xmlns="http://www.w3.org/2000/svg" xmlns:xlink="http://www.w3.org/1999/xlink">
    <!-- Generator: sketchtool 42 (36781) - http://www.bohemiancoding.com/sketch -->
    <title>3972BCF4-832C-4AE0-BAD5-39BF4D1FEBEB</title>
    <desc>Created with sketchtool.</desc>
    <defs>
        <path d="M6.21577282,6.03605762 L32.0890769,72.6406311 L39.3089743,77.1242187 L41.066887,68.3346255 L13.7640404,2.87225869 C13.7640404,2.87225869 11.1375456,1.98840566 8.57022885,3.43977151 C6.00291208,4.89113735 6.21577282,6.03605762 6.21577282,6.03605762 Z" id="path-1"></path>
    </defs>
    <g id="Page-1" stroke="none" stroke-width="1" fill="none" fill-rule="evenodd">
        <g id="Desktop-HD-Copy-8" transform="translate(-691.000000, -1059.000000)">
            <g id="Group-2" transform="translate(0.000000, 1059.000000)">
                <g id="Group-75" transform="translate(690.000000, -164.000000)">
                    <g id="Group-3" transform="translate(418.106081, 237.269856) rotate(-126.000000) translate(-418.106081, -237.269856) translate(251.606081, 62.769856)">
                        <g id="Group-13" transform="translate(109.660565, 113.218846) rotate(-217.000000) translate(-109.660565, -113.218846) translate(39.660565, 25.218846)">
                            <rect id="Rectangle-42" fill="#EAEAEA" x="1.13686838e-13" y="2.84217094e-14" width="140" height="176"></rect>
                            <rect id="Rectangle-42" fill="#D8D8D8" transform="translate(70.000000, 153.500000) rotate(-360.000000) translate(-70.000000, -153.500000) " x="15" y="147" width="110" height="13"></rect>
                            <rect id="Rectangle-42-Copy" fill="#62676D" transform="translate(86.500000, 129.000000) rotate(-360.000000) translate(-86.500000, -129.000000) " x="48" y="127" width="77" height="4"></rect>
                            <rect id="Rectangle-42-Copy" fill="#62676D" transform="translate(86.500000, 119.000000) rotate(-360.000000) translate(-86.500000, -119.000000) " x="48" y="117" width="77" height="4"></rect>
                            <rect id="Rectangle-42-Copy" fill="#62676D" transform="translate(86.500000, 109.000000) rotate(-360.000000) translate(-86.500000, -109.000000) " x="48" y="107" width="77" height="4"></rect>
                            <rect id="Rectangle-42-Copy" fill="#62676D" transform="translate(86.500000, 99.000000) rotate(-360.000000) translate(-86.500000, -99.000000) " x="48" y="97" width="77" height="4"></rect>
                        </g>
                        <path d="M138.542197,88.265322 C142.247482,88.265322 154.231208,83.7014937 158.148347,83.7014937 C162.065486,83.7014937 209.486215,97.1424431 228.025611,104.701756 C246.565006,112.26107 259.310329,111.256389 259.310329,111.256389 L297.438093,159.589793 L332.649109,140.824986 C332.649109,140.824986 283.079573,79.4367648 277.714044,79.3065441 C272.348515,79.1763234 164.986046,56.3334374 164.986046,56.3334374 C164.986046,56.3334374 151.652414,39.3060307 148.491897,39.3060307 C145.331379,39.3060307 124.085054,42.7191109 122.03423,45.3696171 C119.983406,48.0201233 114.069195,63.3323855 114.069195,65.3406567 C114.069195,67.3489279 122.737081,68.4639302 126.180888,63.5747085 C129.624694,58.6854867 134.716259,58.266569 134.716259,58.266569 C134.716259,58.266569 142.78073,64.1844754 142.78073,67.0717612 C142.78073,69.959047 137.119667,73.0142166 137.119667,73.0142166 C137.119667,73.0142166 128.457184,67.0686549 122.442748,68.9557646 C116.428312,70.8428743 116.633397,74.0087477 120.164258,76.0181663 C123.695119,78.0275849 134.836912,88.265322 138.542197,88.265322 Z" id="Path-92-Copy" fill="#D3CFC6"></path>
                        <path d="M149.356532,272.951015 C149.356532,272.951015 115.784319,199.085519 115.784319,188.36398 C115.784319,177.642442 123.894904,170.235915 120.682781,161.766016 C117.470657,153.296117 117.234286,139.428641 116.509302,139.428641 C115.784319,139.428641 113.518704,138.744394 112.400083,141.386303 C111.281463,144.028212 111.509753,146.085199 111.509753,146.085199 C111.509753,146.085199 110.888297,138.982098 111.64419,136.00231 C112.400083,133.022521 104.595104,132.042842 102.659713,134.022576 C100.724321,136.00231 100.091028,144.436553 100.091028,144.436553 C100.091028,144.436553 99.2759486,139.250363 99.2759486,135.776491 C99.2759486,132.302618 90.9315286,133.729691 90.9315286,139.907445 C90.9315286,146.085199 90.9619673,149.150731 90.9619673,149.150731 L88.3738358,140.795439 C88.3738358,140.795439 82.0975536,140.691868 84.5816863,158.323554 C87.065819,175.955241 92.5185665,180.053086 95.3899466,195.228782 C98.2613266,210.404478 117.491323,301.509901 120.682781,306.539036 C123.874238,311.568172 149.356532,348.856332 149.356532,348.856332 L176.124776,306.539036 L149.356532,272.951015 Z" id="Path-93-Copy" fill="#D3CFC6"></path>
                        <g id="Group-29-Copy" transform="translate(146.267747, 67.560998) rotate(131.000000) translate(-146.267747, -67.560998) translate(122.267747, 27.560998)">
                            <mask id="mask-2" fill="white">
                                <use xlink:href="#path-1"></use>
                            </mask>
                            <use id="Path-75" fill="#868C93" transform="translate(23.639177, 39.864976) rotate(-10.000000) translate(-23.639177, -39.864976) " xlink:href="#path-1"></use>
                            <path d="M37.4611538,71.2475159 C37.4611538,71.2475159 41.5334935,65.1051081 46.658301,65.1051081 C51.7831085,65.1051081 48.3617138,75.1891927 48.3617138,75.1891927 L41.7048254,77.1242187 L37.4611538,71.2475159 Z" id="Path-76" fill="#4A4F56" mask="url(#mask-2)"></path>
                            <path d="M11.0191106,8.61528845 C11.0191106,8.61528845 6.53527672,9.43845354 3.80764423,13.4229327" id="Path-78" stroke="#4A4F56" mask="url(#mask-2)"></path>
                            <path d="M12.2210216,19.432488 L37.4611538,60.2974639" id="Path-79" stroke="#BDC3CA" mask="url(#mask-2)"></path>
                        </g>
                        <path d="M124.026535,78.5515693 C122.33608,77.2347866 120.8965,76.1501758 119.975152,75.6258351 C116.44429,73.6164165 116.239206,70.4505431 122.253642,68.5634334 C125.689766,67.4853034 129.990209,68.9637444 133.045832,70.4294527 C130.896183,72.5537921 126.959692,76.1724142 124.026535,78.5515693 Z M132.033761,58.5032767 C130.265465,59.1637484 127.880747,60.5005853 125.991781,63.1823773 C122.547975,68.071599 113.880088,66.9565967 113.880088,64.9483255 C113.880088,64.6366479 114.005802,63.9510836 114.225875,63.005284 C114.274578,62.8806542 114.323239,62.7565509 114.371728,62.6329885 C115.592831,59.5213479 116.525674,56.6314666 117.323539,55.6971578 C119.05096,53.6743299 119.349144,51.4511648 121.560965,51.500411 C126.793792,51.6169198 130.557983,56.3114106 132.033761,58.5032767 Z" id="Combined-Shape" fill="#D3CFC6"></path>
                        <g id="Group-24" transform="translate(106.557282, 195.309530) rotate(-53.000000) translate(-106.557282, -195.309530) translate(95.557282, 184.809530)">
                            <path d="M5.68598672,0.270623072 C5.68598672,0.270623072 10.9827936,1.55760845 15.1720168,5.92623354 C19.3612401,10.2948586 21.3728307,14.3956534 21.3728307,14.3956534 L16.7160176,20.3458136 C16.7160176,20.3458136 13.4956913,13.5978878 9.59083903,10.5391505 C5.68598672,7.48041312 0.359915754,5.6412264 0.359915754,5.6412264 L5.68598672,0.270623072 Z" id="Path-94" fill="#62676D"></path>
                            <circle id="Oval-2" stroke="#62676D" fill="#B6A694" cx="11.5" cy="8.5" r="6.5"></circle>
                        </g>
                    </g>
                    <g id="Group-74" transform="translate(0.000000, 208.000000)">
                        <g id="Group-73">
                            <g id="Group-72">
                                <g id="Group" transform="translate(96.418240, 82.920862) rotate(-22.000000) translate(-96.418240, -82.920862) translate(14.918240, 27.420862)">
                                    <rect id="Rectangle-43" fill="#BDC3CA" x="-2.27373675e-13" y="2.27373675e-13" width="163" height="111" rx="4"></rect>
                                    <rect id="Rectangle-43" fill="#FAFAFA" x="10" y="6" width="137" height="100" rx="4"></rect>
                                    <path d="M99,66.6477901 L99.3093923,67.8660221 L100.48895,67.5759669 L100.48895,72.8839779 L101.958564,72.8839779 L101.958564,66.0676796 L100.94337,66.0676796 L99,66.6477901 Z M110.229972,69.4903315 C110.229972,67.5179558 109.040746,66 107.232735,66 C105.424724,66 104.21616,67.5372928 104.21616,69.5096685 C104.21616,71.4820442 105.405387,73 107.213398,73 C109.021409,73 110.229972,71.4627072 110.229972,69.4903315 Z M108.702348,69.5096685 C108.702348,70.7472376 108.131906,71.6560773 107.232735,71.6560773 C106.333564,71.6560773 105.743785,70.7375691 105.743785,69.4903315 C105.743785,68.2430939 106.314227,67.3439227 107.213398,67.3439227 C108.112569,67.3439227 108.702348,68.2720994 108.702348,69.5096685 Z M118.133978,69.4903315 C118.133978,67.5179558 116.944751,66 115.13674,66 C113.328729,66 112.120166,67.5372928 112.120166,69.5096685 C112.120166,71.4820442 113.309392,73 115.117403,73 C116.925414,73 118.133978,71.4627072 118.133978,69.4903315 Z M116.606354,69.5096685 C116.606354,70.7472376 116.035912,71.6560773 115.13674,71.6560773 C114.237569,71.6560773 113.64779,70.7375691 113.64779,69.4903315 C113.64779,68.2430939 114.218232,67.3439227 115.117403,67.3439227 C116.016575,67.3439227 116.606354,68.2720994 116.606354,69.5096685 Z M123.224447,67.7596685 C123.224447,66.8024862 122.566989,66.038674 121.59047,66.038674 C120.604282,66.038674 119.937155,66.8121547 119.937155,67.7790055 C119.937155,68.7361878 120.594613,69.5 121.571133,69.5 C122.55732,69.5 123.224447,68.7265193 123.224447,67.7596685 Z M126.70511,66.1160221 L125.554558,66.1160221 L120.61395,72.8839779 L121.764503,72.8839779 L126.70511,66.1160221 Z M127.381906,71.2209945 C127.381906,70.2638122 126.724447,69.5 125.747928,69.5 C124.76174,69.5 124.094613,70.2734807 124.094613,71.2403315 C124.094613,72.1975138 124.752072,72.961326 125.728591,72.961326 C126.714779,72.961326 127.381906,72.1878453 127.381906,71.2209945 Z M122.209254,67.7790055 C122.209254,68.2334254 121.996547,68.6201657 121.59047,68.6201657 C121.203729,68.6201657 120.952348,68.2237569 120.952348,67.7596685 C120.952348,67.3052486 121.165055,66.9185083 121.571133,66.9185083 C121.957873,66.9185083 122.209254,67.3149171 122.209254,67.7790055 Z M126.366713,71.2403315 C126.366713,71.6947514 126.154005,72.0814917 125.747928,72.0814917 C125.361188,72.0814917 125.109807,71.6850829 125.109807,71.2209945 C125.109807,70.7665746 125.322514,70.3798343 125.728591,70.3798343 C126.115331,70.3798343 126.366713,70.7762431 126.366713,71.2403315 Z" id="100%" fill="#62676D"></path>
                                    <circle id="Oval-10" fill="#D3CFC6" transform="translate(52.386706, 56.227401) rotate(119.000000) translate(-52.386706, -56.227401) " cx="52.3867061" cy="56.2274007" r="32.5"></circle>
                                    <path d="M19.8867061,56.2274007 C19.8867061,74.176655 34.4374517,88.7274007 52.3867061,88.7274007 C70.3359605,88.7274007 84.8867061,74.176655 84.8867061,56.2274007 C84.8867061,38.2781463 70.3359605,23.7274007 52.3867061,23.7274007 L52.3867061,55.6673298 L19.8867061,56.2274007 Z" id="Oval-10" fill="#62676D" transform="translate(52.386706, 56.227401) rotate(124.000000) translate(-52.386706, -56.227401) "></path>
                                    <path d="M19.8867061,56.2274007 C19.8867061,74.176655 34.4374517,88.7274007 52.3867061,88.7274007 C70.3359605,88.7274007 84.8867061,74.176655 84.8867061,56.2274007 C84.8867061,38.2781463 70.3359605,23.7274007 52.3867061,23.7274007 L52.3867061,55.6673298 L19.8867061,56.2274007 Z" id="Oval-10" fill="#868C93" transform="translate(52.386706, 56.227401) rotate(91.000000) translate(-52.386706, -56.227401) "></path>
                                    <circle id="Oval-9" fill="#EAEAEA" cx="155.5" cy="55.5" r="3.5"></circle>
                                    <rect id="Rectangle-44" fill="#62676D" x="97" y="31" width="32" height="3"></rect>
                                    <rect id="Rectangle-44-Copy" fill="#D3CFC6" x="97" y="40" width="32" height="3"></rect>
                                    <rect id="Rectangle-44-Copy-2" fill="#868C93" x="97" y="49" width="32" height="3"></rect>
                                </g>
                                <rect id="Rectangle-5" fill="#EAEAEA" x="121" y="90" width="72" height="75"></rect>
                                <path d="M221,137 L216.195041,130.571429 C218.695868,129.722857 220.409917,127.897143 220.409917,124.991429 L220.409917,124.94 C220.409917,121.237143 217.628099,119 212.991736,119 L204,119 L204,137 L208.327273,137 L208.327273,131.24 L211.727273,131.24 L215.942149,137 L221,137 Z M216.026446,125.197143 C216.026446,126.714286 214.818182,127.742857 212.710744,127.742857 L208.327273,127.742857 L208.327273,122.574286 L212.626446,122.574286 C214.733884,122.574286 216.026446,123.448571 216.026446,125.145714 L216.026446,125.197143 Z" id="R" stroke="#979797"></path>
                                <path d="M247.713653,137 L239.743173,118 L235.97048,118 L228,137 L232.171218,137 L233.871587,132.768794 L241.735793,132.768794 L243.436162,137 L247.713653,137 Z M240.274539,129.103546 L235.332841,129.103546 L237.80369,122.985816 L240.274539,129.103546 Z M272.525461,137 L272.525461,118.134752 L268.487085,118.134752 L268.487085,129.750355 L259.772694,118.134752 L256,118.134752 L256,137 L260.038376,137 L260.038376,125.007092 L269.045018,137 L272.525461,137 Z M300.136531,127.567376 L300.136531,127.513475 C300.136531,122.204255 296.098155,118.134752 290.253136,118.134752 L283,118.134752 L283,137 L290.253136,137 C296.098155,137 300.136531,132.876596 300.136531,127.567376 Z M295.722509,127.621277 C295.722509,130.963121 293.464207,133.253901 290.116605,133.253901 L286.954982,133.253901 L286.954982,121.880851 L290.116605,121.880851 C293.464207,121.880851 295.722509,124.225532 295.722509,127.567376 L295.722509,127.621277 Z" id="AND" fill="#D3CFC6"></path>
                                <path d="M200.993647,167.284706 C200.993647,167.364235 200.936471,167.431529 200.853882,167.443765 L198.185647,167.872 C197.848941,167.927059 197.582118,168.165647 197.499529,168.477647 C197.258118,169.376941 196.889647,170.239529 196.394118,171.040941 C196.222588,171.322353 196.235294,171.671059 196.432235,171.940235 L198.001412,174.069176 C198.045882,174.130353 198.039529,174.222118 197.982353,174.277176 L196.089176,176.100235 C196.044706,176.143059 196.000235,176.149176 195.968471,176.149176 C195.930353,176.149176 195.898588,176.136941 195.873176,176.118588 L193.668706,174.607529 C193.395529,174.417882 193.027059,174.405647 192.734824,174.570824 C191.902588,175.048 191.006824,175.402824 190.072941,175.635294 C189.742588,175.714824 189.494824,175.977882 189.444,176.296 L188.992941,178.865412 C188.980235,178.944941 188.910353,179 188.827765,179 L186.153176,179 C186.070588,179 186.000706,178.944941 185.988,178.865412 L185.543294,176.296 C185.486118,175.971765 185.238353,175.714824 184.914353,175.635294 C184.005882,175.408941 183.129176,175.060235 182.309647,174.607529 C182.176235,174.534118 182.023765,174.497412 181.877647,174.497412 C181.706118,174.497412 181.528235,174.546353 181.382118,174.650353 L179.158588,176.173647 C179.126824,176.192 179.095059,176.204235 179.063294,176.204235 C179.037882,176.204235 178.987059,176.198118 178.942588,176.155294 L177.049412,174.332235 C176.992235,174.277176 176.985882,174.191529 177.030353,174.124235 L178.593176,172.013647 C178.790118,171.744471 178.802824,171.389647 178.631294,171.108235 C178.135765,170.312941 177.754588,169.450353 177.513176,168.551059 C177.424235,168.239059 177.157412,168.000471 176.827059,167.945412 L174.139765,167.504941 C174.057176,167.492706 174,167.425412 174,167.345882 L174,164.770353 C174,164.690824 174.057176,164.623529 174.139765,164.611294 L176.788941,164.183059 C177.125647,164.128 177.398824,163.889412 177.481412,163.571294 C177.716471,162.672 178.078588,161.803294 178.567765,161.001882 C178.739294,160.720471 178.720235,160.371765 178.523294,160.108706 L176.941412,157.967529 C176.896941,157.906353 176.903294,157.814588 176.960471,157.759529 L178.853647,155.936471 C178.898118,155.893647 178.942588,155.887529 178.974353,155.887529 C179.012471,155.887529 179.044235,155.899765 179.069647,155.918118 L181.261412,157.423059 C181.540941,157.612706 181.909412,157.624941 182.201647,157.459765 C183.027529,156.982588 183.923294,156.615529 184.857176,156.383059 C185.181176,156.297412 185.428941,156.040471 185.486118,155.722353 L185.943529,153.134588 C185.956235,153.055059 186.026118,153 186.108706,153 L188.783294,153 C188.865882,153 188.935765,153.055059 188.948471,153.134588 L189.393176,155.685647 C189.450353,156.009882 189.698118,156.272941 190.028471,156.352471 C190.987765,156.584941 191.902588,156.945882 192.753882,157.429176 C193.046118,157.594353 193.408235,157.582118 193.687765,157.392471 L195.879529,155.875294 C195.911294,155.856941 195.943059,155.844706 195.974824,155.844706 C196.000235,155.844706 196.051059,155.850824 196.095529,155.893647 L197.988706,157.716706 C198.045882,157.771765 198.052235,157.857412 198.007765,157.924706 L196.438588,160.047529 C196.241647,160.310588 196.228941,160.665412 196.400471,160.946824 C196.896,161.748235 197.264471,162.610824 197.505882,163.510118 C197.588471,163.828235 197.861647,164.066824 198.192,164.115765 L200.860235,164.550118 C200.942824,164.562353 201,164.629647 201,164.709176 L201,167.284706 L200.993647,167.284706 L200.993647,167.284706 Z M187.5186,169.105046 C189.271259,169.105046 190.695034,167.734003 190.695034,166.046258 C190.695034,164.358513 189.271259,162.98747 187.5186,162.98747 C185.765942,162.98747 184.342167,164.358513 184.342167,166.046258 C184.342167,167.734003 185.765942,169.105046 187.5186,169.105046 Z" id="Combined-Shape" fill="#62676D"></path>
                                <path d="M136.992471,170.031765 C136.992471,170.126588 136.924706,170.206824 136.826824,170.221412 L133.664471,170.732 C133.265412,170.797647 132.949176,171.082118 132.851294,171.454118 C132.565176,172.526353 132.128471,173.554824 131.541176,174.510353 C131.337882,174.845882 131.352941,175.261647 131.586353,175.582588 L133.446118,178.120941 C133.498824,178.193882 133.491294,178.303294 133.423529,178.368941 L131.179765,180.542588 C131.127059,180.593647 131.074353,180.600941 131.036706,180.600941 C130.991529,180.600941 130.953882,180.586353 130.923765,180.564471 L128.311059,178.762824 C127.987294,178.536706 127.550588,178.522118 127.204235,178.719059 C126.217882,179.288 125.156235,179.711059 124.049412,179.988235 C123.657882,180.083059 123.364235,180.396706 123.304,180.776 L122.769412,183.839529 C122.754353,183.934353 122.671529,184 122.573647,184 L119.403765,184 C119.305882,184 119.223059,183.934353 119.208,183.839529 L118.680941,180.776 C118.613176,180.389412 118.319529,180.083059 117.935529,179.988235 C116.858824,179.718353 115.819765,179.302588 114.848471,178.762824 C114.690353,178.675294 114.509647,178.631529 114.336471,178.631529 C114.133176,178.631529 113.922353,178.689882 113.749176,178.813882 L111.113882,180.630118 C111.076235,180.652 111.038588,180.666588 111.000941,180.666588 C110.970824,180.666588 110.910588,180.659294 110.857882,180.608235 L108.614118,178.434588 C108.546353,178.368941 108.538824,178.266824 108.591529,178.186588 L110.443765,175.670118 C110.677176,175.349176 110.692235,174.926118 110.488941,174.590588 C109.901647,173.642353 109.449882,172.613882 109.163765,171.541647 C109.058353,171.169647 108.742118,170.885176 108.350588,170.819529 L105.165647,170.294353 C105.067765,170.279765 105,170.199529 105,170.104706 L105,167.033882 C105,166.939059 105.067765,166.858824 105.165647,166.844235 L108.305412,166.333647 C108.704471,166.268 109.028235,165.983529 109.126118,165.604235 C109.404706,164.532 109.833882,163.496235 110.413647,162.540706 C110.616941,162.205176 110.594353,161.789412 110.360941,161.475765 L108.486118,158.922824 C108.433412,158.849882 108.440941,158.740471 108.508706,158.674824 L110.752471,156.501176 C110.805176,156.450118 110.857882,156.442824 110.895529,156.442824 C110.940706,156.442824 110.978353,156.457412 111.008471,156.479294 L113.606118,158.273647 C113.937412,158.499765 114.374118,158.514353 114.720471,158.317412 C115.699294,157.748471 116.760941,157.310824 117.867765,157.033647 C118.251765,156.931529 118.545412,156.625176 118.613176,156.245882 L119.155294,153.160471 C119.170353,153.065647 119.253176,153 119.351059,153 L122.520941,153 C122.618824,153 122.701647,153.065647 122.716706,153.160471 L123.243765,156.202118 C123.311529,156.588706 123.605176,156.902353 123.996706,156.997176 C125.133647,157.274353 126.217882,157.704706 127.226824,158.280941 C127.573176,158.477882 128.002353,158.463294 128.333647,158.237176 L130.931294,156.428235 C130.968941,156.406353 131.006588,156.391765 131.044235,156.391765 C131.074353,156.391765 131.134588,156.399059 131.187294,156.450118 L133.431059,158.623765 C133.498824,158.689412 133.506353,158.791529 133.453647,158.871765 L131.593882,161.402824 C131.360471,161.716471 131.345412,162.139529 131.548706,162.475059 C132.136,163.430588 132.572706,164.459059 132.858824,165.531294 C132.956706,165.910588 133.280471,166.195059 133.672,166.253412 L136.834353,166.771294 C136.932235,166.785882 137,166.866118 137,166.960941 L137,170.031765 L136.992471,170.031765 L136.992471,170.031765 Z M121.64,172.84 C123.758794,172.84 125.48,171.172582 125.48,169.12 C125.48,167.067418 123.758794,165.4 121.64,165.4 C119.521206,165.4 117.8,167.067418 117.8,169.12 C117.8,171.172582 119.521206,172.84 121.64,172.84 Z" id="Combined-Shape" fill="#B6A694"></path>
                            </g>
                            <path d="M171,136 C171,131.275591 168.478992,128.962598 164.394958,127.437008 C166.915966,126.059055 169.033613,123.893701 169.033613,120.005906 C169.033613,114.494094 164.596639,111 157.386555,111 L141,111 L141,118.637826 M141,122 L141,132 M141,138.121887 L141,145 L157.789916,145 C165.756303,145 171,142 171,136 L171,136 M160,120.5 C160,122.959459 157.960474,124 154.735178,124 L148,124 L148,117 L155.209486,117 C158.29249,117 160,118.22973 160,120.405405 L160,120.5 Z M164,134.545455 C164,136.909091 161.753425,138 158.027397,138 L148,138 L148,131 L157.753425,131 C162.082192,131 164,132.318182 164,134.454545 L164,134.545455 Z" id="B" stroke="#B6A694"></path>
                        </g>
                        <path d="M134,145.25 L177.669623,145.25" id="Path" stroke="#62676D" stroke-width="0.5"></path>
                        <path d="M134,111.25 L180,111.25" id="Path-Copy" stroke="#62676D" stroke-width="0.5"></path>
                        <path d="M115.083417,126.75 L166.169623,126.75" id="Path" stroke="#62676D" stroke-width="0.5" transform="translate(140.500000, 127.000000) rotate(-270.000000) translate(-140.500000, -127.000000) "></path>
                        <path d="M146.083417,126.75 L197.169623,126.75" id="Path-Copy-2" stroke="#62676D" stroke-width="0.5" transform="translate(171.500000, 127.000000) rotate(-270.000000) translate(-171.500000, -127.000000) "></path>
                    </g>
                    <path d="M277.986824,264.668235 C277.986824,264.833412 277.868235,264.973176 277.696941,264.998588 L272.162824,265.888 C271.464471,266.002353 270.911059,266.497882 270.739765,267.145882 C270.239059,269.013647 269.474824,270.805176 268.447059,272.469647 C268.091294,273.054118 268.117647,273.778353 268.526118,274.337412 L271.780706,278.759059 C271.872941,278.886118 271.859765,279.076706 271.741176,279.191059 L267.814588,282.977412 C267.722353,283.066353 267.630118,283.079059 267.564235,283.079059 C267.485176,283.079059 267.419294,283.053647 267.366588,283.015529 L262.794353,279.877176 C262.227765,279.483294 261.463529,279.457882 260.857412,279.800941 C259.131294,280.792 257.273412,281.528941 255.336471,282.011765 C254.651294,282.176941 254.137412,282.723294 254.032,283.384 L253.096471,288.720471 C253.070118,288.885647 252.925176,289 252.753882,289 L247.206588,289 C247.035294,289 246.890353,288.885647 246.864,288.720471 L245.941647,283.384 C245.823059,282.710588 245.309176,282.176941 244.637176,282.011765 C242.752941,281.541647 240.934588,280.817412 239.234824,279.877176 C238.958118,279.724706 238.641882,279.648471 238.338824,279.648471 C237.983059,279.648471 237.614118,279.750118 237.311059,279.966118 L232.699294,283.129882 C232.633412,283.168 232.567529,283.193412 232.501647,283.193412 C232.448941,283.193412 232.343529,283.180706 232.251294,283.091765 L228.324706,279.305412 C228.206118,279.191059 228.192941,279.013176 228.285176,278.873412 L231.526588,274.489882 C231.935059,273.930824 231.961412,273.193882 231.605647,272.609412 C230.577882,270.957647 229.787294,269.166118 229.286588,267.298353 C229.102118,266.650353 228.548706,266.154824 227.863529,266.040471 L222.289882,265.125647 C222.118588,265.100235 222,264.960471 222,264.795294 L222,259.446118 C222,259.280941 222.118588,259.141176 222.289882,259.115765 L227.784471,258.226353 C228.482824,258.112 229.049412,257.616471 229.220706,256.955765 C229.708235,255.088 230.459294,253.283765 231.473882,251.619294 C231.829647,251.034824 231.790118,250.310588 231.381647,249.764235 L228.100706,245.317176 C228.008471,245.190118 228.021647,244.999529 228.140235,244.885176 L232.066824,241.098824 C232.159059,241.009882 232.251294,240.997176 232.317176,240.997176 C232.396235,240.997176 232.462118,241.022588 232.514824,241.060706 L237.060706,244.186353 C237.640471,244.580235 238.404706,244.605647 239.010824,244.262588 C240.723765,243.271529 242.581647,242.509176 244.518588,242.026353 C245.190588,241.848471 245.704471,241.314824 245.823059,240.654118 L246.771765,235.279529 C246.798118,235.114353 246.943059,235 247.114353,235 L252.661647,235 C252.832941,235 252.977882,235.114353 253.004235,235.279529 L253.926588,240.577882 C254.045176,241.251294 254.559059,241.797647 255.244235,241.962824 C257.233882,242.445647 259.131294,243.195294 260.896941,244.199059 C261.503059,244.542118 262.254118,244.516706 262.833882,244.122824 L267.379765,240.971765 C267.445647,240.933647 267.511529,240.908235 267.577412,240.908235 C267.630118,240.908235 267.735529,240.920941 267.827765,241.009882 L271.754353,244.796235 C271.872941,244.910588 271.886118,245.088471 271.793882,245.228235 L268.539294,249.637176 C268.130824,250.183529 268.104471,250.920471 268.460235,251.504941 C269.488,253.169412 270.252235,254.960941 270.752941,256.828706 C270.924235,257.489412 271.490824,257.984941 272.176,258.086588 L277.710118,258.988706 C277.881412,259.014118 278,259.153882 278,259.319059 L278,264.668235 L277.986824,264.668235 L277.986824,264.668235 Z M250,267 C253.310616,267 256,264.310616 256,261 C256,257.689384 253.310616,255 250,255 C246.689384,255 244,257.689384 244,261 C244,264.310616 246.689384,267 250,267 Z" id="Combined-Shape-Copy" fill="#EAEAEA"></path>
                    <path d="M255.992,218.581176 C255.992,218.679059 255.92,218.761882 255.816,218.776941 L252.456,219.304 C252.032,219.371765 251.696,219.665412 251.592,220.049412 C251.288,221.156235 250.824,222.217882 250.2,223.204235 C249.984,223.550588 250,223.979765 250.248,224.311059 L252.224,226.931294 C252.28,227.006588 252.272,227.119529 252.2,227.187294 L249.816,229.431059 C249.76,229.483765 249.704,229.491294 249.664,229.491294 C249.616,229.491294 249.576,229.476235 249.544,229.453647 L246.768,227.593882 C246.424,227.360471 245.96,227.345412 245.592,227.548706 C244.544,228.136 243.416,228.572706 242.24,228.858824 C241.824,228.956706 241.512,229.280471 241.448,229.672 L240.88,232.834353 C240.864,232.932235 240.776,233 240.672,233 L237.304,233 C237.2,233 237.112,232.932235 237.096,232.834353 L236.536,229.672 C236.464,229.272941 236.152,228.956706 235.744,228.858824 C234.6,228.580235 233.496,228.151059 232.464,227.593882 C232.296,227.503529 232.104,227.458353 231.92,227.458353 C231.704,227.458353 231.48,227.518588 231.296,227.646588 L228.496,229.521412 C228.456,229.544 228.416,229.559059 228.376,229.559059 C228.344,229.559059 228.28,229.551529 228.224,229.498824 L225.84,227.255059 C225.768,227.187294 225.76,227.081882 225.816,226.999059 L227.784,224.401412 C228.032,224.070118 228.048,223.633412 227.832,223.287059 C227.208,222.308235 226.728,221.246588 226.424,220.139765 C226.312,219.755765 225.976,219.462118 225.56,219.394353 L222.176,218.852235 C222.072,218.837176 222,218.754353 222,218.656471 L222,215.486588 C222,215.388706 222.072,215.305882 222.176,215.290824 L225.512,214.763765 C225.936,214.696 226.28,214.402353 226.384,214.010824 C226.68,212.904 227.136,211.834824 227.752,210.848471 C227.968,210.502118 227.944,210.072941 227.696,209.749176 L225.704,207.113882 C225.648,207.038588 225.656,206.925647 225.728,206.857882 L228.112,204.614118 C228.168,204.561412 228.224,204.553882 228.264,204.553882 C228.312,204.553882 228.352,204.568941 228.384,204.591529 L231.144,206.443765 C231.496,206.677176 231.96,206.692235 232.328,206.488941 C233.368,205.901647 234.496,205.449882 235.672,205.163765 C236.08,205.058353 236.392,204.742118 236.464,204.350588 L237.04,201.165647 C237.056,201.067765 237.144,201 237.248,201 L240.616,201 C240.72,201 240.808,201.067765 240.824,201.165647 L241.384,204.305412 C241.456,204.704471 241.768,205.028235 242.184,205.126118 C243.392,205.412235 244.544,205.856471 245.616,206.451294 C245.984,206.654588 246.44,206.639529 246.792,206.406118 L249.552,204.538824 C249.592,204.516235 249.632,204.501176 249.672,204.501176 C249.704,204.501176 249.768,204.508706 249.824,204.561412 L252.208,206.805176 C252.28,206.872941 252.288,206.978353 252.232,207.061176 L250.256,209.673882 C250.008,209.997647 249.992,210.434353 250.208,210.780706 C250.832,211.767059 251.296,212.828706 251.6,213.935529 C251.704,214.327059 252.048,214.620706 252.464,214.680941 L255.824,215.215529 C255.928,215.230588 256,215.313412 256,215.411294 L256,218.581176 L255.992,218.581176 L255.992,218.581176 Z M239,219.962963 C241.010017,219.962963 242.642857,218.369254 242.642857,216.407407 C242.642857,214.445561 241.010017,212.851852 239,212.851852 C236.989983,212.851852 235.357143,214.445561 235.357143,216.407407 C235.357143,218.369254 236.989983,219.962963 239,219.962963 Z" id="Combined-Shape-Copy-2" fill="#EAEAEA"></path>
                </g>
            </g>
        </g>
    </g>
</svg>