<?xml version="1.0" encoding="UTF-8"?>
<svg width="301px" height="70px" viewBox="0 0 301 70" version="1.1" xmlns="http://www.w3.org/2000/svg" xmlns:xlink="http://www.w3.org/1999/xlink">
    <!-- Generator: sketchtool 42 (36781) - http://www.bohemiancoding.com/sketch -->
    <title>FD94FE5B-C5A1-495E-B938-5D37478368F9</title>
    <desc>Created with sketchtool.</desc>
    <defs></defs>
    <g id="Page-1" stroke="none" stroke-width="1" fill="none" fill-rule="evenodd">
        <g id="Desktop-HD-Copy-8" transform="translate(-932.000000, -2266.000000)">
            <g id="Group-35" transform="translate(1087.431471, 2299.259715) rotate(10.000000) translate(-1087.431471, -2299.259715) translate(934.931471, 2251.759715)">
                <g id="Group-36" transform="translate(225.000000, -0.000000)">
                    <path d="M66.216275,11.3131142 L14.3312417,11.3131142 C11.5002168,11.3131142 9.20550501,13.5262989 9.20550501,16.2567425 L9.20550501,46.32219 C9.20550501,49.0526336 11.5002168,51.2658183 14.3312417,51.2658183 L32.953053,51.2658183 L40.2737584,65.3873452 L47.5947745,51.266118 L66.2165858,51.266118 C69.0476107,51.266118 71.3423225,49.0529332 71.3423225,46.3224897 L71.3423225,16.2573419 C71.3423225,13.5268983 69.0473,11.3131142 66.216275,11.3131142 Z" id="Shape-Copy" fill="#62676D" transform="translate(40.273914, 38.350230) rotate(-25.000000) translate(-40.273914, -38.350230) "></path>
                    <path d="M30.7615917,27.4008064 L30.7615917,22.4199045 L25.7184285,22.4199045 L25.7184285,27.4008064 L30.7615917,27.4008064 Z M30.7615917,39.1059258 L30.7615917,34.1250239 L25.7184285,34.1250239 L25.7184285,39.1059258 L30.7615917,39.1059258 Z M47.5877007,30.1714331 C47.5877007,24.1943508 44.6925515,19.9605842 38.9645144,16.8475205 L36.8787617,19.9917148 C41.0813977,22.9179947 42.8869746,25.7820133 42.8869746,30.1714331 C42.8869746,34.5608529 41.0813977,37.4248714 36.8787617,40.3511513 L38.9645144,43.4953456 C44.6925515,40.3822819 47.5877007,36.1485153 47.5877007,30.1714331 Z" id=":)" fill="#FAFAFA" transform="translate(36.653065, 30.171433) rotate(-26.000000) translate(-36.653065, -30.171433) "></path>
                </g>
                <g id="Group-37" transform="translate(0.000000, 40.000000)">
                    <path d="M57.01077,-1.45519152e-11 L5.12573668,-1.45519152e-11 C2.29471177,-1.45519152e-11 -2.04636308e-12,2.21318471 -2.04636308e-12,4.94362829 L-2.04636308e-12,35.0090758 C-2.04636308e-12,37.7395193 2.29471177,39.952704 5.12573668,39.952704 L23.747548,39.952704 L31.0682534,54.074231 L38.3892695,39.9530037 L57.0110808,39.9530037 C59.8421057,39.9530037 62.1368174,37.739819 62.1368174,35.0093754 L62.1368174,4.94422767 C62.1368174,2.21378408 59.8417949,-1.45519152e-11 57.01077,-1.45519152e-11 Z" id="Shape" fill="#D3CFC6"></path>
                    <path d="M27.724,18.944 L27.544,19.124 L28.372,24.956 L32.044,24.956 L32.44,22.76 C36.364,21.968 39.532,20.096 39.532,15.488 C39.532,10.664 36.004,8 30.82,8 C26.896,8 24.088,9.584 22,11.888 L25.312,15.524 C26.968,13.868 28.696,13.04 30.712,13.04 C32.8,13.04 34.024,13.976 34.024,15.632 C34.024,17.576 32.26,18.764 27.724,18.944 Z M33.016,33.524 L33.016,27.764 L27.184,27.764 L27.184,33.524 L33.016,33.524 Z" id="?" fill="#62676D"></path>
                </g>
            </g>
        </g>
    </g>
</svg>