<?xml version="1.0" encoding="UTF-8"?>
<svg width="633px" height="363px" viewBox="0 0 633 363" version="1.1" xmlns="http://www.w3.org/2000/svg" xmlns:xlink="http://www.w3.org/1999/xlink">
    <!-- Generator: sketchtool 42 (36781) - http://www.bohemiancoding.com/sketch -->
    <title>41807B2F-7E04-4AE0-840B-A5E8E48577F6</title>
    <desc>Created with sketchtool.</desc>
    <defs>
        <path d="M35.9492385,66.1316346 C35.9492385,66.1316346 37.0895067,60.9577472 39.4783095,52.6065463 C41.8671122,44.2553454 46.0596624,28.0128909 46.0596624,28.0128909 C46.0596624,28.0128909 45.6227041,22.6526811 45.6227041,16.0316818 C45.6227041,9.41068247 45.738703,4.90667385 45.8991827,3.35769143 C46.0596624,1.808709 47.3709481,1.04271918 48.9433299,1.04271918 C50.5157116,1.04271918 105.894016,0.789359435 105.894016,0.789359435 C105.894016,0.789359435 108.106949,0.0967263753 108.106949,5.08195294 C108.106949,10.0671795 108.004129,23.6953053 108.004129,25.2265126 C108.004129,26.7577199 107.365314,27.8540225 107.365314,27.8540225 L102.070221,74.7726199 C102.070221,74.7726199 109.349169,78.7351283 109.349169,80.7840172 L109.349169,104.08401 C109.349169,104.08401 83.8402371,125.466632 78.2447204,125.466632 C72.6492036,125.466632 4.53749202,121.105379 1.98939211,119.800382 C-0.55870779,118.495386 0.263071913,108.779567 1.12623201,106.953737 C1.98939211,105.127906 3.26052795,104.597751 3.26052795,104.597751 C3.26052795,104.597751 2.45972986,91.6509001 2.8601289,87.4993787 C3.26052795,83.3478573 35.1292614,71.9093264 35.1292614,71.9093264 L35.9492385,66.1316346 Z" id="path-1"></path>
        <polygon id="path-3" points="320.810468 9.5530491 159.569263 0.37965675 0.0392207351 20.7728133 167.913899 36.7760812"></polygon>
        <path d="M23.0356543,106.192497 L22.5705174,69.9262967 C22.4504783,60.5669779 20.2181173,45.6990009 17.5866415,36.7253858 L12.9441571,20.8940151 C12.9441571,20.8940151 9.07652042,20.7689687 4.40503433,16.3313854 C-0.266451752,11.8938022 0.225715966,8.69883692 0.225715966,8.69883692 L3.03249209,0.623068096 L31.0799165,0.623068096 C31.0799165,0.623068096 47.352034,12.473936 52.7324393,23.7313595 C58.1128447,34.9887831 58.4000721,48.6740428 58.4000721,48.6740428 L87.7547625,48.6740428 C87.7547625,48.6740428 92.8937944,48.4157623 94.0943807,50.2663718 C95.294967,52.1169812 94.9356324,56.6170675 94.9356324,56.6170675 L129.872972,56.6170675 C129.872972,56.6170675 138.882019,56.6819379 138.882019,66.3416266 L138.882019,101.977892 C138.882019,101.977892 141.372124,111.474032 122.722776,113.856819 C104.073428,116.239607 56.5901792,122.324214 55.3457276,121.894747 C54.101276,121.465281 23.0356543,106.192497 23.0356543,106.192497 Z" id="path-5"></path>
        <polygon id="path-7" points="6.14911567 6.6087479 162.575891 19.8216027 162.759389 131.27923 6.15315187 107.000859"></polygon>
        <path d="M13.4382658,23.9901063 C10.8048579,23.9901063 8.96418845,24.4971124 5.0099768,22.3678784 C4.46000779,21.7980235 1.6977225,17.9625149 0.88922385,12.727304 C-0.0272999222,6.79260612 2.07387669,2.5165431 2.37903951,2.55490426 L19.9775091,2.55490426 C19.9775091,2.55490426 21.8563982,6.38793344 21.3398189,12.5103001 C20.9147415,17.5482107 18.7217114,21.815062 18.7217114,21.815062 C18.7217114,21.815062 16.0716736,23.9901063 13.4382658,23.9901063 Z" id="path-9"></path>
        <polygon id="path-11" points="0.431366741 30.9823002 115.778536 0 115.778536 39.1221511 0.811397988 79.6650358"></polygon>
        <linearGradient x1="50%" y1="0%" x2="50%" y2="100%" id="linearGradient-13">
            <stop stop-color="#AFA58F" offset="0%"></stop>
            <stop stop-color="#D8D8D8" stop-opacity="0" offset="100%"></stop>
        </linearGradient>
        <rect id="path-14" x="0" y="0" width="77.8721072" height="18.4968153"></rect>
        <path d="M16.7480715,16.1434258 C16.7480715,17.0175207 13.1091581,17.7261146 8.6203309,17.7261146 C4.13150374,17.7261146 0.492590337,17.0175207 0.492590337,16.1434258 C0.492590337,15.9695211 0.243498456,0.781042778 0.243498456,0.781042778 C0.0843048856,0.733574465 0,0.684027942 0,0.633075523 C0,0.283437566 3.96972371,0 8.86662607,0 C13.7635284,0 17.7332521,0.283437566 17.7332521,0.633075523 C17.7332521,0.693908072 17.6130824,0.752736631 17.3887676,0.808417042 C17.3887676,0.808417042 16.7480715,16.0080736 16.7480715,16.1434258 Z" id="path-16"></path>
    </defs>
    <g id="Page-1" stroke="none" stroke-width="1" fill="none" fill-rule="evenodd">
        <g id="Desktop-HD-Copy-8" transform="translate(-607.000000, -315.000000)">
            <g id="Group-11" transform="translate(607.000000, 120.000000)">
                <g id="Group-71-Copy" transform="translate(0.000000, 194.000000)">
                    <g id="Group-44-Copy" transform="translate(249.036541, 242.229299)">
                        <g id="Group-43" transform="translate(48.581558, 0.000000)">
                            <rect id="Rectangle-11" fill="#A2A7AD" x="1.53415447" y="0" width="4.09107858" height="5.08812071"></rect>
                            <rect id="Rectangle-11" fill="#CFD5DD" x="2.04553929" y="0" width="0.511118012" height="5.08812071"></rect>
                            <rect id="Rectangle-11-Copy-2" fill="#9198A1" x="3.57969375" y="0" width="1.53415447" height="5.08812071"></rect>
                            <rect id="Rectangle-11-Copy" fill="#A2A7AD" x="0" y="4.07049657" width="7.15938751" height="32.0551605" rx="1.0164"></rect>
                            <rect id="Rectangle-11-Copy" fill="#9198A1" x="4.09107858" y="4.07049657" width="2.04553929" height="32.0551605"></rect>
                            <rect id="Rectangle-11-Copy" fill="#CFD5DD" x="1.53415447" y="4.07049657" width="1.02276964" height="32.0551605"></rect>
                            <rect id="Rectangle-11-Copy" fill="#9198A1" x="0" y="4.07049657" width="7.15938751" height="1.01762414" rx="0.508812071"></rect>
                        </g>
                        <ellipse id="Oval-17-Copy-4" fill="#62676D" cx="32.7286286" cy="29.7655062" rx="5.11384822" ry="5.34252675"></ellipse>
                        <ellipse id="Oval-17-Copy-5" fill="#4A4F56" cx="34.2627831" cy="29.7655062" rx="5.11384822" ry="5.34252675"></ellipse>
                        <ellipse id="Oval-17-Copy-8" fill="#62676D" cx="84.8898804" cy="29.2566941" rx="4.09107858" ry="4.3249026"></ellipse>
                        <ellipse id="Oval-17-Copy-9" fill="#4A4F56" cx="86.4240349" cy="29.2566941" rx="4.09107858" ry="4.3249026"></ellipse>
                        <path d="M49.2135086,25.2864626 C49.2135086,25.2864626 32.8723456,20.7555687 32.2001493,20.7555687 C31.5279529,20.7555687 31.2408726,23.3622476 31.2408726,23.3622476 L38.9893656,26.7589199 C38.9893656,26.7589199 2.20426641,29.9834783 2.20426641,30.5440973 C2.20426641,31.1047164 1.15297679,32.869135 1.91852442,33.7213825 C2.68407206,34.57363 3.20068287,37.5914517 3.20068287,37.5914517 L5.96307854,35.9095946 L6.01092526,33.5479368 L49.043201,32.3471934 L49.043201,27.3924461 L49.2135086,25.2864626 Z" id="Path-17" fill="#A2A7AD"></path>
                        <path d="M32.0706402,21.6468858 L45.5253341,25.6272781 L39.3099955,26.6607557 C39.3099955,26.6607557 40.0671195,25.4984503 37.4171009,24.4621173 C34.7670822,23.4257842 31.9018277,22.3734947 31.9018277,22.3734947 L32.0706402,21.6468858 Z" id="Path-18" fill="#CFD5DD"></path>
                        <path d="M2.58045074,32.4470527 C2.58045074,32.4470527 2.88061219,31.5202199 3.56953841,31.2135542 C4.25846463,30.9068885 43.1657387,27.2370361 43.1657387,27.2370361 C43.1657387,27.2370361 6.02342348,32.3624309 4.94644322,32.6533036 C3.86946296,32.9441764 2.58045074,32.4470527 2.58045074,32.4470527 Z" id="Path-19" fill="#CFD5DD"></path>
                        <ellipse id="Oval-17-Copy-2" fill="#62676D" cx="5.36954063" cy="39.9417476" rx="5.36954063" ry="5.34252675"></ellipse>
                        <ellipse id="Oval-17-Copy-3" fill="#4A4F56" cx="7.41507992" cy="39.9417476" rx="5.36954063" ry="5.34252675"></ellipse>
                        <path d="M55.0511391,31.5984467 L93.3633512,34.0925157 L93.673509,38.016889 C93.673509,38.016889 95.9427446,36.8865389 95.9427446,36.8865389 C95.9427446,36.8865389 96.139328,33.6171348 96.139328,33.6171348 C96.139328,33.6171348 97.0784884,31.100017 93.545778,30.4293618 C90.0130676,29.7587066 65.6894879,27.1932504 65.6894879,27.1932504 L85.2564565,24.0679011 L85.2847696,25.3800804 L87.383161,25.5119706 C87.383161,25.5119706 87.6614665,24.0598981 87.6614665,23.4772764 C87.6614665,22.8946547 88.29433,21.597201 86.7753933,21.1423079 C85.2564565,20.6874148 55.4919236,24.6306753 55.4919236,24.6306753 L55.0511391,31.5984467 Z" id="Path-20" fill="#A2A7AD"></path>
                        <path d="M59.0191644,25.7261321 L63.8845238,26.8004609 L85.0112902,23.4801575 C85.0112902,23.4801575 85.2883088,22.1407678 83.9038595,22.1407678 C82.5194103,22.1407678 59.0191644,25.7261321 59.0191644,25.7261321 Z" id="Path-21" fill="#9198A1"></path>
                        <path d="M54.4958151,26.7524426 C54.4958151,26.7524426 90.8512016,30.8861756 92.0751023,31.504651 C93.2990031,32.1231263 93.1291241,33.0111442 93.1291241,33.0111442 L54.4800498,30.485063 L54.4958151,26.7524426 Z" id="Path-28" fill="#9198A1"></path>
                        <ellipse id="Oval-17-Copy-6" fill="#62676D" cx="94.6061921" cy="39.9417476" rx="4.09107858" ry="4.3249026"></ellipse>
                        <ellipse id="Oval-17-Copy-7" fill="#4A4F56" cx="96.1403465" cy="39.9417476" rx="4.09107858" ry="4.3249026"></ellipse>
                    </g>
                    <rect id="Rectangle-52" fill="#33373D" x="295.297199" y="231.43949" width="11.5651644" height="13.1019108" rx="1.54"></rect>
                    <g id="Group-60" transform="translate(244.410475, 108.898089)">
                        <mask id="mask-2" fill="white">
                            <use xlink:href="#path-1"></use>
                        </mask>
                        <use id="Path-152" fill="#4A4F56" xlink:href="#path-1"></use>
                        <path d="M90.0849834,32.8331778 C83.6108807,32.578623 55.7651755,31.6830699 53.6202278,31.9913473 C51.1916246,32.3403923 50.9406299,32.3478692 49.1900797,38.7596251 C47.4395295,45.171381 41.5353462,67.2076695 41.5353462,68.6153665 C41.5353462,70.0230636 85.3468453,76.2282673 88.6702828,73.9934396 C91.9937203,71.758612 94.1972681,50.7294562 94.9309309,46.3099941 C95.9241047,40.3272817 97.5787987,33.1278267 90.0849834,32.8331778 Z" id="Path-157" fill="#62676D" mask="url(#mask-2)"></path>
                        <path d="M1.59494487,104.924799 L3.43499643,104.503621 C3.43499643,104.503621 25.5782959,101.60416 46.5491537,103.05389 C67.5200114,104.503621 88.2399372,107.519964 88.2399372,107.519964 C88.2399372,107.519964 68.6271586,109.242123 61.9666384,109.242123 C55.3061182,109.242123 0.300707972,106.127171 0.300707972,106.127171 L1.59494487,104.924799 Z" id="Path-153" fill="#62676D" mask="url(#mask-2)"></path>
                        <path d="M2.46149714,102.394024 C2.46149714,102.394024 8.64900288,102.111747 9.63140191,100.135806 C10.6138009,98.1598644 10.11955,76.4949507 10.11955,76.4949507 C10.11955,76.4949507 -1.16657663,79.4804842 -1.16657663,86.4777289 C-1.16657663,93.4749736 2.46149714,102.394024 2.46149714,102.394024 Z" id="Path-154" fill="#62676D" mask="url(#mask-2)"></path>
                    </g>
                    <g id="Group-59" transform="translate(353.894032, 256.872611)">
                        <polygon id="Rectangle-13" fill="#62676D" points="0 8.47770701 120.902718 18.500372 121.048721 107.127389 0.00321146986 88.305831"></polygon>
                        <polygon id="Rectangle-19" fill="#33373D" points="120.27771 18.2698097 230.532278 0 230.364234 67.1768205 120.574297 107.127389"></polygon>
                    </g>
                    <path d="M94.8343484,185.197452 L208.943971,185.197452 L208.943971,290.783439 L106.961886,311.466848 L94.8343484,308.509554 L94.8343484,185.197452 Z M104.857491,187.810976 L104.857491,306.415555 L198.920828,287.179284 L198.920828,192.43518 L104.857491,187.810976 Z" id="Combined-Shape" fill="#32363C"></path>
                    <g id="Group-54" transform="translate(311.488429, 195.987261)">
                        <mask id="mask-4" fill="white">
                            <use xlink:href="#path-3"></use>
                        </mask>
                        <use id="Path-106" fill="#CAC0A8" xlink:href="#path-3"></use>
                        <polygon id="Path-106" fill="#908367" mask="url(#mask-4)" points="177.04426 10.7963184 122.998577 5.12717864 16.0161002 18.4034052 97.9930429 24.1018829"></polygon>
                    </g>
                    <g id="Group-44" transform="translate(0.000000, 165.159236)">
                        <g id="Group-43" transform="translate(76.330085, 117.146497)">
                            <rect id="Rectangle-11" fill="#A2A7AD" x="2.31303289" y="0" width="6.1680877" height="7.70700637"></rect>
                            <rect id="Rectangle-11" fill="#CFD5DD" x="3.08404385" y="0" width="0.771010962" height="7.70700637"></rect>
                            <rect id="Rectangle-11-Copy-2" fill="#9198A1" x="5.39707674" y="0" width="2.31303289" height="7.70700637"></rect>
                            <rect id="Rectangle-11-Copy" fill="#A2A7AD" x="0" y="6.1656051" width="10.7941535" height="48.5541401" rx="1.54"></rect>
                            <rect id="Rectangle-11-Copy" fill="#9198A1" x="6.1680877" y="6.1656051" width="3.08404385" height="48.5541401"></rect>
                            <rect id="Rectangle-11-Copy" fill="#CFD5DD" x="2.31303289" y="6.1656051" width="1.54202192" height="48.5541401"></rect>
                            <rect id="Rectangle-11-Copy" fill="#9198A1" x="0" y="6.1656051" width="10.7941535" height="1.54140127" rx="0.770700637"></rect>
                        </g>
                        <g id="Group-42">
                            <mask id="mask-6" fill="white">
                                <use xlink:href="#path-5"></use>
                            </mask>
                            <use id="Path-5" fill="#A2A7AD" xlink:href="#path-5"></use>
                            <polygon id="Path-13" fill="#7F848A" mask="url(#mask-6)" points="9.1696026 20.5756558 41.4002244 20.5756558 53.0050401 48.8487469 11.8245181 42.1088687"></polygon>
                            <polygon id="Path-12" fill="#62676D" mask="url(#mask-6)" points="5.93562346 20.8633706 44.3575397 21.9762004 36.1859396 -2.99734682 -2.49802787 -3.73848304 -4.02769644 7.20146266"></polygon>
                            <polygon id="Path-11" fill="#62676D" mask="url(#mask-6)" points="26.5109337 107.689914 24.4582124 66.5913043 29.3676453 111.870755 26.9168997 110.584235"></polygon>
                            <path d="M27.5873372,9.09873775 C27.5873372,9.09873775 28.0139846,12.5017678 32.1153202,16.1444459 C36.2166558,19.7871239 38.8080056,21.3930178 38.8080056,21.3930178 C38.8080056,21.3930178 41.8389911,25.8406291 42.6937788,27.3141006 C46.7267521,34.2660852 48.9925333,47.6614034 49.6180991,60.5700919 C51.365351,96.6250178 49.6180991,133.648937 49.6180991,133.648937 C49.6180991,133.648937 141.852167,126.795392 144.360676,120.005318 C146.869184,113.215245 144.853673,56.7908122 139.983628,53.3804423 C135.113582,49.9700725 51.9125712,1.8076919 51.9125712,1.8076919 L28.1966053,-1.93073522 L27.5873372,9.09873775 Z" id="Path-9" fill="#4A4F56" mask="url(#mask-6)"></path>
                            <polygon id="Path-8" fill="#A2A7AD" mask="url(#mask-6)" points="-0.887304995 8.62483725 27.4093876 8.93963362 35.1670293 -8.61577408 -2.43882466 -3.0731841"></polygon>
                            <path d="M50.9566463,121.912546 C50.9566463,121.912546 55.6162934,79.5384229 58.1553815,63.445555 C58.7272364,59.82111 60.6385202,55.9782699 66.3773396,55.9782699 L139.455114,55.9782699 C139.455114,55.9782699 151.987328,116.141724 141.635459,122.265201 C131.28359,128.388677 50.9566463,121.912546 50.9566463,121.912546 Z" id="Path-6" fill="#62676D" mask="url(#mask-6)"></path>
                            <path d="M55.6364412,123.688526 C55.6364412,123.688526 62.60528,66.7250117 64.195088,62.6088056 C65.7848961,58.4925995 67.1452277,57.5477402 75.282426,57.5477402 L144.390323,57.5477402 C144.390323,57.5477402 146.614654,125.158872 139.535844,129.332265 C132.457035,133.505658 55.6364412,123.688526 55.6364412,123.688526 Z" id="Path-7" fill="#4A4F56" mask="url(#mask-6)"></path>
                        </g>
                        <rect id="Rectangle-12" fill="#BDBDBD" x="64.7649208" y="178.031847" width="3.85505481" height="6.1656051"></rect>
                        <ellipse id="Oval-17" fill="#62676D" cx="66.6924482" cy="188.436306" rx="8.0956151" ry="8.09235669"></ellipse>
                        <ellipse id="Oval-17-Copy" fill="#4A4F56" cx="69.7764921" cy="188.436306" rx="8.0956151" ry="8.09235669"></ellipse>
                        <path d="M81.5027333,169.306606 C81.5027333,169.306606 70.5129028,178.903252 68.9746003,178.903252 C67.4362977,178.903252 63.9021903,179.831177 63.2933604,179.367214 C62.6845304,178.903252 62.1284892,175.338906 62.1284892,175.338906 L77.3758281,157.163832 C77.3758281,157.163832 83.2369407,156.422742 84.1171438,159.97888 C84.9973469,163.535017 81.5027333,169.306606 81.5027333,169.306606 Z" id="Path-15" fill="#A2A7AD"></path>
                        <ellipse id="Oval-17-Copy-4" fill="#62676D" cx="52.4287454" cy="162.232484" rx="7.71010962" ry="8.09235669"></ellipse>
                        <ellipse id="Oval-17-Copy-5" fill="#4A4F56" cx="54.7417783" cy="162.232484" rx="7.71010962" ry="8.09235669"></ellipse>
                        <ellipse id="Oval-17-Copy-8" fill="#62676D" cx="131.071864" cy="161.461783" rx="6.1680877" ry="6.55095541"></ellipse>
                        <ellipse id="Oval-17-Copy-9" fill="#4A4F56" cx="133.384896" cy="161.461783" rx="6.1680877" ry="6.55095541"></ellipse>
                        <path d="M62.1029871,175.101086 C62.1029871,175.101086 64.4669778,175.558988 64.9392101,175.558988 C65.4114424,175.558988 67.2669346,176.381205 67.8297039,176.92318 C68.3924731,177.465154 68.6244739,175.950814 68.6244739,174.787163 C68.6244739,173.623512 80.2044426,157.257584 80.2044426,157.257584 C80.2044426,157.257584 79.4765464,156.583201 79.1843591,156.583201 C78.8921718,156.583201 67.3271211,172.596897 66.5444398,172.964298 C65.7617585,173.331699 62.1029871,175.101086 62.1029871,175.101086 Z" id="Path-16" fill="#CFD5DD"></path>
                        <path d="M77.2828722,155.448051 C77.2828722,155.448051 52.6454264,148.585079 51.6319612,148.585079 C50.618496,148.585079 50.1856671,152.533431 50.1856671,152.533431 L61.8680105,157.67839 C61.8680105,157.67839 6.40739936,162.562648 6.40739936,163.411821 C6.40739936,164.260994 4.82237808,166.933569 5.97658836,168.224473 C7.13079864,169.515378 7.9096888,174.08649 7.9096888,174.08649 L12.0745315,171.538971 L12.1466696,167.961754 L71.1072418,165.72738 L77.0261008,158.637996 L77.2828722,155.448051 Z" id="Path-17" fill="#A2A7AD"></path>
                        <path d="M51.4367013,149.935162 L71.7222399,155.964286 L62.3514216,157.5297 C62.3514216,157.5297 63.4929317,155.769149 59.497519,154.19941 C55.5021063,152.62967 51.182184,151.035761 51.182184,151.035761 L51.4367013,149.935162 Z" id="Path-18" fill="#CFD5DD"></path>
                        <path d="M6.97456958,166.294238 C6.97456958,166.294238 7.4271207,164.890359 8.46580946,164.425851 C9.50449822,163.961343 68.164696,158.402596 68.164696,158.402596 C68.164696,158.402596 12.1655131,166.166061 10.5417582,166.606648 C8.9180034,167.047235 6.97456958,166.294238 6.97456958,166.294238 Z" id="Path-19" fill="#CFD5DD"></path>
                        <ellipse id="Oval-17-Copy-2" fill="#62676D" cx="11.179659" cy="177.646497" rx="8.0956151" ry="8.09235669"></ellipse>
                        <ellipse id="Oval-17-Copy-3" fill="#4A4F56" cx="14.2637028" cy="177.646497" rx="8.0956151" ry="8.09235669"></ellipse>
                        <path d="M86.0842228,165.00885 L143.84725,168.786631 L144.314873,174.730902 C144.314873,174.730902 147.736182,173.018754 147.736182,173.018754 C147.736182,173.018754 148.032569,168.066569 148.032569,168.066569 C148.032569,168.066569 149.448534,164.253875 144.122294,163.23803 C138.796054,162.222185 102.123579,158.336273 102.123579,158.336273 L131.624547,153.602288 L131.667235,155.589854 L134.830964,155.789629 C134.830964,155.789629 135.250563,153.590166 135.250563,152.707665 C135.250563,151.825165 136.204726,149.859904 133.914637,149.170875 C131.624547,148.481846 86.7487901,154.454726 86.7487901,154.454726 L86.0842228,165.00885 Z" id="Path-20" fill="#A2A7AD"></path>
                        <path d="M92.066784,156.11402 L99.402249,157.741313 L131.254912,152.712029 C131.254912,152.712029 131.672571,150.683248 129.585247,150.683248 C127.497924,150.683248 92.066784,156.11402 92.066784,156.11402 Z" id="Path-21" fill="#9198A1"></path>
                        <path d="M85.246965,157.668579 C85.246965,157.668579 140.059702,163.929969 141.904967,164.866777 C143.750233,165.803585 143.494108,167.148671 143.494108,167.148671 L85.2231958,163.322401 L85.246965,157.668579 Z" id="Path-28" fill="#9198A1"></path>
                        <ellipse id="Oval-17-Copy-6" fill="#62676D" cx="145.721072" cy="177.646497" rx="6.1680877" ry="6.55095541"></ellipse>
                        <ellipse id="Oval-17-Copy-7" fill="#4A4F56" cx="148.034105" cy="177.646497" rx="6.1680877" ry="6.55095541"></ellipse>
                    </g>
                    <g id="Group-50" transform="translate(310.717418, 216.025478)">
                        <polygon id="Rectangle-13" fill="#D3CFC6" points="0.76654622 0.700509093 168.851401 14.6433121 169.054382 137.934775 0.771010962 111.751592"></polygon>
                        <mask id="mask-8" fill="white">
                            <use xlink:href="#path-7"></use>
                        </mask>
                        <use id="Rectangle-13" fill="#383532" xlink:href="#path-7"></use>
                        <g id="Group-45-Copy-3" mask="url(#mask-8)">
                            <g transform="translate(21.588307, 90.942675)">
                                <polygon id="Path-127" fill="#57706F" points="40.4292212 11.5171356 22.097904 15.8374924 0.463798262 11.8736143 0.463798262 6.9200739 28.3751524 0.0963515071 50.6644834 0.0963515071"></polygon>
                                <polygon id="Rectangle-17-Copy" fill="#99978E" points="22.068372 10.8782138 41.5006643 6.03938094 41.3853961 10.0161525 22.068372 14.8944189"></polygon>
                                <polygon id="Rectangle-17" fill="#F9F7F0" points="1.31136259 7.38596622 22.2871676 10.9170115 22.2871676 14.9418238 1.31136259 11.0643102"></polygon>
                            </g>
                        </g>
                        <g id="Group-47-Copy" mask="url(#mask-8)">
                            <g transform="translate(62.618897, 94.830004) rotate(10.000000) translate(-62.618897, -94.830004) translate(54.118897, 78.830004)">
                                <polygon id="Path-130" fill="#76645A" points="4.59987083 31.3921494 13.8611341 26.1861553 16.3173668 0.118310814 8.92546839 3.93748941"></polygon>
                                <path d="M0.25199381,28.7504274 C0.112821472,29.1511418 0.312485825,29.608772 0.715721733,29.7801221 L4.27969717,31.2945891 C4.67497936,31.4625593 5.10773004,31.2712146 5.24226624,30.8788924 L13.8781973,5.69557546 L8.89895699,3.85350318 L0.25199381,28.7504274 Z" id="Path-129" fill="#998072"></path>
                            </g>
                        </g>
                        <g id="Group-47" mask="url(#mask-8)">
                            <g transform="translate(60.909866, 71.675159)">
                                <polygon id="Path-130" fill="#677783" points="7.82748161 40.39256 20.9193886 36.6507592 21.8017093 0.0729801261 13.3284557 2.34330839"></polygon>
                                <path d="M1.01938398,37.1101661 C0.878669421,37.5096034 1.08361697,37.9670614 1.47443774,38.1307921 L7.05594636,40.469113 C7.44798017,40.633352 7.88108104,40.4350268 8.02010941,40.0353264 L20.2151942,4.9749956 L13.2366802,2.42972505 L1.01938398,37.1101661 Z" id="Path-129" fill="#8A9CAA"></path>
                            </g>
                        </g>
                        <g id="Group-46" mask="url(#mask-8)">
                            <g transform="translate(16.191230, 26.974522)">
                                <path d="M2.30808617,24.3880049 C1.45918297,24.2832698 0.771010962,23.509417 0.771010962,22.6631278 L0.771010962,11.0395433 C0.771010962,11.0395433 -0.365422005,10.0825834 4.19101134,8.77058512 C8.74744468,7.45858684 65.7221075,0.509926551 65.7221075,0.509926551 L64.9238087,13.6571574 L64.9238087,25.0141181 L48.5965745,30.0989373 L2.30808617,24.3880049 Z" id="Path-126" fill="#5A6A76"></path>
                                <polygon id="Path-29" fill="#9A978E" points="48.5260035 16.4225123 64.6318225 13.1019108 64.5793998 23.7877383 48.5260035 28.2680268"></polygon>
                                <polygon id="Rectangle-16" fill="#F9F7F0" points="2.42997059 11.5605096 48.5736906 16.3950174 48.5736906 28.1942357 2.31303289 22.6910815"></polygon>
                            </g>
                        </g>
                        <g id="Group-45" mask="url(#mask-8)">
                            <g transform="translate(111.796590, 50.095541)">
                                <polygon id="Path-127" fill="#76645A" points="58.0839329 10.6287611 31.7837543 16.6758282 0.666182959 12.8931906 0.666182959 5.62799799 32.7088501 0.520984333 60.7436101 2.43056229"></polygon>
                                <polygon id="Rectangle-17-Copy" fill="#99978E" points="31.6114495 9.5431915 59.604383 3.85350318 59.438816 9.68610148 31.6114495 15.4336256"></polygon>
                                <polygon id="Rectangle-17" fill="#F9F7F0" points="1.54202192 6.93630573 32.0359499 9.57682616 32.0359499 15.4798842 1.54202192 12.3312102"></polygon>
                            </g>
                        </g>
                        <g id="Group-45-Copy" mask="url(#mask-8)">
                            <g transform="translate(104.857491, 42.388535)">
                                <polygon id="Path-127" fill="#76645A" points="58.0839329 10.6287611 31.7837543 16.6758282 0.666182959 12.8931906 0.666182959 5.62799799 32.7088501 0.520984333 60.7436101 2.43056229"></polygon>
                                <polygon id="Rectangle-17-Copy" fill="#99978E" points="31.6114495 9.5431915 59.604383 3.85350318 59.438816 9.68610148 31.6114495 15.4336256"></polygon>
                                <polygon id="Rectangle-17" fill="#F9F7F0" points="1.54202192 6.93630573 32.0359499 9.57682616 32.0359499 15.4798842 1.54202192 12.3312102"></polygon>
                            </g>
                        </g>
                        <g id="Group-45-Copy-2" mask="url(#mask-8)">
                            <g transform="translate(116.422655, 34.681529)">
                                <polygon id="Path-127" fill="#76645A" points="58.0839329 10.6287611 31.7837543 16.6758282 0.666182959 12.8931906 0.666182959 5.62799799 32.7088501 0.520984333 60.7436101 2.43056229"></polygon>
                                <polygon id="Rectangle-17-Copy" fill="#99978E" points="31.6114495 9.5431915 59.604383 3.85350318 59.438816 9.68610148 31.6114495 15.4336256"></polygon>
                                <polygon id="Rectangle-17" fill="#F9F7F0" points="1.54202192 6.93630573 32.0359499 9.57682616 32.0359499 15.4798842 1.54202192 12.3312102"></polygon>
                            </g>
                        </g>
                        <rect id="Rectangle-14" fill="#D3CFC6" mask="url(#mask-8)" x="77.8721072" y="10.7898089" width="5.39707674" height="109.43949"></rect>
                        <polygon id="Rectangle-15" fill="#D3CFC6" mask="url(#mask-8)" points="4.62606577 53.1783439 164.736011 72.865226 164.736011 78.2601304 4.62606577 58.5732484"></polygon>
                        <path d="" id="Path-128" stroke="#979797" stroke-width="0.77" mask="url(#mask-8)"></path>
                        <g id="Group-49" mask="url(#mask-8)">
                            <g transform="translate(101.002436, 79.382166)">
                                <g id="Group-48" stroke="none" stroke-width="1" fill="none" fill-rule="evenodd" transform="translate(13.107186, 16.955414)">
                                    <mask id="mask-10" fill="white">
                                        <use xlink:href="#path-9"></use>
                                    </mask>
                                    <use id="Combined-Shape" fill="#C3BBAF" xlink:href="#path-9"></use>
                                    <path d="M8.85399076,25.489355 C8.85399076,25.489355 6.22859055,16.1185491 7.05060082,9.28178735 C7.87261109,2.44502556 8.66911788,0.0399106594 8.66911788,0.0399106594 L17.4851698,3.27446983 C17.4851698,3.27446983 16.5588512,23.5112691 15.5656969,25.385821 C14.5725426,27.2603728 8.85399076,25.489355 8.85399076,25.489355 Z" id="Path-132" fill="#979086" mask="url(#mask-10)"></path>
                                    <path d="M12.1394905,26.6266665 C12.1394905,26.6266665 16.609271,13.8509587 14.3743808,6.7610269 C12.1394905,-0.328904881 25.8775384,-0.453927097 25.8775384,-0.453927097 C25.8775384,-0.453927097 24.4298235,23.3940608 23.3624074,24.1695892 C22.2949913,24.9451177 12.1394905,26.6266665 12.1394905,26.6266665 Z" id="Path-131" fill="#6E6962" mask="url(#mask-10)"></path>
                                    <path d="M12.7477835,5.55484811 C17.6446859,5.55484811 20.046285,4.18721396 20.046285,2.69745223 C20.046285,1.2076905 15.1718258,0.274275939 10.2749234,0.274275939 C5.37802106,0.274275939 2.31303289,1.2076905 2.31303289,2.69745223 C2.31303289,4.18721396 7.85088118,5.55484811 12.7477835,5.55484811 Z" id="Oval-18" fill="#EAE3DA"></path>
                                    <path d="M12.5568952,3.85350318 C16.2787375,3.85350318 18.1040493,3.0550772 18.1040493,2.18535303 C18.1040493,1.31562886 14.3992646,0.770700637 10.6774222,0.770700637 C6.95557983,0.770700637 4.62606577,1.31562886 4.62606577,2.18535303 C4.62606577,3.0550772 8.83505279,3.85350318 12.5568952,3.85350318 Z" id="Oval-18" fill="#393632"></path>
                                </g>
                                <path d="M13.8781973,11.7194317 C13.8781973,11.7194317 22.9826126,9.70715346 22.9826126,20.0034804" id="Path-137" stroke="#7A7262" stroke-width="0.77" stroke-linecap="round" stroke-linejoin="round" fill="none"></path>
                                <path d="M14.4239042,11.511416 C14.4239042,11.511416 12.2461973,8.10256745 7.68210058,8.51181279 C3.11800386,8.92105813 1.7658489,11.4786886 1.36990219,12.2629225 C0.973955475,13.0471565 1.60367598,13.559172 1.48678908,14.5480286 C1.36990219,15.5368853 7.66681959e-17,17.294071 0,18.1321369 C0,18.9702029 1.37908179,18.839905 1.37449199,20.7258593 C1.36990219,22.6118135 0.578314749,23.3758605 0.976403368,24.3362718 C1.37449199,25.2966831 3.9920547,21.1262346 5.6020034,21.5568903 C7.21195211,21.9875461 7.92107614,22.9207356 8.36077895,20.9295643 C8.80048175,18.9383931 11.6954213,16.9976893 12.4900687,18.1691464 C13.284716,19.3406035 14.6995982,16.7881728 14.6995982,15.2805717 C14.6995982,13.7729706 14.4239042,11.511416 14.4239042,11.511416 Z" id="Path-133" stroke="none" fill="#7A9488" fill-rule="evenodd"></path>
                                <path d="M30.8465002,13.4923394 C30.8465002,13.4923394 30.6567885,18.2105895 32.3999944,20.7709727 C34.1432002,23.3313559 35.0400471,20.7373277 36.1155901,21.6729641 C37.1911332,22.6086005 38.3878469,25.8397423 39.325084,24.8276401 C40.2623211,23.8155378 42.4886799,25.2812356 43.2726176,28.421536 C44.0565554,31.5618364 46.035065,26.8601029 44.8484488,21.8941034 C43.6618326,16.9281039 45.8429054,18.4305053 45.8429054,18.4305053 C45.8429054,18.4305053 45.2015574,16.1533517 42.7022585,15.209457 C40.2029597,14.2655623 40.1864364,13.2436724 40.8455316,12.0856732 C41.3262495,11.2410746 37.9493681,10.0972547 33.8929032,11.3329432 C32.7823802,11.6712329 30.8465002,13.4923394 30.8465002,13.4923394 Z" id="Path-134" stroke="none" fill="#57706F" fill-rule="evenodd"></path>
                                <path d="M19.3629691,7.07441107 C19.3629691,7.07441107 19.0196521,3.49917282 17.2421757,2.12034024 C15.4646993,0.741507657 13.6581542,1.30032024 12.0339771,0.681864278 C10.4098,0.0634083157 10.0236449,0.0358806022 8.06563636,0.0358806022 C6.10762785,0.0358806022 6.20401365,-0.211562955 4.38369913,0.593163868 C2.56338461,1.39789069 5.7814461,0.497428598 8.9077116,1.70925972 C12.0339771,2.92109084 13.3977595,2.90120971 14.0645044,3.84326924 C14.7312493,4.78532876 15.150145,4.60181067 15.6914354,5.83811087 C16.2327258,7.07441107 17.7253286,8.40277617 18.5441488,8.40277617 C19.3629691,8.40277617 19.3629691,7.07441107 19.3629691,7.07441107 Z" id="Path-135" stroke="none" fill="#57706F" fill-rule="evenodd"></path>
                                <path d="M27.7563946,6.74231286 C28.1321462,6.09051778 30.8731746,4.05591389 33.08454,3.45152765 C35.2959054,2.84714141 35.6450362,2.44829543 38.145559,2.44829543 C40.6460818,2.44829543 41.2721305,1.8425494 43.0055448,3.18603815 C44.7389591,4.5295269 45.2282318,5.37693828 46.9044266,6.05962557 C48.5806214,6.74231286 44.7848571,5.96939584 41.695922,4.71046175 C38.6069869,3.45152765 37.06971,3.85465572 36.634597,4.46852373 C36.199484,5.08239174 35.2698966,5.11481327 34.1772183,5.11481327 C33.08454,5.11481327 32.9388904,6.42268552 31.3079816,6.42268552 C29.6770728,6.42268552 27.380643,7.39410795 27.7563946,6.74231286 Z" id="Path-136" stroke="none" fill="#3E5554" fill-rule="evenodd"></path>
                                <path d="M18.5042631,6.93630573 C18.5042631,6.93630573 20.8362588,10.9682078 21.8585454,18.7989936" id="Path-138" stroke="#7A7262" stroke-width="0.77" stroke-linecap="round" stroke-linejoin="round" fill="none"></path>
                                <path d="M25.5264972,19.7466035 C25.5264972,19.7466035 24.5880786,10.7888587 29.0169194,6.1656051" id="Path-139" stroke="#7A7262" stroke-width="0.77" stroke-linecap="round" stroke-linejoin="round" fill="none"></path>
                                <path d="M33.4282383,13.5407499 C33.4282383,13.5407499 31.2574264,12.2644612 28.8692275,14.0650049 C26.4810285,15.8655485 27.0429149,19.7610745 27.0429149,19.7610745" id="Path-140" stroke="#7A7262" stroke-width="0.77" stroke-linecap="round" stroke-linejoin="round" fill="none"></path>
                            </g>
                        </g>
                    </g>
                    <polygon id="Rectangle-19" fill="#746C62" points="479.568819 230.600462 632.604427 205.235669 632.371179 298.500252 479.980487 353.965412"></polygon>
                    <polygon id="Rectangle-19" fill="#393632" points="513.493301 230.642181 628.500826 210.630573 628.500826 250.523425 513.493301 280.534643"></polygon>
                    <g id="Group-51" transform="translate(568.235079, 243.000000)">
                        <polygon id="Path-141" fill="#40515E" points="30.4864984 10.3178685 0 9.25943664 0 3.41459664 19.928182 0.624432143 50.3991603 0 50.3991603 5.29138368"></polygon>
                        <polygon id="Rectangle-20" fill="#6D655B" points="0.771010962 4.62420382 30.1597194 5.6738514 30.1597194 9.63745468 0.771010962 8.5878071"></polygon>
                        <polygon id="Rectangle-20-Copy-3" fill="#988F7A" points="30.0694275 5.30362527 49.3694745 0.770700637 49.3694745 4.77930632 30.0694275 9.31223096"></polygon>
                    </g>
                    <g id="Group-51-Copy" transform="translate(570.548112, 237.605096)">
                        <polygon id="Path-141" fill="#40515E" points="30.4864984 10.3178685 0 9.25943664 0 3.41459664 19.928182 0.624432143 50.3991603 0 50.3991603 5.29138368"></polygon>
                        <polygon id="Rectangle-20" fill="#6D655B" points="0.771010962 4.62420382 30.1597194 5.6738514 30.1597194 9.63745468 0.771010962 8.5878071"></polygon>
                        <polygon id="Rectangle-20-Copy-3" fill="#BBB4A5" points="30.0694275 5.30362527 49.3694745 0.770700637 49.3694745 4.77930632 30.0694275 9.31223096"></polygon>
                    </g>
                    <g id="Group-51-Copy-2" transform="translate(562.838002, 232.210191)">
                        <polygon id="Path-141" fill="#454C51" points="30.4864984 10.3178685 0 9.25943664 0 3.41459664 19.928182 0.624432143 50.3991603 0 50.3991603 5.29138368"></polygon>
                        <polygon id="Rectangle-20" fill="#6D655B" points="0.771010962 4.62420382 30.1597194 5.6738514 30.1597194 9.63745468 0.771010962 8.5878071"></polygon>
                        <polygon id="Rectangle-20-Copy-3" fill="#BBB4A5" points="30.0694275 5.30362527 49.3694745 0.770700637 49.3694745 4.77930632 30.0694275 9.31223096"></polygon>
                    </g>
                    <g id="Group-51-Copy-3" transform="translate(537.394641, 256.101911)">
                        <polygon id="Path-141" fill="#5A5151" points="21.2481655 8.15324798 0 7.42557607 0 3.40724857 12.7436237 0.428486234 35.1266875 1.05971338 35.1266875 4.69753966"></polygon>
                        <polygon id="Rectangle-20" fill="#6D655B" points="0.537371277 4.2388535 21.0204105 4.96048622 21.0204105 7.68546347 0.537371277 6.96383076"></polygon>
                        <polygon id="Rectangle-20-Copy-3" fill="#988F7A" points="20.9574798 4.70595575 34.4090277 1.58957006 34.4090277 4.34548647 20.9574798 7.46187216"></polygon>
                    </g>
                    <g id="Group-52" transform="translate(512.722290, 255.331210)">
                        <mask id="mask-12" fill="white">
                            <use xlink:href="#path-11"></use>
                        </mask>
                        <use id="Rectangle-19-Copy-3" fill="#393632" xlink:href="#path-11"></use>
                        <g id="Group-53-Copy" mask="url(#mask-12)">
                            <g transform="translate(-3.084044, 30.057325)">
                                <polygon id="Path-142" fill="#4B5861" points="27.8338238 36.8997176 10.0231425 34.0258993 0.491252912 0.507468205 20.2798333 2.31210191"></polygon>
                                <polygon id="Rectangle-21" fill="#8996A0" transform="translate(23.932527, 19.656732) rotate(-25.000000) translate(-23.932527, -19.656732) " points="20.0774723 5.39877069 27.7875819 2.31596814 27.7875819 33.9146943 20.0774723 36.9974968"></polygon>
                                <polygon id="Rectangle-21" fill="#E0E3E4" transform="translate(24.703538, 20.427433) rotate(-25.000000) translate(-24.703538, -20.427433) " points="23.5895287 16.3072577 25.8175474 15.4164089 25.8175474 24.5476086 23.5895287 25.4384573"></polygon>
                            </g>
                        </g>
                        <g id="Group-53" mask="url(#mask-12)">
                            <g transform="translate(-4.626066, 35.452229)">
                                <polygon id="Path-142" fill="#615A4B" points="18.5816922 36.129017 0.771010962 33.2551986 0.563155364 0.0167156599 11.0277018 1.54140127"></polygon>
                                <polygon id="Rectangle-21" fill="#988F7A" transform="translate(14.680396, 18.886032) rotate(-25.000000) translate(-14.680396, -18.886032) " points="10.8253407 4.62807005 18.5354504 1.54526751 18.5354504 33.1439936 10.8253407 36.2267962"></polygon>
                                <polygon id="Rectangle-21" fill="#D4CDBC" transform="translate(14.680396, 18.886032) rotate(-25.000000) translate(-14.680396, -18.886032) " points="13.242236 13.5669834 16.118555 12.4169189 16.118555 24.2050803 13.242236 25.3551448"></polygon>
                            </g>
                        </g>
                    </g>
                    <g id="Group-51-Copy-4" transform="translate(579.800244, 286.929936)">
                        <polygon id="Path-141" fill="#454C51" points="21.2481655 8.15324798 0 7.42557607 0 3.40724857 12.7436237 0.428486234 35.1266875 1.05971338 35.1266875 4.69753966"></polygon>
                        <polygon id="Rectangle-20" fill="#6D655B" points="0.537371277 4.2388535 21.0204105 4.96048622 21.0204105 7.68546347 0.537371277 6.96383076"></polygon>
                        <polygon id="Rectangle-20-Copy-3" fill="#BBB4A5" points="20.9574798 4.70595575 34.4090277 1.58957006 34.4090277 4.34548647 20.9574798 7.46187216"></polygon>
                    </g>
                    <g id="Group-51-Copy-5" transform="translate(574.403167, 283.076433)">
                        <polygon id="Path-141" fill="#89856E" points="21.2481655 8.15324798 0 7.42557607 0 3.40724857 12.7436237 0.428486234 35.1266875 1.05971338 35.1266875 4.69753966"></polygon>
                        <polygon id="Rectangle-20" fill="#6D655B" points="0.537371277 4.2388535 21.0204105 4.96048622 21.0204105 7.68546347 0.537371277 6.96383076"></polygon>
                        <polygon id="Rectangle-20-Copy-3" fill="#988F7A" points="20.9574798 4.70595575 34.4090277 1.58957006 34.4090277 4.34548647 20.9574798 7.46187216"></polygon>
                    </g>
                    <g id="Group-51-Copy-6" transform="translate(583.655298, 278.452229)">
                        <polygon id="Path-141" fill="#505145" points="21.2481655 8.15324798 0 7.42557607 0 3.40724857 12.7436237 0.428486234 35.1266875 1.05971338 35.1266875 4.69753966"></polygon>
                        <polygon id="Rectangle-20" fill="#6D655B" points="0.537371277 4.2388535 21.0204105 4.96048622 21.0204105 7.68546347 0.537371277 6.96383076"></polygon>
                        <polygon id="Rectangle-20-Copy-3" fill="#BBB4A5" points="20.9574798 4.70595575 34.4090277 1.58957006 34.4090277 4.34548647 20.9574798 7.46187216"></polygon>
                    </g>
                    <polygon id="Rectangle-24" fill="#33373D" points="414.803898 202.081545 438.703861 199.070064 438.790519 211.363085 414.803898 215.843515"></polygon>
                    <polygon id="Rectangle-24-Copy-2" fill="#62676D" points="398.612667 202.281673 414.86938 199.070064 414.86938 215.845717 398.65512 214.118192"></polygon>
                    <rect id="Rectangle-22" fill="#746C62" x="563.609013" y="267.66242" width="4.62606577" height="50.0955414"></rect>
                    <path d="M483.838063,190.609075 L483.92598,190.604193 L483.910055,195.224931 L393.015144,205.765686 L94.0633374,188.081059 L94.1357464,183.461138 L393.015144,201.141482 L483.838063,190.609075 Z M94.1358883,183.452085 L94.1414677,183.096098 L102.756383,182.88535 L94.1358883,183.452085 Z" id="Combined-Shape-Copy-7" fill="#4A4F56"></path>
                    <polygon id="Combined-Shape" fill="#746C62" points="214.777993 176.719745 442.500327 189.479462 483.92598 187.17899 483.910055 191.799727 393.015144 202.340483 94.0633374 184.655856 94.1414677 179.670895"></polygon>
                    <polygon id="Rectangle-23" fill="#D3CFC6" points="214.732623 172.095541 483.925845 187.560662 392.984138 198.491214 94.0633374 180.373316"></polygon>
                    <path d="M506.332212,199.5519 C506.942459,198.952305 508.007539,198.070306 508.696798,197.59185 L532.49183,181.074308 L532.891486,181.36197 C533.582572,181.859396 533.651369,182.752585 533.05514,183.347003 L511.701374,204.635889 C511.100671,205.234766 510.039906,206.11163 509.34235,206.587419 L483.159749,224.446063 C482.457599,224.924986 481.225185,225.113203 480.530145,224.903577 L480.530145,224.903577 L506.332212,199.5519 Z" id="Rectangle-25-Copy" fill="#4A4F56" transform="translate(506.995066, 203.031398) scale(-1, 1) rotate(42.000000) translate(-506.995066, -203.031398) "></path>
                    <path d="M504.888503,198.500272 C505.476836,197.882044 506.543381,197.016007 507.267242,196.568064 L532.257751,181.103309 C532.983159,180.654408 533.083002,180.776791 532.473562,181.383824 L510.227974,203.541564 C509.621755,204.145389 508.556519,205.026262 507.858962,205.502052 L481.676362,223.360695 C480.974211,223.839618 480.881352,223.727312 481.470278,223.10846 L504.888503,198.500272 Z" id="Rectangle-25" fill="#62676D" transform="translate(506.977948, 202.245399) scale(-1, 1) rotate(42.000000) translate(-506.977948, -202.245399) "></path>
                    <path d="M516.515482,178.395147 C516.773451,177.585571 517.666691,176.845517 518.510485,176.742204 L550.489,172.826787 C551.33284,172.723468 551.812812,173.298187 551.560621,174.111826 L543.873458,198.91282 C543.621458,199.725847 542.74375,200.514259 541.911171,200.674148 L508.804272,207.032027 C507.972532,207.191755 507.50955,206.658197 507.765367,205.855373 L516.515482,178.395147 Z" id="Rectangle-25" fill="#D8D8D8" transform="translate(529.661378, 189.937545) rotate(4.000000) translate(-529.661378, -189.937545) "></path>
                    <ellipse id="Oval-19" fill="#FFFFFF" transform="translate(531.510849, 189.813963) rotate(31.000000) translate(-531.510849, -189.813963) " cx="531.510849" cy="189.813963" rx="1.92917887" ry="3.32794997"></ellipse>
                    <rect id="Rectangle-49" fill="#D3CFC6" x="396.299635" y="125.853503" width="5.39707674" height="60.1146497"></rect>
                    <ellipse id="Oval-20" fill="#D3CFC6" cx="398.998173" cy="187.509554" rx="15.0347138" ry="2.31210191"></ellipse>
                    <polygon id="Path-143" fill="url(#linearGradient-13)" opacity="0.293534873" points="360.440177 129.177029 344.6419 187.166532 455.285637 187.031627 437.100045 128.165605"></polygon>
                    <g id="Group-55" transform="translate(360.062119, 110.439490)">
                        <mask id="mask-15" fill="white">
                            <use xlink:href="#path-14"></use>
                        </mask>
                        <use id="Rectangle-47" fill="#4A4F56" xlink:href="#path-14"></use>
                        <rect id="Rectangle-48" fill="#62676D" mask="url(#mask-15)" x="7.71010962" y="-5.39490446" width="43.1766139" height="32.3694268"></rect>
                        <rect id="Rectangle-48" fill="#7F848A" mask="url(#mask-15)" x="15.4202192" y="-5.39490446" width="8.48112058" height="32.3694268"></rect>
                        <rect id="Rectangle-48" fill="#A2A7AD" mask="url(#mask-15)" x="13.8781973" y="-5.39490446" width="4.62606577" height="32.3694268"></rect>
                        <rect id="Rectangle-48-Copy" fill="#A2A7AD" mask="url(#mask-15)" x="69.3909866" y="-5.39490446" width="2.31303289" height="32.3694268"></rect>
                    </g>
                    <g id="Group-58" transform="translate(167.309379, 138.955414)">
                        <path d="M12.3571667,21.2400639 C12.3571667,21.2400639 12.081076,18.6577968 11.4108469,17.1810331 C10.7406178,15.7042694 10.3068365,15.5244512 10.0818411,12.9103064 C9.85684568,10.2961617 9.87957427,11.1536885 9.137107,8.56296766 C8.39463973,5.97224682 8.21175387,6.8605946 8.39869212,5.3669234 C8.58563036,3.87325219 6.93909866,1.88316212 6.93909866,0.550259272 C6.93909866,-0.782643581 8.85109015,0.560579544 9.46646562,1.88210363 C10.0818411,3.20362773 11.6298303,4.34235459 12.4359299,6.45266112 C13.2420294,8.56296766 12.6924522,8.00546516 13.335214,9.79881093 C13.9779758,11.5921567 14.9439716,12.9517864 14.9439716,14.3029482 C14.9439716,15.65411 15.3627728,16.9735171 15.1533722,17.9460043 C14.9439716,18.9184915 14.3287416,21.7012603 14.0475995,21.7012603 C13.7664574,21.7012603 12.3571667,21.2400639 12.3571667,21.2400639 Z" id="Path-144" fill="#57706F"></path>
                        <path d="M8.46275894,25.162608 C8.46275894,25.162608 8.22305483,22.8338034 7.64115667,21.5019915 C7.0592585,20.1701796 6.68264618,20.0080115 6.48730339,17.6504582 C6.29196061,15.292905 6.31169375,16.0662612 5.66707785,13.7298327 C5.02246196,11.3934042 4.86367902,12.1945562 5.02598027,10.8474964 C5.18828152,9.50043653 3.7587498,7.70568385 3.7587498,6.50361214 C3.7587498,5.30154044 5.41875578,6.51291943 5.95302959,7.70472926 C6.48730339,8.89653908 7.83127976,9.92349415 8.5311417,11.8266634 C9.23100364,13.7298327 8.75385639,13.2270519 9.31190722,14.8443717 C9.86995806,16.4616916 10.7086432,17.6878668 10.7086432,18.9064052 C10.7086432,20.1249436 11.0722496,21.3148443 10.8904464,22.1918769 C10.7086432,23.0689096 10.1744957,25.5785356 9.93040591,25.5785356 C9.68631612,25.5785356 8.46275894,25.162608 8.46275894,25.162608 Z" id="Path-144-Copy" fill="#7A9488" transform="translate(7.350051, 15.792950) rotate(-19.000000) translate(-7.350051, -15.792950) "></path>
                        <path d="M16.7658385,23.5941175 C16.7658385,23.5941175 19.1742623,20.111233 20.2813503,18.8934287 C21.3884384,17.6756243 21.4572455,17.9788364 21.4572455,16.7245385 C21.4572455,15.4702405 22.4307773,15.6813176 23.172835,15.0679101 C23.9148928,14.4545025 23.2642249,14.1481366 22.9736474,13.1353271 C22.6830699,12.1225175 24.9362367,11.6780617 25.8152029,9.49475433 C26.694169,7.31144692 28.4635692,3.26651627 24.554975,6.76742222 C20.6463807,10.2683282 20.1174484,9.38842734 20.1174484,11.1047521 C20.1174484,12.8210768 18.9450818,12.7465127 18.4438488,12.4347404 C17.9426158,12.1229681 17.3591671,13.658627 17.901508,14.8390367 C18.4438488,16.0194464 17.5093077,16.1552836 16.7658385,16.7245385 C16.0223693,17.2937933 15.4202192,21.5590371 15.4202192,22.8182909 C15.4202192,24.0775448 16.7658385,23.5941175 16.7658385,23.5941175 Z" id="Path-145" fill="#57706F"></path>
                        <path d="M15.1662449,21.5796178 C15.1662449,21.5796178 17.0147263,18.2760496 18.4307576,17.56041 C19.846789,16.8447705 20.4044756,17.4971391 21.7260144,15.9851895 C23.0475532,14.47324 23.409247,14.7462089 25.1315878,14.7462089 C26.8539285,14.7462089 26.7795552,13.9930587 28.606109,13.9930587 C30.4326628,13.9930587 29.7569736,15.541615 27.5879409,16.5510125 C25.4189083,17.56041 26.0570718,18.2507412 24.7337246,18.9277403 C23.4103773,19.6047394 22.4457851,19.5369491 22.0858998,19.5369491 C21.7260144,19.5369491 19.3505902,21.1229372 19.3505902,21.5796178 C19.3505902,22.0362985 15.1662449,21.5796178 15.1662449,21.5796178 Z" id="Path-146" fill="#7A9488"></path>
                        <g id="Group-56" transform="translate(6.168088, 20.808917)">
                            <mask id="mask-17" fill="white">
                                <use xlink:href="#path-16"></use>
                            </mask>
                            <use id="Combined-Shape" fill="#AFA58F" xlink:href="#path-16"></use>
                            <path d="M11.0511571,17.9738399 C11.0511571,19.1139636 9.15259361,20.0382166 6.81059683,20.0382166 C4.46860005,20.0382166 2.57003654,19.1139636 2.57003654,17.9738399 C2.57003654,17.7470076 2.44007556,-2.0640511 2.44007556,-2.0640511 C2.35701804,-2.12596629 2.31303289,-2.19059219 2.31303289,-2.25705187 C2.31303289,-2.71310137 4.38419308,-3.08280255 6.93909866,-3.08280255 C9.49400424,-3.08280255 11.5651644,-2.71310137 11.5651644,-2.25705187 C11.5651644,-2.17770506 11.5024672,-2.10097216 11.3854334,-2.02834554 C11.3854334,-2.02834554 11.0511571,17.7972935 11.0511571,17.9738399 Z" id="Combined-Shape" fill="#C7C2B7" mask="url(#mask-17)"></path>
                            <path d="M6.03958587,17.9738399 C6.03958587,19.1139636 5.56494499,20.0382166 4.9794458,20.0382166 C4.3939466,20.0382166 3.91930572,19.1139636 3.91930572,17.9738399 C3.91930572,17.7470076 3.88681548,-2.0640511 3.88681548,-2.0640511 C3.8660511,-2.12596629 3.85505481,-2.19059219 3.85505481,-2.25705187 C3.85505481,-2.71310137 4.37284486,-3.08280255 5.01157125,-3.08280255 C5.65029765,-3.08280255 6.1680877,-2.71310137 6.1680877,-2.25705187 C6.1680877,-2.17770506 6.15241338,-2.10097216 6.12315493,-2.02834554 C6.12315493,-2.02834554 6.03958587,17.7972935 6.03958587,17.9738399 Z" id="Combined-Shape" fill="#E8E9EA" mask="url(#mask-17)"></path>
                        </g>
                    </g>
                    <g id="Group-57" transform="translate(186.584653, 128.936306)">
                        <path d="M15.9863899,32.0248419 C15.9863899,32.0248419 13.8316635,15.4157317 10.2704365,9.04864878 C6.70920952,2.6815659 5.39707674,1.54140127 5.39707674,1.54140127 C5.39707674,1.54140127 9.66320041,5.2587614 10.8017681,7.49719601 C11.9403358,9.73563063 13.4390873,12.7619546 14.4326145,15.4432109 C15.4261417,18.1244673 17.7332521,32.9038118 17.7332521,32.9038118 C17.7332521,32.9038118 16.2123283,33.2991962 16.2123283,33.2991962 L15.9863899,32.0248419 Z" id="Path-147" fill="#57706F"></path>
                        <path d="M20.5990782,33.1466987 C20.5990782,33.1466987 21.0242461,27.0150545 21.0242461,20.2987367 C21.0242461,13.5824189 21.4283482,12.1472226 22.0544112,7.93821812 C22.6804741,3.72921362 25.8372493,1.62309626 25.8372493,1.62309626 C25.8372493,1.62309626 23.8886702,6.84478142 23.5503342,11.1067619 C23.2119982,15.3687423 22.9800183,20.6224069 22.9800183,23.0622082 L22.9800183,33.3808912 L20.5990782,33.1466987 Z" id="Path-149" fill="#7A9488" transform="translate(23.218164, 17.501994) rotate(2.000000) translate(-23.218164, -17.501994) "></path>
                        <path d="M23.6673117,32.9687598 C23.6673117,32.9687598 26.3018255,23.8747801 27.2893609,20.2975042 C28.2768964,16.7202283 31.0384767,13.4832887 31.9579175,13.1357875 C32.8773583,12.7882863 35.4366096,12.6046024 35.4366096,12.6046024 C35.4366096,12.6046024 31.3300783,11.6269092 29.3097196,13.3693005 C27.2893609,15.1116918 26.5338035,15.6865181 25.9932818,17.1159303 C25.4527601,18.5453425 24.1768813,23.2556612 23.751697,25.3266642 C23.3265126,27.3976672 21.5883069,33.3644618 21.5883069,33.3644618 L23.6673117,32.9687598 Z" id="Path-148" fill="#5A6A76"></path>
                        <path d="M10.8720096,36.737967 C10.8720096,36.737967 11.9981506,20.6499087 8.6785796,14.2828258 C5.35900857,7.91574289 4.13591384,6.77557827 4.13591384,6.77557827 C4.13591384,6.77557827 8.11254903,10.4929384 9.17385636,12.731373 C10.2351637,14.9698076 11.6322137,17.9961316 12.5583226,20.6773879 C13.4844316,23.3586443 12.5003342,37.6169369 12.5003342,37.6169369 C12.5003342,37.6169369 11.0826164,38.0123213 11.0826164,38.0123213 L10.8720096,36.737967 Z" id="Path-147-Copy" fill="#7A9488" transform="translate(8.545663, 22.393950) rotate(-16.000000) translate(-8.545663, -22.393950) "></path>
                        <path d="M18.1130898,37.7730935 C18.1130898,37.7730935 19.2392308,17.6306664 15.9196598,9.65900822 C12.6000887,1.68735 11.376994,0.259851277 11.376994,0.259851277 C11.376994,0.259851277 15.3536292,4.91402728 16.4149365,7.71657219 C17.4762438,10.5191171 18.8732938,14.3081082 19.7994028,17.6650708 C20.7255117,21.0220334 19.7414143,38.8735735 19.7414143,38.8735735 C19.7414143,38.8735735 18.3236966,39.3685992 18.3236966,39.3685992 L18.1130898,37.7730935 Z" id="Path-147-Copy-2" fill="#5A6A76" transform="translate(15.786743, 19.814225) rotate(-1.000000) translate(-15.786743, -19.814225) "></path>
                        <path d="M16.51693,33.2167536 C16.51693,33.2167536 14.0653268,27.0978798 10.2862479,25.8981838 C6.50716893,24.6984878 5.39707674,24.8074621 5.39707674,24.8074621 C5.39707674,24.8074621 11.4459531,24.0619344 13.6951873,25.9513658 C15.9444214,27.8407973 17.0094702,28.8894302 17.486343,29.8082074 C17.9632159,30.7269847 18.8330765,34.3818649 18.8330765,34.3818649 L16.51693,33.2167536 Z" id="Path-150" fill="#9BB8AA"></path>
                        <path d="M21.5883069,32.7131488 C21.5883069,32.7131488 24.2055256,27.2065295 27.2039007,25.7533823 C30.2022757,24.300235 32.2277427,23.8917197 32.2277427,23.8917197 C32.2277427,23.8917197 27.1868028,27.7088365 26.5003876,29.2845383 C25.8139724,30.8602402 25.4073777,33.1362539 25.4073777,33.1362539 L21.5883069,32.7131488 Z" id="Path-151" fill="#9AB7AA"></path>
                        <path d="M9.25213155,34.0188138 C9.25213155,32.7460156 10.2850907,31.7142089 11.5538712,31.7142089 L20.2319972,31.7142089 L20.2319972,50.1939685 L11.5538712,49.3049647 C10.2826555,49.1747389 9.25213155,48.0355117 9.25213155,46.7645653 L9.25213155,34.0188138 Z" id="Rectangle-51" fill="#C7C2B7"></path>
                        <path d="M19.6850047,31.7142089 L28.388106,31.7142089 C29.6629802,31.7142089 30.7146055,32.7528116 30.7368426,34.0263045 L30.953162,46.4146792 C30.9754592,47.6916143 29.9715101,48.8611098 28.7083875,49.0271348 L19.7013247,50.2110242 L19.6850047,31.7142089 Z" id="Rectangle-51-Copy" fill="#AFA58F"></path>
                    </g>
                    <path d="M293.487987,117.059006 C293.487987,117.059006 294.305121,115.201382 297.95512,115.201382 C301.605119,115.201382 337.089757,114.50831 340.38135,116.232092 C341.602967,116.871844 342.591443,119.462163 342.591443,121.43023 C342.591443,128.128329 340.112877,128.68732 333.284018,128.725971 C322.425039,128.787434 295.788906,129.686324 293.941861,128.664509 C292.094815,127.642694 293.487987,117.059006 293.487987,117.059006 Z" id="Path-156" fill="#62676D"></path>
                    <g id="Group-69" transform="translate(332.305725, 0.000000)">
                        <g id="Group-68" transform="translate(158.057247, 24.662420)">
                            <g id="Group-63" transform="translate(18.593209, 6.808597) rotate(-1.000000) translate(-18.593209, -6.808597) translate(0.093209, 1.308597)">
                                <path d="M-1.28137084e-13,1.27128933 L0.0150173002,9.29098208 L26.1584356,8.8999883 L35.2999759,10.5084526 C35.7200212,10.58236 36.0650758,10.2913171 36.0704541,9.87560993 L36.150265,3.70685046 C36.1557432,3.28343369 35.834172,2.85743087 35.4075856,2.74914516 L26.3617296,0.452923201 L-1.28137084e-13,1.27128933 Z" id="Combined-Shape" fill="#684141"></path>
                                <polygon id="Rectangle-58" fill="#BBB4A5" points="-1.3512802e-13 2.01658956 26.3088703 1.54140127 26.3088703 7.70700637 -1.3512802e-13 8.18219466"></polygon>
                                <polygon id="Rectangle-58-Copy" fill="#6D655B" points="26.2143727 1.54140127 35.1306738 3.64465469 35.0959204 9.4931286 26.2363642 7.70700637"></polygon>
                            </g>
                            <g id="Group-63-Copy" transform="translate(20.135230, 14.515604) rotate(-1.000000) translate(-20.135230, -14.515604) translate(1.635230, 9.015604)">
                                <path d="M1.45972123e-12,1.27128933 L0.0150173002,9.29098208 L26.1584356,8.8999883 L35.2999759,10.5084526 C35.7200212,10.58236 36.0650758,10.2913171 36.0704541,9.87560993 L36.150265,3.70685046 C36.1557432,3.28343369 35.834172,2.85743087 35.4075856,2.74914516 L26.3617296,0.452923201 L1.45972123e-12,1.27128933 Z" id="Combined-Shape" fill="#415A68"></path>
                                <polygon id="Rectangle-58" fill="#BBB4A5" points="-1.39444012e-13 2.01658956 26.3088703 1.54140127 26.3088703 7.70700637 -1.39444012e-13 8.18219466"></polygon>
                                <polygon id="Rectangle-58-Copy" fill="#6D655B" points="26.2143727 1.54140127 35.1306738 3.64465469 35.0959204 9.4931286 26.2363642 7.70700637"></polygon>
                            </g>
                        </g>
                        <g id="Group-67" transform="translate(41.634592, 20.267516)">
                            <g id="Group-64-Copy-4" transform="translate(9.999668, 18.720629) rotate(20.000000) translate(-9.999668, -18.720629) translate(4.499668, 5.720629)">
                                <path d="M-3.55271368e-15,1.53584175 C-3.55271368e-15,1.11326598 0.337611321,0.739961315 0.773269508,0.70029488 L4.62380723,0.34970557 C5.05087218,0.310821544 5.39707674,0.615861089 5.39707674,1.04583815 L5.39707674,24.6665827 C5.39707674,25.0899301 5.04295946,25.433121 4.62380723,25.433121 L0.773269508,25.433121 C0.346204551,25.433121 -3.55271368e-15,25.0844853 -3.55271368e-15,24.6679799 L-3.55271368e-15,1.53584175 Z" id="Rectangle-59" fill="#A08D84"></path>
                                <rect id="Rectangle-60" fill="#FFFFFF" x="1.54202192" y="8.47770701" width="1.54202192" height="10.0191083" rx="0.77"></rect>
                                <path d="M4.62606577,0.938713429 C4.62606577,0.508814116 4.9475147,0.253708508 5.36518981,0.375063563 L9.28401847,1.51367504 C9.69222541,1.63227912 10.0231425,2.07918674 10.0231425,2.49766358 L10.0231425,24.4809129 C10.0231425,24.9057507 9.66902523,25.2501498 9.249873,25.2501498 L5.39933528,25.2501498 C4.97227032,25.2501498 4.62606577,24.8954719 4.62606577,24.4717482 L4.62606577,0.938713429 Z" id="Rectangle-59-Copy" fill="#746253"></path>
                            </g>
                            <g id="Group-64" transform="translate(17.610091, 16.132305) rotate(6.000000) translate(-17.610091, -16.132305) translate(12.110091, 3.132305)">
                                <path d="M2.13162821e-14,1.53584175 C2.13162821e-14,1.11326598 0.337611321,0.739961315 0.773269508,0.70029488 L4.62380723,0.34970557 C5.05087218,0.310821544 5.39707674,0.615861089 5.39707674,1.04583815 L5.39707674,24.6665827 C5.39707674,25.0899301 5.04295946,25.433121 4.62380723,25.433121 L0.773269508,25.433121 C0.346204551,25.433121 2.13162821e-14,25.0844853 2.13162821e-14,24.6679799 L2.13162821e-14,1.53584175 Z" id="Rectangle-59" fill="#8491A0"></path>
                                <rect id="Rectangle-60" fill="#FFFFFF" x="1.54202192" y="8.47770701" width="1.54202192" height="10.0191083" rx="0.77"></rect>
                                <path d="M4.62606577,0.938713429 C4.62606577,0.508814116 4.9475147,0.253708508 5.36518981,0.375063563 L9.28401847,1.51367504 C9.69222541,1.63227912 10.0231425,2.07918674 10.0231425,2.49766358 L10.0231425,24.4809129 C10.0231425,24.9057507 9.66902523,25.2501498 9.249873,25.2501498 L5.39933528,25.2501498 C4.97227032,25.2501498 4.62606577,24.8954719 4.62606577,24.4717482 L4.62606577,0.938713429 Z" id="Rectangle-59-Copy" fill="#536274"></path>
                            </g>
                            <g id="Group-64-Copy" transform="translate(18.504263, 2.312102)">
                                <path d="M0,1.53584175 C0,1.11326598 0.337611321,0.739961315 0.773269508,0.70029488 L4.62380723,0.34970557 C5.05087218,0.310821544 5.39707674,0.615861089 5.39707674,1.04583815 L5.39707674,24.6665827 C5.39707674,25.0899301 5.04295946,25.433121 4.62380723,25.433121 L0.773269508,25.433121 C0.346204551,25.433121 0,25.0844853 0,24.6679799 L0,1.53584175 Z" id="Rectangle-59" fill="#9784A0"></path>
                                <rect id="Rectangle-60" fill="#FFFFFF" x="1.54202192" y="8.47770701" width="1.54202192" height="10.0191083" rx="0.77"></rect>
                                <path d="M4.62606577,0.938713429 C4.62606577,0.508814116 4.9475147,0.253708508 5.36518981,0.375063563 L9.28401847,1.51367504 C9.69222541,1.63227912 10.0231425,2.07918674 10.0231425,2.49766358 L10.0231425,24.4809129 C10.0231425,24.9057507 9.66902523,25.2501498 9.249873,25.2501498 L5.39933528,25.2501498 C4.97227032,25.2501498 4.62606577,24.8954719 4.62606577,24.4717482 L4.62606577,0.938713429 Z" id="Rectangle-59-Copy" fill="#665374"></path>
                            </g>
                            <g id="Group-64-Copy-2" transform="translate(24.672351, 0.770701)">
                                <path d="M0,1.53584175 C0,1.11326598 0.337611321,0.739961315 0.773269508,0.70029488 L4.62380723,0.34970557 C5.05087218,0.310821544 5.39707674,0.615861089 5.39707674,1.04583815 L5.39707674,24.6665827 C5.39707674,25.0899301 5.04295946,25.433121 4.62380723,25.433121 L0.773269508,25.433121 C0.346204551,25.433121 0,25.0844853 0,24.6679799 L0,1.53584175 Z" id="Rectangle-59" fill="#94A084"></path>
                                <rect id="Rectangle-60" fill="#FFFFFF" x="1.54202192" y="8.47770701" width="1.54202192" height="10.0191083" rx="0.77"></rect>
                                <path d="M4.62606577,0.938713429 C4.62606577,0.508814116 4.9475147,0.253708508 5.36518981,0.375063563 L9.28401847,1.51367504 C9.69222541,1.63227912 10.0231425,2.07918674 10.0231425,2.49766358 L10.0231425,24.4809129 C10.0231425,24.9057507 9.66902523,25.2501498 9.249873,25.2501498 L5.39933528,25.2501498 C4.97227032,25.2501498 4.62606577,24.8954719 4.62606577,24.4717482 L4.62606577,0.938713429 Z" id="Rectangle-59-Copy" fill="#637453"></path>
                            </g>
                            <g id="Group-64-Copy-3" transform="translate(30.840438, 0.000000)">
                                <path d="M0,1.53584175 C0,1.11326598 0.337611321,0.739961315 0.773269508,0.70029488 L4.62380723,0.34970557 C5.05087218,0.310821544 5.39707674,0.615861089 5.39707674,1.04583815 L5.39707674,24.6665827 C5.39707674,25.0899301 5.04295946,25.433121 4.62380723,25.433121 L0.773269508,25.433121 C0.346204551,25.433121 0,25.0844853 0,24.6679799 L0,1.53584175 Z" id="Rectangle-59" fill="#84A09D"></path>
                                <rect id="Rectangle-60" fill="#FFFFFF" x="1.54202192" y="8.47770701" width="1.54202192" height="10.0191083" rx="0.77"></rect>
                                <path d="M4.62606577,0.938713429 C4.62606577,0.508814116 4.9609498,0.232872623 5.38508968,0.32477283 L14.6611953,2.33466641 C15.0803927,2.42549569 15.4202192,2.84988738 15.4202192,3.26836422 L15.4202192,25.2516136 C15.4202192,25.6764513 15.0853352,25.9969398 14.6439303,25.9654235 L5.40235467,25.3055767 C4.97362215,25.2749652 4.62606577,24.8954719 4.62606577,24.4717482 L4.62606577,0.938713429 Z" id="Rectangle-59-Copy" fill="#53746F"></path>
                            </g>
                        </g>
                        <g id="Group-66" transform="translate(103.315469, 0.000000)">
                            <g id="Group-62">
                                <path d="M21.3575347,29.4291673 C21.3575347,29.4291673 20.2726042,20.4546282 14.4144018,17.2062429" id="Path-161" stroke="#6A6250" stroke-width="0.77" stroke-linecap="round" stroke-linejoin="round"></path>
                                <path d="M19.5726515,29.6994403 C19.5726515,29.6994403 19.3122464,23.5300201 14.0226796,21.024858" id="Path-162" stroke="#6A6250" stroke-width="0.77" stroke-linecap="round" stroke-linejoin="round"></path>
                                <path d="M34.9752573,28.3874055 C34.9752573,28.3874055 34.2187653,17.1752499 39.0096108,10.9924602" id="Path-163" stroke="#6A6250" stroke-width="0.77" stroke-linecap="round" stroke-linejoin="round"></path>
                                <path d="M36.8238294,28.3922671 C36.8238294,28.3922671 36.8522003,22.530143 41.2026877,18.1968019" id="Path-164" stroke="#6A6250" stroke-width="0.77" stroke-linecap="round" stroke-linejoin="round"></path>
                                <path d="M22.9832488,29.188158 C22.9832488,29.188158 22.5840285,24.9224747 24.1067396,19.3708878" id="Path-165" stroke="#6A6250" stroke-width="0.77" stroke-linecap="round" stroke-linejoin="round"></path>
                                <path d="M7.96667946,15.0105217 C3.5154861,13.9075068 2.74171942,11.5604578 2.74171942,11.5604578 C2.74171942,11.5604578 7.19998758,9.31734734 10.9413528,10.3215916 C14.682718,11.3258359 15.3998447,13.8583655 15.3998447,13.8583655 C15.3998447,13.8583655 12.4178728,16.1135366 7.96667946,15.0105217 Z" id="Path-158" fill="#57706F" transform="translate(9.070782, 12.688602) rotate(13.000000) translate(-9.070782, -12.688602) "></path>
                                <path d="M20.5265289,10.1137113 C16.0753356,9.01069633 15.3015689,6.66364732 15.3015689,6.66364732 C15.3015689,6.66364732 19.7598371,4.4205369 23.5012023,5.42478117 C27.2425675,6.42902544 27.9596942,8.96155504 27.9596942,8.96155504 C27.9596942,8.96155504 24.9777223,11.2167262 20.5265289,10.1137113 Z" id="Path-158-Copy-5" fill="#57706F" transform="translate(21.630632, 7.791791) rotate(120.000000) translate(-21.630632, -7.791791) "></path>
                                <path d="M20.516351,17.6492964 C17.5827928,16.9223546 17.072842,15.3755324 17.072842,15.3755324 C17.072842,15.3755324 20.0110628,13.8972109 22.4768089,14.5590579 C24.942555,15.2209049 25.4151772,16.8899681 25.4151772,16.8899681 C25.4151772,16.8899681 23.4499091,18.3762382 20.516351,17.6492964 Z" id="Path-158-Copy-7" fill="#7A9488" transform="translate(21.244010, 16.119035) rotate(184.000000) translate(-21.244010, -16.119035) "></path>
                                <path d="M31.239046,20.4700403 C27.5852624,19.5646252 26.9501123,17.6380386 26.9501123,17.6380386 C26.9501123,17.6380386 30.6097033,15.7967706 33.680821,16.6211094 C36.7519387,17.4454481 37.3405956,19.5242873 37.3405956,19.5242873 C37.3405956,19.5242873 34.8928296,21.3754555 31.239046,20.4700403 Z" id="Path-158-Copy-6" fill="#57706F" transform="translate(32.145354, 18.564081) rotate(314.000000) translate(-32.145354, -18.564081) "></path>
                                <path d="M43.1038489,15.6424952 C39.9225376,14.8541597 39.4160591,12.6341293 39.4160591,12.6341293 C39.4160591,12.6341293 41.7067321,11.5291075 44.3807223,12.2468506 C47.0547125,12.9645938 47.7234831,14.501685 47.7234831,14.501685 C47.7234831,14.501685 46.2851602,16.4308307 43.1038489,15.6424952 Z" id="Path-158-Copy-2" fill="#7A9488" transform="translate(43.569771, 13.918129) rotate(-183.000000) translate(-43.569771, -13.918129) "></path>
                                <path d="M41.2918433,23.950148 C38.9861201,23.378785 38.619039,21.7697707 38.619039,21.7697707 C38.619039,21.7697707 40.2792531,20.9688825 42.2172845,21.4890822 C44.1553159,22.0092819 44.6400217,23.1233215 44.6400217,23.1233215 C44.6400217,23.1233215 43.5975665,24.521511 41.2918433,23.950148 Z" id="Path-158-Copy-9" fill="#7A9488" transform="translate(41.629530, 22.700377) rotate(-163.000000) translate(-41.629530, -22.700377) "></path>
                                <path d="M33.0982922,9.10812984 C29.9169809,8.31979431 28.8992907,7.92394198 28.8992907,7.92394198 C28.8992907,7.92394198 31.7011754,4.99474209 34.3751656,5.71248526 C37.0491558,6.43022844 37.7179264,7.96731963 37.7179264,7.96731963 C37.7179264,7.96731963 36.2796035,9.89646537 33.0982922,9.10812984 Z" id="Path-158-Copy-4" fill="#57706F" transform="translate(33.308609, 7.448330) rotate(22.000000) translate(-33.308609, -7.448330) "></path>
                                <path d="M44.0553141,10.3111518 C40.8740028,9.52281626 40.3675243,7.30278586 40.3675243,7.30278586 C40.3675243,7.30278586 42.6581972,6.19776404 45.3321875,6.91550721 C48.0061777,7.63325039 48.6749483,9.17034158 48.6749483,9.17034158 C48.6749483,9.17034158 47.2366254,11.0994873 44.0553141,10.3111518 Z" id="Path-158-Copy-3" fill="#57706F" transform="translate(44.521236, 8.586785) rotate(-210.000000) translate(-44.521236, -8.586785) "></path>
                                <path d="M8.90975802,21.4843072 C5.55894532,20.6539689 4.9764617,18.8871345 4.9764617,18.8871345 C4.9764617,18.8871345 8.33260023,17.1985439 11.1490616,17.9545287 C13.9655229,18.7105135 14.5053686,20.6169758 14.5053686,20.6169758 C14.5053686,20.6169758 12.2605707,22.3146455 8.90975802,21.4843072 Z" id="Path-158-Copy" fill="#7A9488" transform="translate(9.740915, 19.736390) rotate(-30.000000) translate(-9.740915, -19.736390) "></path>
                                <path d="M3.96987388,18.606064 C1.46378451,17.9850499 1.02814213,16.6636257 1.02814213,16.6636257 C1.02814213,16.6636257 3.53821472,15.4007205 5.64466008,15.9661253 C7.75110544,16.53153 8.15485865,17.9573826 8.15485865,17.9573826 C8.15485865,17.9573826 6.47596324,19.2270782 3.96987388,18.606064 Z" id="Path-158-Copy-8" fill="#57706F" transform="translate(4.591500, 17.298788) rotate(-17.000000) translate(-4.591500, -17.298788) "></path>
                                <path d="M36.1108527,11.6254686 C36.1108527,11.6254686 33.4790622,10.6780306 30.6861772,11.1517496 C27.8932922,11.6254686 27.7563946,14.0060484 27.7563946,14.0060484 C27.7563946,14.0060484 29.5426028,14.0060484 32.4111303,14.0060484 C35.2796577,14.0060484 36.1108527,11.6254686 36.1108527,11.6254686 Z" id="Path-159" fill="#7A9488"></path>
                                <path d="M19.2946036,8.85734741 C19.2946036,8.85734741 16.6628131,7.90990936 13.8699281,8.38362839 C11.0770431,8.85734741 10.9401456,11.2379271 10.9401456,11.2379271 C10.9401456,11.2379271 12.7263538,11.2379271 15.5948812,11.2379271 C18.4634086,11.2379271 19.2946036,8.85734741 19.2946036,8.85734741 Z" id="Path-159-Copy" fill="#7A9488" transform="translate(15.117375, 9.744457) rotate(86.000000) translate(-15.117375, -9.744457) "></path>
                                <path d="M38.3549374,8.15865779 C38.3549374,8.15865779 37.3193964,6.49482214 38.0267218,4.25153378 C38.7340472,2.00824541 41.263985,1 41.263985,1 C41.263985,1 42.1752334,4.21404181 41.5518084,5.95113099 C40.9283833,7.68822017 38.3549374,8.15865779 38.3549374,8.15865779 Z" id="Path-160" fill="#7A9488"></path>
                            </g>
                            <polygon id="Rectangle-54" fill="#62676D" points="11.5651644 29.5159236 37.7795371 27.9745223 37.7795371 44.9299363 11.5651644 44.9299363"></polygon>
                            <polygon id="Rectangle-54" fill="#83888E" points="11.5651644 29.5159236 37.7795371 27.9745223 37.8910142 31.3356821 11.5238459 32.6492437"></polygon>
                            <polygon id="Rectangle-54-Copy" fill="#4A4F56" points="37.7268194 27.9745223 48.0121682 30.2043957 48.0121682 44.9908474 37.7795371 44.9299363"></polygon>
                            <polygon id="Rectangle-54-Copy" fill="#697078" points="37.7268194 27.9745223 48.0121682 30.2043957 47.9800349 32.8220207 37.7646742 31.3875788"></polygon>
                        </g>
                        <polygon id="Rectangle-53" fill="#CABFA8" points="8.01308493 49.4473332 195.585527 41.8471338 203.45548 43.2817281 203.45548 49.4473332 19.6286944 53.8675743 0 51.8831151"></polygon>
                        <polygon id="Rectangle-53-Copy-2" fill="#D3CFC6" points="0 47.2887921 195.782562 41.8471338 195.782562 46.4713376 0 51.9129959"></polygon>
                    </g>
                    <g id="Group-70" transform="translate(397.841657, 56.490446)">
                        <g id="Group-63-Copy-4" transform="translate(88.588285, 9.051452) rotate(-1.000000) translate(-88.588285, -9.051452) translate(79.088285, 5.551452)">
                            <path d="M7.10542736e-14,0.833943778 L0.00753229438,6.09472329 L13.1204034,5.83823814 L17.332718,6.80756397 C17.7493206,6.90343138 18.0904791,6.63387289 18.0946348,6.21379102 L18.129434,2.69606771 C18.1336264,2.27226855 17.8145609,1.82165751 17.4118509,1.68796301 L13.2223705,0.297109774 L7.10542736e-14,0.833943778 Z" id="Combined-Shape" fill="#53746F"></path>
                            <polygon id="Rectangle-58" fill="#BBB4A5" points="4.19753121e-12 1.32284782 13.1958576 1.01113253 13.1958576 5.05566266 4.19753121e-12 5.36737795"></polygon>
                            <polygon id="Rectangle-58-Copy" fill="#6D655B" points="13.1484601 1.01113253 17.620649 2.39083034 17.6032176 6.2273279 13.1594904 5.05566266"></polygon>
                        </g>
                        <g id="Group-63-Copy-2" transform="translate(86.470567, 14.226122) rotate(-1.000000) translate(-86.470567, -14.226122) translate(74.470567, 10.226122)">
                            <path d="M-7.10542736e-13,0.888020705 L0.00975997514,6.48993447 L17.0007709,6.21681759 L22.6727868,7.28945101 C23.0944625,7.36919398 23.4405475,7.08083767 23.4455772,6.66300701 L23.4917826,2.82460982 C23.4969072,2.39889137 23.1765083,1.96523174 22.7580887,1.85107594 L17.1328948,0.316375801 L-7.10542736e-13,0.888020705 Z" id="Combined-Shape" fill="#684141"></path>
                            <polygon id="Rectangle-58" fill="#B3A68B" points="6.53699317e-13 1.40862763 17.0985407 1.07669923 17.0985407 5.38349615 6.53699317e-13 5.71542456"></polygon>
                            <polygon id="Rectangle-58-Copy" fill="#6D655B" points="17.0371253 1.07669923 22.831967 2.54586328 22.8093802 6.6311378 17.0514179 5.38349615"></polygon>
                        </g>
                        <g id="Group-63-Copy-3" transform="translate(89.554610, 19.614919) rotate(-1.000000) translate(-89.554610, -19.614919) translate(77.554610, 15.614919)">
                            <path d="M1.05160325e-12,0.888020705 L0.00975997514,6.48993447 L17.0007709,6.21681759 L22.6727868,7.28945101 C23.0944625,7.36919398 23.4405475,7.08083767 23.4455772,6.66300701 L23.4917826,2.82460982 C23.4969072,2.39889137 23.1765083,1.96523174 22.7580887,1.85107594 L17.1328948,0.316375801 L1.05160325e-12,0.888020705 Z" id="Combined-Shape" fill="#415A68"></path>
                            <polygon id="Rectangle-58" fill="#BBB4A5" points="-2.84217094e-14 1.40862763 17.0985407 1.07669923 17.0985407 5.38349615 -2.84217094e-14 5.71542456"></polygon>
                            <polygon id="Rectangle-58-Copy" fill="#6D655B" points="17.0371253 1.07669923 22.831967 2.54586328 22.8093802 6.6311378 17.0514179 5.38349615"></polygon>
                        </g>
                        <g id="Group-64-Copy-5" transform="translate(95.990865, 0.770701)">
                            <path d="M0,1.53584175 C0,1.11326598 0.337611321,0.739961315 0.773269508,0.70029488 L4.62380723,0.34970557 C5.05087218,0.310821544 5.39707674,0.615861089 5.39707674,1.04583815 L5.39707674,24.6665827 C5.39707674,25.0899301 5.04295946,25.433121 4.62380723,25.433121 L0.773269508,25.433121 C0.346204551,25.433121 0,25.0844853 0,24.6679799 L0,1.53584175 Z" id="Rectangle-59" fill="#9B9B9B"></path>
                            <rect id="Rectangle-60" fill="#FFFFFF" x="1.54202192" y="8.47770701" width="1.54202192" height="10.0191083" rx="0.77"></rect>
                            <path d="M4.62606577,0.938713429 C4.62606577,0.508814116 4.9475147,0.253708508 5.36518981,0.375063563 L9.28401847,1.51367504 C9.69222541,1.63227912 10.0231425,2.07918674 10.0231425,2.49766358 L10.0231425,24.4809129 C10.0231425,24.9057507 9.66902523,25.2501498 9.249873,25.2501498 L5.39933528,25.2501498 C4.97227032,25.2501498 4.62606577,24.8954719 4.62606577,24.4717482 L4.62606577,0.938713429 Z" id="Rectangle-59-Copy" fill="#5B5B5B"></path>
                        </g>
                        <g id="Group-64-Copy-6" transform="translate(102.158952, 0.000000)">
                            <path d="M0,1.53584175 C0,1.11326598 0.337611321,0.739961315 0.773269508,0.70029488 L4.62380723,0.34970557 C5.05087218,0.310821544 5.39707674,0.615861089 5.39707674,1.04583815 L5.39707674,24.6665827 C5.39707674,25.0899301 5.04295946,25.433121 4.62380723,25.433121 L0.773269508,25.433121 C0.346204551,25.433121 0,25.0844853 0,24.6679799 L0,1.53584175 Z" id="Rectangle-59" fill="#C4C7C0"></path>
                            <rect id="Rectangle-60" fill="#FFFFFF" x="1.54202192" y="8.47770701" width="1.54202192" height="10.0191083" rx="0.77"></rect>
                            <path d="M4.62606577,0.938713429 C4.62606577,0.508814116 4.9475147,0.253708508 5.36518981,0.375063563 L9.28401847,1.51367504 C9.69222541,1.63227912 10.0231425,2.07918674 10.0231425,2.49766358 L10.0231425,24.4809129 C10.0231425,24.9057507 9.66902523,25.2501498 9.249873,25.2501498 L5.39933528,25.2501498 C4.97227032,25.2501498 4.62606577,24.8954719 4.62606577,24.4717482 L4.62606577,0.938713429 Z" id="Rectangle-59-Copy" fill="#858881"></path>
                        </g>
                        <g id="Group-64-Copy-7" transform="translate(109.098051, 0.000000)">
                            <path d="M0,1.53584175 C0,1.11326598 0.337611321,0.739961315 0.773269508,0.70029488 L4.62380723,0.34970557 C5.05087218,0.310821544 5.39707674,0.615861089 5.39707674,1.04583815 L5.39707674,24.6665827 C5.39707674,25.0899301 5.04295946,25.433121 4.62380723,25.433121 L0.773269508,25.433121 C0.346204551,25.433121 0,25.0844853 0,24.6679799 L0,1.53584175 Z" id="Rectangle-59" fill="#A7A8A8"></path>
                            <rect id="Rectangle-60" fill="#FFFFFF" x="1.54202192" y="8.47770701" width="1.54202192" height="10.0191083" rx="0.77"></rect>
                            <path d="M4.62606577,0.938713429 C4.62606577,0.508814116 4.9609498,0.232872623 5.38508968,0.32477283 L14.6611953,2.33466641 C15.0803927,2.42549569 15.4202192,2.84988738 15.4202192,3.26836422 L15.4202192,25.2516136 C15.4202192,25.6764513 15.0853352,25.9969398 14.6439303,25.9654235 L5.40235467,25.3055767 C4.97362215,25.2749652 4.62606577,24.8954719 4.62606577,24.4717482 L4.62606577,0.938713429 Z" id="Rectangle-59-Copy" fill="#6A706F"></path>
                        </g>
                        <g id="Group-65" transform="translate(26.985384, 0.000000)">
                            <path d="M4.09410322,24.3631171 C4.09410322,24.3631171 1.54202192,20.8059777 1.54202192,15.3124163 C1.54202192,9.81885503 3.31430558,7.04864103 3.31430558,7.04864103 L5.27837409,7.9063139 L8.85090202,16.1878478 L12.0389693,0.862041276 L13.8601953,2.23697544 L22.5359167,24.5720615 L20.0500595,24.1871983 L12.3470185,15.0699078 L9.39026317,23.7663176 L4.23286926,17.5954604 C4.23286926,17.5954604 3.9982957,22.2552562 5.27837409,23.4136588 C6.55845248,24.5720615 4.09410322,24.3631171 4.09410322,24.3631171 Z" id="Path-166-Copy" fill="#4A4F56"></path>
                            <path d="M2.5520813,22.8217158 C2.5520813,22.8217158 7.01755804e-13,19.2645764 7.01660952e-13,13.7710151 C7.01660952e-13,8.27745376 2.16104357,7.21275365 2.16104357,7.21275365 C2.77193056,6.63837984 3.5643502,6.79584843 3.93003562,7.56252658 L7.3088801,14.6464466 L11.4194426,1.47141703 C11.6729838,0.658775843 12.1318306,0.640008894 12.448727,1.44067094 L20.9938948,23.0306603 L18.5080376,22.645797 L10.8049966,13.5285066 L7.84824125,22.2249163 L2.69084734,16.0540591 C2.69084734,16.0540591 2.45627378,20.7138549 3.73635217,21.8722576 C5.01643056,23.0306603 2.5520813,22.8217158 2.5520813,22.8217158 Z" id="Path-166" fill="#62676D"></path>
                        </g>
                        <polygon id="Rectangle-53-Copy-3" fill="#CABFA8" points="6.024054 24.5556135 128.815501 20.0382166 137.206956 21.1007003 137.206956 27.2663054 13.771273 28.9758545 0.679597164 26.9913953"></polygon>
                        <polygon id="Rectangle-53-Copy-4" fill="#D3CFC6" points="0.679597164 22.3970724 129.946917 20.0382166 129.946917 24.6624204 0.679597164 27.0212762"></polygon>
                    </g>
                </g>
            </g>
        </g>
    </g>
</svg>