<?xml version="1.0" encoding="UTF-8"?>
<svg width="266px" height="257px" viewBox="0 0 266 257" version="1.1" xmlns="http://www.w3.org/2000/svg" xmlns:xlink="http://www.w3.org/1999/xlink">
    <!-- Generator: sketchtool 42 (36781) - http://www.bohemiancoding.com/sketch -->
    <title>371D716E-B8EB-4BDE-A25E-71C9FDC78A0C</title>
    <desc>Created with sketchtool.</desc>
    <defs>
        <path d="M6.06963342,167.093166 C6.06963342,167.093166 0.417601483,107.962118 0.417601483,104.172665 C0.417601483,100.383213 17.2606956,0.631960367 17.2606956,0.631960367 L57.7971232,5.11890609 L50.6273619,109.207085 L64.3999278,167.093166 L6.06963342,167.093166 Z" id="path-1"></path>
        <polygon id="path-3" points="10.3796782 213.312073 16.5443378 171.375859 5.91327636 64 41.7000918 64 60.6252314 171.375859 56.2841798 213.496202"></polygon>
    </defs>
    <g id="Page-1" stroke="none" stroke-width="1" fill="none" fill-rule="evenodd">
        <g id="Desktop-HD-Copy-8" transform="translate(-787.000000, -1342.000000)">
            <g id="Group-2" transform="translate(0.000000, 1059.000000)">
                <g id="Group-28-Copy" transform="translate(787.000000, 283.995017)">
                    <rect id="Rectangle-38" fill="#62676D" x="9" y="11" width="249" height="136"></rect>
                    <rect id="Rectangle-41" fill="#D8D8D8" x="0" y="0" width="266" height="14"></rect>
                    <rect id="Rectangle-40" fill="#4D5258" x="109" y="99" width="55" height="37"></rect>
                    <path d="M27,26 L40,26 L40,39 L27,39 L27,26 Z M27,48 L40,48 L40,61 L27,61 L27,48 Z M27,73 L40,73 L40,86 L27,86 L27,73 Z M49,26 L62,26 L62,39 L49,39 L49,26 Z M49,48 L62,48 L62,61 L49,61 L49,48 Z M49,73 L62,73 L62,86 L49,86 L49,73 Z M71,26 L84,26 L84,39 L71,39 L71,26 Z M71,48 L84,48 L84,61 L71,61 L71,48 Z M71,73 L84,73 L84,86 L71,86 L71,73 Z M94,26 L107,26 L107,39 L94,39 L94,26 Z M94,48 L107,48 L107,61 L94,61 L94,48 Z M94,73 L107,73 L107,86 L94,86 L94,73 Z M116,26 L129,26 L129,39 L116,39 L116,26 Z M116,48 L129,48 L129,61 L116,61 L116,48 Z M116,73 L129,73 L129,86 L116,86 L116,73 Z M138,26 L151,26 L151,39 L138,39 L138,26 Z M138,48 L151,48 L151,61 L138,61 L138,48 Z M138,73 L151,73 L151,86 L138,86 L138,73 Z M160,26 L173,26 L173,39 L160,39 L160,26 Z M160,48 L173,48 L173,61 L160,61 L160,48 Z M160,73 L173,73 L173,86 L160,86 L160,73 Z M183,26 L196,26 L196,39 L183,39 L183,26 Z M183,48 L196,48 L196,61 L183,61 L183,48 Z M183,73 L196,73 L196,86 L183,86 L183,73 Z M205,26 L218,26 L218,39 L205,39 L205,26 Z M205,48 L218,48 L218,61 L205,61 L205,48 Z M205,73 L218,73 L218,86 L205,86 L205,73 Z M226,26 L239,26 L239,39 L226,39 L226,26 Z M226,48 L239,48 L239,61 L226,61 L226,48 Z M226,73 L239,73 L239,86 L226,86 L226,73 Z" id="Combined-Shape" fill="#4D5258"></path>
                    <g id="Group-26" transform="translate(12.000000, 45.000000)">
                        <path d="M22.692993,74.657626 C22.692993,74.657626 14.8030579,61.302064 14.8030579,55.0988611 C14.8030579,48.8956582 14.3739872,15.2579395 19.4755543,9.89514764 C24.5771213,4.53235581 27.1327973,5.66827006 27.1327973,5.66827006 L25.5591068,25.1907631 C25.5591068,25.1907631 29.9009067,3.28296834 33.2282726,1.1931698 C36.5556385,-0.896628735 40.5472955,1.63287854 40.5472955,1.63287854 C40.5472955,1.63287854 37.0790301,14.6492029 37.0790301,20.6538277 L37.0790301,30.7293043 C37.0790301,30.7293043 40.3558094,12.4376571 42.8947728,5.66827006 C45.4337362,-1.10111694 51.6860255,3.05602189 51.6860255,3.05602189 C51.6860255,3.05602189 48.6369907,14.3844321 48.6369907,20.6538277 C48.6369907,26.9232233 47.5412649,32.738726 47.5412649,32.738726 C47.5412649,32.738726 51.2421468,13.2496998 53.4241424,7.44128918 C55.6061379,1.63287854 61.4176993,4.45013015 61.4176993,4.45013015 C61.4176993,4.45013015 64.3979487,6.95902798 63.2324841,9.61619264 C62.0670196,12.2733573 58.6847975,22.2261368 58.6847975,30.7293043 L58.6847975,45.6660207 C58.6847975,45.6660207 65.2961196,49.1954043 65.2961196,38.0020579 C65.2961196,26.8087115 74.2984875,26.0899043 74.2984875,26.0899043 C74.2984875,26.0899043 75.180269,46.5812773 72.0538453,52.1816537 C68.9274215,57.7820301 60.067054,63.8209332 56.7455982,72.891699 C53.4241424,81.9624648 50.0885024,86.0120405 50.0885024,86.0120405 L22.692993,85 L22.692993,74.657626 Z" id="Path-86" fill="#F8F5EC"></path>
                        <g id="Group-25" transform="translate(0.000000, 69.000000)">
                            <mask id="mask-2" fill="white">
                                <use xlink:href="#path-1"></use>
                            </mask>
                            <use id="Path-82" fill="#62676D" xlink:href="#path-1"></use>
                            <path d="M12,24 L52.9788911,27.9634051" id="Path-83" stroke="#4A4F56" stroke-width="2" mask="url(#mask-2)"></path>
                            <polygon id="Path-84" fill="#E4DFCE" mask="url(#mask-2)" points="15.4423474 5.2027711 71.1432884 12.8805935 64.4938632 1.98152701 35.3134504 -3.22162537 20.4831513 -2.90321668 13.6650896 0.546687146"></polygon>
                        </g>
                        <circle id="Oval-7" fill="#4A4F56" cx="22.5" cy="85.5" r="2.5"></circle>
                        <polyline id="Path-85" stroke="#4A4F56" stroke-width="2" points="50.2256159 178.766945 36.3085978 173.256401 16.0358972 172.815511"></polyline>
                    </g>
                    <g id="Group-27" transform="translate(201.000000, 66.000000)">
                        <path d="M9.40814782,61.8320012 C9.40814782,61.8320012 4.54984043,54.39441 1.73674755,48.4778087 C-1.07634533,42.5612074 1.09931006,27.8989145 1.09931006,27.8989145 C1.09931006,27.8989145 9.41183955,27.4472937 9.41183955,34.5415546 C9.41183955,41.6358156 12.9989637,47.803454 12.9989637,47.803454 C12.9989637,47.803454 19.9923175,40.4421585 19.9923175,31.0676433 C19.9923175,21.6931282 11.315538,14.171858 9.53735813,9.13142563 C7.75917824,4.09099324 12.2237019,-3.4954974 17.9237221,4.19436149 C23.6237423,11.8842204 26.9500179,18.6207231 27.9945803,21.2712082 C29.0391428,23.9216933 29.75092,28.7429021 29.75092,28.7429021 C29.75092,28.7429021 31.4512219,23.2403928 29.7229011,19.3546204 C27.9945803,15.4688481 23.6723038,8.86033151 23.6723038,8.86033151 C23.6723038,8.86033151 25.270853,5.57327778 27.9075744,5.57327778 C30.5442959,5.57327778 35.1128434,7.67665791 35.1128434,7.67665791 C35.1128434,7.67665791 38.6697629,6.55025147 41.2804317,7.84083855 C43.8911005,9.13142563 45.1539151,13.3104134 45.1539151,13.3104134 C45.1539151,13.3104134 49.5661469,27.6953902 45.0226689,39.9116097 C40.4791909,52.1278291 39.393829,66.789062 39.393829,66.789062 L12.1781842,66.7246678 L9.40814782,61.8320012 Z" id="Path-91" fill="#F8F5EC"></path>
                        <mask id="mask-4" fill="white">
                            <use xlink:href="#path-3"></use>
                        </mask>
                        <use id="Path-87" fill="#62676D" xlink:href="#path-3"></use>
                        <circle id="Oval-8" fill="#4A4F56" mask="url(#mask-4)" cx="34" cy="80" r="3"></circle>
                        <polygon id="Path-88" fill="#E4DFCE" mask="url(#mask-4)" points="2.38593223 71.5331783 59.1248962 71.5331783 53.6826616 57.9376476 -8.9653828 59.218765"></polygon>
                        <path d="M9.23381668,92.4584943 L43.0956324,87.5804814" id="Path-89" stroke="#4A4F56" stroke-width="2" mask="url(#mask-4)"></path>
                        <path d="M16.9317426,171.829931 C16.9317426,171.829931 34.6440767,167.802015 36.5645529,167.802015" id="Path-90" stroke="#4A4F56" stroke-width="2" mask="url(#mask-4)"></path>
                    </g>
                </g>
            </g>
        </g>
    </g>
</svg>