<?xml version="1.0" encoding="UTF-8"?>
<svg width="469px" height="369px" viewBox="0 0 469 369" version="1.1" xmlns="http://www.w3.org/2000/svg" xmlns:xlink="http://www.w3.org/1999/xlink">
    <!-- Generator: sketchtool 42 (36781) - http://www.bohemiancoding.com/sketch -->
    <title>899927D2-2ECD-4825-A991-1044D2E36AC2</title>
    <desc>Created with sketchtool.</desc>
    <defs>
        <path d="M171.472078,20.745471 L101.589228,29.7822037 L46.9991177,5.95502047 L46.1746137,10.1396129 L46.7079047,20.745471 C46.7079047,20.745471 94.477634,48.6050301 99.4495061,48.6050301 C104.421378,48.6050301 110.568946,49.6755669 110.568946,49.6755669 L171.472078,43.1179545 L171.472078,20.745471 Z" id="path-1"></path>
        <path d="M171.472078,20.745471 L101.589228,29.7822037 L46.9991177,5.95502047 L46.1746137,10.1396129 L46.7079047,20.745471 C46.7079047,20.745471 94.477634,48.6050301 99.4495061,48.6050301 C104.421378,48.6050301 110.568946,49.6755669 110.568946,49.6755669 L171.472078,43.1179545 L171.472078,20.745471 Z" id="path-3"></path>
        <polygon id="path-5" points="0 135.198888 59.3164328 103.951982 67.2389378 48.3131406 83.6531532 48.3131406 81.3251525 108.577058 74.7043334 122.841234 3.5089478 164.810787"></polygon>
        <polygon id="path-7" points="0 134.322813 59.6069483 103.088819 75.0702146 47.376394 91.5648223 47.376394 81.7234607 107.711984 75.0702146 121.970266 3.52613366 163.922476"></polygon>
        <path d="M0.524871628,20.0658904 C0.524871628,20.0658904 0.341422034,49.9288747 1.26518255,53.000715 C2.18894308,56.0725553 16.2989587,74.9717027 18.9413167,76.8315791 C21.5836747,78.6914555 40.125151,76.8315791 40.125151,76.8315791 C40.125151,76.8315791 56.6802689,57.1489631 57.270785,53.000715 C57.861301,48.8524669 59.2035212,20.0658904 59.2035212,20.0658904 C59.2035212,20.0658904 52.1202061,0.604391891 31.5384764,0.604391891 C10.9567467,0.604391891 0.524871628,20.0658904 0.524871628,20.0658904 Z" id="path-9"></path>
        <path d="M46.3892467,2.04128194 C46.3892467,2.04128194 10.0723642,13.3114137 7.18081758,15.2083928 C4.28927098,17.105372 0.149114197,34.318202 0.149114197,34.318202 L13.0434541,133.028795 L56.0133869,152.241513 L113.391267,134.078127 L126.127216,34.318202 L122.887892,15.2083928 L80.4136793,2.04128194 L46.3892467,2.04128194 Z" id="path-11"></path>
        <path d="M4.00036447,3.3262865 L18.3414478,40.3880285 L22.3433005,42.8828957 L23.3176782,37.9919758 L8.18422648,1.5658083 C8.18422648,1.5658083 6.72841009,1.07399324 5.30539494,1.88159763 C3.88237979,2.68920203 4.00036447,3.3262865 4.00036447,3.3262865 Z" id="path-13"></path>
    </defs>
    <g id="Page-1" stroke="none" stroke-width="1" fill="none" fill-rule="evenodd">
        <g id="Desktop-HD-Copy-8" transform="translate(-218.000000, -1685.000000)">
            <g id="Group-24-Copy" transform="translate(218.000000, 1685.000000)">
                <g id="Group-18" transform="translate(145.000000, 336.000000)">
                    <path d="M27.8957358,27.2522171 C27.8957358,27.2522171 18.6658219,30.7249463 11.9847527,30.7249463 C5.30368354,30.7249463 0.82097561,30.3069404 0.82097561,30.3069404 L0.82097561,0.531111565 C0.82097561,0.531111565 8.70499157,-1.46660815 14.2082542,2.28683267 C18.4228621,5.16136043 18.0714359,7.08924445 18.0714359,7.08924445 L23.0593375,6.95399231" id="Path-74" fill="#62676D"></path>
                    <path d="M26.2862218,27.5679627 C26.2862218,27.5679627 18.6472747,30.7249463 11.9662056,30.7249463 C5.28513639,30.7249463 0.802428463,30.3069404 0.802428463,30.3069404 L0.802428463,0.531111565 C0.802428463,0.531111565 25.3862408,-5.69814605 18.0339119,24.5102843" id="Path-74" stroke="#4A4F56" stroke-width="1.76"></path>
                </g>
                <g id="Group-18-Copy" transform="translate(327.000000, 352.500000) scale(-1, 1) translate(-327.000000, -352.500000) translate(313.000000, 337.000000)">
                    <path d="M27.8957358,27.2522171 C27.8957358,27.2522171 18.6658219,30.7249463 11.9847527,30.7249463 C5.30368354,30.7249463 0.82097561,30.3069404 0.82097561,30.3069404 L0.82097561,0.531111565 C0.82097561,0.531111565 8.70499157,-1.46660815 14.2082542,2.28683267 C18.4228621,5.16136043 18.0714359,7.08924445 18.0714359,7.08924445 L23.0593375,6.95399231" id="Path-74" fill="#62676D"></path>
                    <path d="M26.2862218,27.5679627 C26.2862218,27.5679627 18.6472747,30.7249463 11.9662056,30.7249463 C5.28513639,30.7249463 0.802428463,30.3069404 0.802428463,30.3069404 L0.802428463,0.531111565 C0.802428463,0.531111565 25.3862408,-5.69814605 18.0339119,24.5102843" id="Path-74" stroke="#4A4F56" stroke-width="1.76"></path>
                </g>
                <polygon id="Path-72" fill="#4A4F56" points="206.48439 309.287443 205 332.487256 256.448541 349 297 320.708265 270.954462 308"></polygon>
                <g id="Group-17" transform="translate(35.000000, 218.000000)">
                    <path d="M19.7806032,41.0314997 C19.7806032,41.0314997 19.449974,33.2547063 15.7092921,29.4897738 C11.9686103,25.7248413 13.5759039,14.521214 13.5759039,12.5687888 C13.5759039,10.6163636 18.2897291,12.5687888 17.7995881,16.6034323 C17.3094471,20.6380758 19.7806032,22.3712196 19.7806032,22.3712196 C19.7806032,22.3712196 25.2132926,21.0036652 26.2625422,14.9583298 C27.3117918,8.91299448 23.4319171,7.07563968 21.7788324,4.15847846 C20.1257477,1.24131724 22.8349698,-1.95296372 22.8349698,-1.95296372 C22.8349698,-1.95296372 27.5032121,1.34021302 29.3089776,4.41391516 C31.114743,7.4876173 32.4159638,10.1808411 32.4159638,10.1808411 C32.4159638,10.1808411 33.0397434,7.47062538 30.5578399,3.17772954 C28.0759364,-1.11516629 24.7565468,-2.00243147 24.7565468,-4.72785271 C24.7565468,-7.45327395 25.8993752,-7.82463502 25.8993752,-7.82463502 C25.8993752,-7.82463502 35.0255591,-3.65840797 37.8089081,7.20930378 C40.5922571,18.0770155 36.9220513,29.6328181 34.1025264,32.1557741 C31.2830015,34.6787301 31.3065975,40.3771966 31.3065975,40.3771966 L19.7806032,41.0314997 Z" id="Path-50" fill="#D3CFC6" transform="translate(26.016552, 16.603432) scale(-1, 1) rotate(97.000000) translate(-26.016552, -16.603432) "></path>
                    <mask id="mask-2" fill="white">
                        <use xlink:href="#path-1"></use>
                    </mask>
                    <use id="Path-52" fill="#62676D" xlink:href="#path-1"></use>
                    <polygon id="Path-61" fill="#E4DFCE" mask="url(#mask-2)" points="49.1327146 23.06833 50.9442066 3.7232799 47.4177475 1.54870679 42.7266936 7.39887522 46.0241307 23.1575203"></polygon>
                </g>
                <g id="Group-17-Copy" transform="translate(384.000000, 242.000000) scale(-1, 1) translate(-384.000000, -242.000000) translate(298.000000, 217.000000)">
                    <path d="M19.7806032,41.0314997 C19.7806032,41.0314997 19.449974,33.2547063 15.7092921,29.4897738 C11.9686103,25.7248413 13.5759039,14.521214 13.5759039,12.5687888 C13.5759039,10.6163636 18.2897291,12.5687888 17.7995881,16.6034323 C17.3094471,20.6380758 19.7806032,22.3712196 19.7806032,22.3712196 C19.7806032,22.3712196 25.2132926,21.0036652 26.2625422,14.9583298 C27.3117918,8.91299448 23.4319171,7.07563968 21.7788324,4.15847846 C20.1257477,1.24131724 22.8349698,-1.95296372 22.8349698,-1.95296372 C22.8349698,-1.95296372 27.5032121,1.34021302 29.3089776,4.41391516 C31.114743,7.4876173 32.4159638,10.1808411 32.4159638,10.1808411 C32.4159638,10.1808411 33.0397434,7.47062538 30.5578399,3.17772954 C28.0759364,-1.11516629 24.7565468,-2.00243147 24.7565468,-4.72785271 C24.7565468,-7.45327395 25.8993752,-7.82463502 25.8993752,-7.82463502 C25.8993752,-7.82463502 35.0255591,-3.65840797 37.8089081,7.20930378 C40.5922571,18.0770155 36.9220513,29.6328181 34.1025264,32.1557741 C31.2830015,34.6787301 31.3065975,40.3771966 31.3065975,40.3771966 L19.7806032,41.0314997 Z" id="Path-50" fill="#D3CFC6" transform="translate(26.016552, 16.603432) scale(-1, 1) rotate(97.000000) translate(-26.016552, -16.603432) "></path>
                    <mask id="mask-4" fill="white">
                        <use xlink:href="#path-3"></use>
                    </mask>
                    <use id="Path-52" fill="#62676D" xlink:href="#path-3"></use>
                    <polygon id="Path-61" fill="#E4DFCE" mask="url(#mask-4)" points="49.1327146 23.06833 50.9442066 3.7232799 47.4177475 1.54870679 42.7266936 7.39887522 46.0241307 23.1575203"></polygon>
                </g>
                <g id="Group-16" transform="translate(292.000000, 72.000000)">
                    <path d="M69.3698529,49.26172 C69.3698529,49.26172 69.0401648,41.4203666 65.3101305,37.6241791 C61.5800961,33.8279915 63.1828147,22.5313559 63.1828147,20.5627224 C63.1828147,18.5940889 67.8832224,20.5627224 67.3944766,24.63086 C66.9057307,28.6989976 69.3698529,30.4465293 69.3698529,30.4465293 C69.3698529,30.4465293 74.7870786,29.067622 75.8333416,22.9721005 C76.8796046,16.876579 73.0107736,15.0239712 71.3623943,12.0825928 C69.714015,9.1412144 72.4155255,5.92041572 72.4155255,5.92041572 C72.4155255,5.92041572 77.0704801,9.24093118 78.8711055,12.34015 C80.671731,15.4393689 81.969248,18.1549509 81.969248,18.1549509 C81.969248,18.1549509 82.591252,15.4222359 80.1164131,11.0937021 C77.6415741,6.76516823 74.3316329,5.87053731 74.3316329,3.12249064 C74.3316329,0.374443977 75.4712084,0 75.4712084,0 C75.4712084,0 84.5714153,4.20081351 87.3468418,15.1587449 C90.1222682,26.1166764 86.4625093,37.7684109 83.65101,40.3123115 C80.8395106,42.8562121 80.8630395,48.6019852 80.8630395,48.6019852 L69.3698529,49.26172 Z" id="Path-50" fill="#D3CFC6"></path>
                    <mask id="mask-6" fill="white">
                        <use xlink:href="#path-5"></use>
                    </mask>
                    <use id="Path-47" fill="#62676D" xlink:href="#path-5"></use>
                    <polygon id="Path-48" fill="#E4DFCE" mask="url(#mask-6)" points="65.6173787 51.8906503 88.4055771 50.6992523 85.9975233 42.9606502 66.1625162 43.8426797"></polygon>
                </g>
                <g id="Group-16-Copy" transform="translate(161.500000, 155.000000) scale(-1, 1) translate(-161.500000, -155.000000) translate(107.000000, 73.000000)">
                    <path d="M83.3470562,51.7208903 C83.3470562,51.7208903 83.0157534,43.8827771 79.2674504,40.0881582 C75.5191474,36.2935394 77.1297156,25.0015717 77.1297156,23.0337517 C77.1297156,21.0659318 81.8531446,23.0337517 81.362005,27.1002083 C80.8708654,31.1666649 83.3470562,32.9134744 83.3470562,32.9134744 C83.3470562,32.9134744 88.790814,31.5351369 89.8422013,25.4421342 C90.8935886,19.3491316 87.0058091,17.4972893 85.3493565,14.5571263 C83.6929039,11.6169634 86.4076457,8.39749559 86.4076457,8.39749559 C86.4076457,8.39749559 91.0853989,11.7166389 92.8948434,14.8145771 C94.7042878,17.9125153 96.0081597,20.6269752 96.0081597,20.6269752 C96.0081597,20.6269752 96.6332101,17.8953894 94.1462501,13.5686442 C91.65929,9.24189903 88.3331376,8.34763779 88.3331376,5.60072668 C88.3331376,2.85381557 89.4782944,2.47952633 89.4782944,2.47952633 C89.4782944,2.47952633 98.6230716,6.67860396 101.412091,17.6320073 C104.201111,28.5854107 100.523428,40.2323305 97.6981584,42.7751799 C94.8728891,45.3180293 94.8965332,51.0614281 94.8965332,51.0614281 L83.3470562,51.7208903 Z" id="Path-50" fill="#D3CFC6" transform="translate(89.595710, 27.100208) rotate(15.000000) translate(-89.595710, -27.100208) "></path>
                    <mask id="mask-8" fill="white">
                        <use xlink:href="#path-7"></use>
                    </mask>
                    <use id="Path-47" fill="#62676D" xlink:href="#path-7"></use>
                    <polygon id="Path-48" fill="#E4DFCE" mask="url(#mask-8)" points="70.8555865 51.0490003 93.7553952 49.8580945 91.3355474 42.1226903 71.4033939 43.0043553"></polygon>
                    <polygon id="Path-49" fill="#4A4F56" points="72.3734327 57.1079475 89.9354933 56.5943277 89.3087581 59.801004 72.1135352 58.12318"></polygon>
                </g>
                <g id="Group-15" transform="translate(190.000000, 94.000000)">
                    <rect id="Rectangle-28" fill="#C2BCB0" x="45.9987805" y="73.1626443" width="34.4990854" height="24.5924855"></rect>
                    <path d="M89.3669118,36.9120316 C89.3669118,36.9120316 97.2404722,33.4085178 97.6916276,39.213201 C98.1427831,45.0178841 97.9591512,50.0264663 94.2571408,50.3900367 C90.5551305,50.753607 89.3669118,47.755417 89.3669118,47.755417 L89.3669118,36.9120316 Z" id="Path-38" fill="#D3CFC6"></path>
                    <path d="M27.0741695,36.7196333 C27.0741695,36.7196333 33.3371711,33.159202 33.7883265,38.9638852 C34.2394819,44.7685683 34.05585,49.7771505 30.3538397,50.1407209 C26.6518294,50.5042912 25.4636106,47.5061012 25.4636106,47.5061012 L27.0741695,36.7196333 Z" id="Path-38-Copy" fill="#D3CFC6" transform="translate(29.713717, 42.905162) scale(-1, 1) translate(-29.713717, -42.905162) "></path>
                    <g id="Group-10" transform="translate(32.034865, 6.762934)">
                        <mask id="mask-10" fill="white">
                            <use xlink:href="#path-9"></use>
                        </mask>
                        <use id="Path-22" fill="#D3CFC6" xlink:href="#path-9"></use>
                        <g id="Group-8" mask="url(#mask-10)">
                            <g transform="translate(11.601700, 27.256671)">
                                <ellipse id="Oval-16" stroke="none" fill="#62676D" fill-rule="evenodd" cx="6.16323529" cy="10.246869" rx="2.05441176" ry="3.07406069"></ellipse>
                                <ellipse id="Oval-16-Copy" stroke="none" fill="#62676D" fill-rule="evenodd" cx="28.7617647" cy="10.246869" rx="2.05441176" ry="3.07406069"></ellipse>
                                <path d="M8.59939478,2.81565552 C8.59939478,2.81565552 3.96454443,2.30615562 0.104100668,4.70790674" id="Path-125" stroke="#62676D" stroke-width="2.2" fill="none" transform="translate(4.351748, 3.739175) rotate(-1.000000) translate(-4.351748, -3.739175) "></path>
                                <path d="M33.1482353,2.09458534 C33.1482353,2.09458534 28.5133849,1.58508545 24.6529412,3.98683656" id="Path-125-Copy" stroke="#62676D" stroke-width="2.2" fill="none" transform="translate(28.900588, 3.018105) rotate(24.000000) translate(-28.900588, -3.018105) "></path>
                            </g>
                        </g>
                    </g>
                    <path d="M32.4614994,47.5800019 C32.4614994,47.5800019 35.0792784,43.6841556 35.8444498,37.8105437 C36.6096211,31.9369318 37.6696217,27.1722716 37.6696217,27.1722716 C37.6696217,27.1722716 43.3198359,18.5231376 61.8488733,18.5231376 C80.3779108,18.5231376 85.175808,27.1722716 85.175808,27.1722716 C85.175808,27.1722716 85.9430261,34.7671291 87.2532509,39.5839742 C88.5634757,44.4008192 90.3865733,46.6218885 90.3865733,46.6218885 C90.3865733,46.6218885 91.9939367,35.398804 91.9939367,28.8537769 C91.9939367,22.3087497 89.5082497,20.6976074 89.5082497,20.6976074 C89.5082497,20.6976074 92.8877905,-2.87228954 67.8619229,0.54328126 C42.8360554,3.95885206 35.8444498,20.6976074 35.8444498,20.6976074 C35.8444498,20.6976074 30.5037248,21.7742455 31.2208439,30.2555257 C31.937963,38.736806 32.4614994,47.5800019 32.4614994,47.5800019 Z" id="Path-124" fill="#62676D"></path>
                    <path d="M54.4419118,69.0107151 C54.4419118,69.0107151 62.6152027,74.6918583 70.048096,66.6046482" id="Path-33" stroke="#62676D" stroke-width="2.2"></path>
                    <path d="M56.6770688,55.5775271 C56.6770688,55.5775271 58.738968,56.5497036 60.9404635,56.45752 C63.141959,56.3653363 64.2099311,55.2880041 65.1995529,55.1477598 C67.5547965,54.8139862 66.1913365,58.8433773 61.5041317,59.5239836 C56.8169269,60.2045899 56.7164956,55.3100673 56.7164956,55.3100673" id="Path-35" fill="#B6A694"></path>
                    <g id="Group-14" transform="translate(0.000000, 90.377384)">
                        <mask id="mask-12" fill="white">
                            <use xlink:href="#path-11"></use>
                        </mask>
                        <use id="Path-39" fill="#C1BCAF" xlink:href="#path-11"></use>
                        <path d="M43.4176371,0.173367263 L54.3292351,12.2127782 L64.3248185,15.6136787 L84.7171963,-1.12612294 L149.982392,-1.67006488 C149.982392,-1.67006488 155.946067,53.5405077 155.946067,57.4469802 C155.946067,61.3534526 127.742064,143.892754 127.742064,143.892754 C127.742064,143.892754 43.7250636,160.716809 41.9506096,160.716809 C40.1761555,160.716809 -22.1487109,143.669699 -22.1487109,143.669699 L-37.3501188,68.7217951 L-3.59169711,-9.36243959 L43.4176371,0.173367263 Z" id="Path-41" fill="#62676D" mask="url(#mask-12)"></path>
                        <path d="M47.0781373,4.12590807 C47.0781373,4.12590807 44.2186197,12.1762863 44.2186197,20.393089 C44.2186197,28.6098917 52.2050132,48.733922 52.2050132,48.733922 L59.9267413,73.1683911 L63.7778746,82.4375584 L77.403046,40.5913238 C77.403046,40.5913238 81.1582638,6.66365183 81.1582638,4.12590807 C81.1582638,2.79667453 70.1870234,14.4942533 61.7646541,14.8559222 C54.1072192,15.1847437 47.0781373,4.12590807 47.0781373,4.12590807 Z" id="Path-43" fill="#E5DFCE" mask="url(#mask-12)"></path>
                        <path d="M58.4827898,18.0859693 L61.128184,22.1379214 C61.128184,22.1379214 56.9855913,43.5571185 56.9855913,51.925636 C56.9855913,60.2941535 63.728913,82.5663859 63.728913,82.5663859 L71.6549513,51.5558317 L65.5485737,22.1379214 L67.9887824,17.4104102 C67.9887824,17.4104102 65.468467,15.1163144 63.1467787,15.1163144 C60.8250903,15.1163144 58.4827898,18.0859693 58.4827898,18.0859693 Z" id="Path-46" fill="#4A4F56" mask="url(#mask-12)"></path>
                        <path d="M45.7877916,0.0993606846 L63.1112199,13.8918787 L80.5252301,0.0993606846 C80.5252301,0.0993606846 82.2240097,3.24102813 79.4796747,7.89077531 C76.7353396,12.5405225 71.1010575,22.3991093 71.1010575,22.3991093 L63.1112199,16.0534391 L56.0098208,22.3991093 C56.0098208,22.3991093 49.7944315,12.8843051 46.8323551,8.53716607 C43.8702787,4.19002699 45.7877916,0.0993606846 45.7877916,0.0993606846 Z" id="Path-40" fill="#F8F5EC"></path>
                        <path d="M41.4454637,3.21136426 C41.4454637,3.21136426 37.8475537,9.16888873 37.8475537,17.2140643 C37.8475537,25.2592399 37.8475537,36.0751105 37.8475537,36.0751105 L47.1211435,37.6197429 L41.4454637,44.6739085 L63.7366852,82.6518711 C63.7366852,82.6518711 50.7383793,16.1348859 48.601316,9.64265355 C46.4642527,3.15042115 45.1368416,0.819749516 45.1368416,0.819749516 L41.4454637,3.21136426 Z" id="Path-42" fill="#868C93"></path>
                        <path d="M67.1719443,2.46152673 C67.1719443,2.46152673 63.5926705,9.55031133 63.5926705,22.8570524 C63.5926705,36.1637934 63.5926705,35.1374825 63.5926705,35.1374825 L74.7266586,37.2495133 L67.1719443,45.7303544 L89.3246475,82.987461 C89.3246475,82.987461 77.4752296,22.0624441 74.7266586,12.2619854 C71.9780876,2.46152673 71.6525766,0.612184992 71.6525766,0.612184992 L67.1719443,2.46152673 Z" id="Path-42-Copy" fill="#868C93" transform="translate(76.458659, 41.799823) scale(-1, 1) translate(-76.458659, -41.799823) "></path>
                    </g>
                    <path d="M89.5333406,153.860107 L102.769626,153.860107 C102.769626,153.860107 103.230009,152.117319 103.415026,149.804782 C103.600044,147.492244 103.415026,145.793226 103.415026,145.793226 C103.415026,145.793226 98.7244957,145.198617 94.8530205,148.392578 C90.9815453,151.586539 89.5333406,153.860107 89.5333406,153.860107 Z" id="Path-44" fill="#F8F5EC"></path>
                    <path d="M87.0691202,154.686595 C87.0691202,154.686595 100.533054,153.946857 105.265234,154.562852" id="Path-45" stroke="#868C93" stroke-width="1.76"></path>
                    <ellipse id="Oval-3" fill="#4A4F56" cx="63.6590266" cy="193.255948" rx="2.05351699" ry="2.04937379"></ellipse>
                    <ellipse id="Oval-3-Copy" fill="#4A4F56" cx="63.6590266" cy="214.569436" rx="2.05351699" ry="2.04937379"></ellipse>
                </g>
                <polyline id="Path-53" stroke="#4A4F56" stroke-width="1.76" points="277 253 278.638371 265.506156 280.752909 268.637317 288 269"></polyline>
                <polyline id="Path-54" stroke="#4A4F56" stroke-width="1.76" points="356.074721 182 353 177.058674 362 175"></polyline>
                <polyline id="Path-55" stroke="#4A4F56" stroke-width="1.76" points="156 177 148.632961 178.737174 144 182"></polyline>
                <path d="M358,132.752062 L374,133.247938" id="Path-51" stroke="#4A4F56" stroke-width="1.76"></path>
                <path d="M192,241 C192,241 195.372582,243.360185 196.532406,245.348456 C197.692231,247.336726 199,253 199,253" id="Path-56" stroke="#4A4F56" stroke-width="1.76"></path>
                <path d="M201,199 C201,199 199.819646,205.596164 197,209" id="Path-57" stroke="#4A4F56" stroke-width="1.76"></path>
                <path d="M309,199 C309,199 310.23357,210.12494 312,214" id="Path-58" stroke="#4A4F56" stroke-width="1.76"></path>
                <path d="M141,137 L149,169" id="Path-59" stroke="#868C93" stroke-width="1.76"></path>
                <path d="M137,248 C137,248 135,253.385483 135,255.281184 C135,257.176885 135.090617,260 135.090617,260" id="Path-60" stroke="#4A4F56" stroke-width="1.76"></path>
                <path d="M90,243 L93,230" id="Path-62" stroke="#4A4F56" stroke-width="1.76"></path>
                <path d="M313,241 C313,241 310,247.497242 310,253" id="Path-63" stroke="#4A4F56" stroke-width="1.76"></path>
                <path d="M361,254.123956 C362.43388,251.296984 367.855183,248 367.855183,248 L373,258" id="Path-64" stroke="#4A4F56" stroke-width="1.76"></path>
                <path d="M415,243 L412,230" id="Path-65" stroke="#4A4F56" stroke-width="1.76"></path>
                <path d="M246.798942,269 L247.201058,317" id="Path-66" stroke="#4A4F56" stroke-width="1.76"></path>
                <path d="M216,294 L231,269" id="Path-67" stroke="#D3CFC6" stroke-width="1.76"></path>
                <path d="M213.388889,283.607143 L220,273" id="Path-67-Copy" stroke="#D3CFC6" stroke-width="1.76"></path>
                <path d="M275.388889,298.607143 L282,288" id="Path-67-Copy-2" stroke="#D3CFC6" stroke-width="1.76"></path>
                <rect id="Rectangle-26" fill="#BEC3CA" x="405" y="154" width="58" height="38"></rect>
                <rect id="Rectangle-29" fill="#61666C" x="423" y="174" width="7" height="17"></rect>
                <rect id="Rectangle-29-Copy" fill="#61666C" x="436" y="169" width="7" height="23"></rect>
                <rect id="Rectangle-29-Copy-2" fill="#F8F5EC" x="449" y="162" width="7" height="30"></rect>
                <polyline id="Path-68" stroke="#4A4F56" stroke-width="2.64" points="401 173 416.35438 163.304811 426.301033 166.89003 459 141"></polyline>
                <polyline id="Path-69" stroke="#4A4F56" stroke-width="2.64" points="456 139 462 139.920786 460.73908 145"></polyline>
                <rect id="Rectangle-30" fill="#D3CFC6" x="10" y="134" width="58" height="67"></rect>
                <rect id="Rectangle-32" fill="#62676D" x="18" y="170" width="41" height="2"></rect>
                <rect id="Rectangle-32-Copy" fill="#62676D" x="18" y="176" width="41" height="2"></rect>
                <rect id="Rectangle-32-Copy-2" fill="#62676D" x="18" y="182" width="41" height="2"></rect>
                <rect id="Rectangle-32-Copy-3" fill="#62676D" x="18" y="190" width="23" height="2"></rect>
                <path d="M25.990633,144.028369 L25.990633,144.005674 C25.990633,141.770213 24.1075691,140.056738 21.3820819,140.056738 L18,140.056738 L18,148 L21.3820819,148 C24.1075691,148 25.990633,146.26383 25.990633,144.028369 Z M23.9960719,144.051064 C23.9960719,145.458156 22.9430427,146.422695 21.3820819,146.422695 L19.9078411,146.422695 L19.9078411,141.634043 L21.3820819,141.634043 C22.9430427,141.634043 23.9960719,142.621277 23.9960719,144.028369 L23.9960719,144.051064 Z M38.1500226,148 L34.4334491,140 L32.674271,140 L28.9576976,148 L30.9027043,148 L31.6955733,146.21844 L35.3625925,146.21844 L36.1554615,148 L38.1500226,148 Z M34.6812207,144.675177 L32.3769452,144.675177 L33.5290829,142.099291 L34.6812207,144.675177 Z M47.5715365,141.668085 L47.5715365,140.056738 L40.3861611,140.056738 L40.3861611,141.668085 L43.0249282,141.668085 L43.0249282,148 L44.9327693,148 L44.9327693,141.668085 L47.5715365,141.668085 Z M59,148 L55.2834265,140 L53.5242484,140 L49.8076749,148 L51.7526817,148 L52.5455507,146.21844 L56.2125699,146.21844 L57.0054389,148 L59,148 Z M55.5311981,144.675177 L53.2269225,144.675177 L54.3790603,142.099291 L55.5311981,144.675177 Z" id="DATA" fill="#62676D"></path>
                <rect id="Rectangle-31" fill="#E4DFCE" x="18" y="154" width="41" height="10"></rect>
                <path d="M220,55.16 L220,55.12 C220,53.24 218.907563,52.3 217.137815,51.68 C218.230252,51.12 219.147899,50.24 219.147899,48.66 L219.147899,48.62 C219.147899,46.42 217.22521,45 214.10084,45 L207,45 L207,59 L214.27563,59 C217.727731,59 220,57.72 220,55.16 Z M215.805042,49.18 C215.805042,50.22 214.865546,50.66 213.379832,50.66 L210.277311,50.66 L210.277311,47.7 L213.598319,47.7 C215.018487,47.7 215.805042,48.22 215.805042,49.14 L215.805042,49.18 Z M216.657143,54.78 C216.657143,55.82 215.761345,56.3 214.27563,56.3 L210.277311,56.3 L210.277311,53.22 L214.166387,53.22 C215.892437,53.22 216.657143,53.8 216.657143,54.74 L216.657143,54.78 Z" id="B" fill="#B3A392"></path>
                <path d="M243,65 L239.042975,60 C241.102479,59.34 242.51405,57.92 242.51405,55.66 L242.51405,55.62 C242.51405,52.74 240.22314,51 236.404959,51 L229,51 L229,65 L232.563636,65 L232.563636,60.52 L235.363636,60.52 L238.834711,65 L243,65 Z M238.904132,55.82 C238.904132,57 237.909091,57.8 236.173554,57.8 L232.563636,57.8 L232.563636,53.78 L236.104132,53.78 C237.839669,53.78 238.904132,54.46 238.904132,55.78 L238.904132,55.82 Z" id="R" fill="#B3A392"></path>
                <path d="M265.154243,60 L258.622878,45.042804 L255.531365,45.042804 L249,60 L252.418081,60 L253.811439,56.6691067 L260.25572,56.6691067 L261.649077,60 L265.154243,60 Z M259.058303,53.7837469 L255.008856,53.7837469 L257.033579,48.9677419 L259.058303,53.7837469 Z M285.673616,56.8511166 L285.673616,42 L282.364391,42 L282.364391,51.1440447 L275.223432,42 L272.131919,42 L272.131919,56.8511166 L275.441144,56.8511166 L275.441144,47.4100496 L282.821587,56.8511166 L285.673616,56.8511166 Z M308,52.5744417 L308,52.5320099 C308,48.3524814 304.690775,45.1488834 299.901107,45.1488834 L293.957565,45.1488834 L293.957565,60 L299.901107,60 C304.690775,60 308,56.7539702 308,52.5744417 Z M304.494834,52.6168734 C304.494834,55.2476427 302.64428,57.0509926 299.901107,57.0509926 L297.310332,57.0509926 L297.310332,48.0978908 L299.901107,48.0978908 C302.64428,48.0978908 304.494834,49.9436725 304.494834,52.5744417 L304.494834,52.6168734 Z" id="AND" fill="#B3A392"></path>
                <path d="M225.590909,19.6153846 L217,10.4458007" id="Path-70" stroke="#62676D" stroke-width="1.76"></path>
                <path d="M254.104835,21 L253.895165,0" id="Path-70-Copy" stroke="#62676D" stroke-width="1.76"></path>
                <path d="M285,21 L292,10" id="Path-70-Copy-2" stroke="#62676D" stroke-width="1.76"></path>
                <path d="M86.6548127,135 L83.550972,135 L83.550972,127.999116 L82,127.999116 L82,125.586847 L83.550972,125.586847 L83.550972,124.138601 C83.550972,122.17079 84.4262684,121 86.9146515,121 L88.9857752,121 L88.9857752,123.413153 L87.6913229,123.413153 C86.7226174,123.413153 86.658606,123.750252 86.658606,124.379387 L86.6543385,125.586847 L89,125.586847 L88.7254623,127.999116 L86.6543385,127.999116 L86.6543385,135 L86.6548127,135 Z" id="Shape" fill="#868C93"></path>
                <path d="M451.350766,112.739058 C451.944063,112.395854 452.399307,111.851654 452.61296,111.20338 C452.057463,111.521956 451.443623,111.752347 450.788695,111.877076 C450.266068,111.336848 449.519105,111 448.692434,111 C447.106474,111 445.821271,112.243319 445.821271,113.776614 C445.821271,113.994294 445.845102,114.206413 445.894406,114.408999 C443.508071,114.293009 441.392088,113.188719 439.974585,111.507656 C439.727241,111.919182 439.585901,112.395854 439.585901,112.904304 C439.585901,113.867182 440.092915,114.717247 440.863708,115.216164 C440.392851,115.201863 439.949932,115.075545 439.562071,114.868987 L439.562071,114.903149 C439.562071,116.248953 440.551447,117.371515 441.867054,117.62574 C441.625462,117.690885 441.372366,117.723458 441.109409,117.723458 C440.924517,117.723458 440.743734,117.706775 440.569525,117.674202 C440.934378,118.776903 441.995246,119.58089 443.252509,119.60234 C442.268885,120.347537 441.030522,120.790842 439.685332,120.790842 C439.453601,120.790842 439.224335,120.778925 439,120.752708 C440.271233,121.540012 441.780771,122 443.402888,122 C448.686682,122 451.57428,117.768742 451.57428,114.099162 C451.57428,113.978405 451.572636,113.858443 451.566884,113.740069 C452.128133,113.348404 452.616247,112.859021 453,112.302109 C452.484768,112.522967 451.930915,112.672324 451.350766,112.739058 Z" id="Shape" fill="#868C93"></path>
                <path d="M416.487594,94 L408.512406,94 C407.127411,94 406,95.1266463 406,96.5124059 L406,104.487594 C406,105.873354 407.127411,107 408.512406,107 L416.487594,107 C417.872589,107 419,105.873354 419,104.487594 L419,96.5124059 C419,95.1266463 417.872589,94 416.487594,94 L416.487594,94 Z M417.208373,95.4988829 L417.495767,95.4973542 L417.495767,97.7009643 L415.299036,97.7078434 L415.291392,95.5042333 L417.208373,95.4988829 L417.208373,95.4988829 Z M410.644932,99.1654516 C411.060736,98.5891345 411.736418,98.2115475 412.5,98.2115475 C413.263582,98.2115475 413.939264,98.5891345 414.355068,99.1654516 C414.626411,99.5415099 414.788452,100.001646 414.788452,100.5 C414.788452,101.761171 413.761936,102.787688 412.5,102.787688 C411.238829,102.787688 410.212312,101.761171 410.212312,100.5 C410.212312,100.001646 410.374353,99.5415099 410.644932,99.1654516 L410.644932,99.1654516 Z M417.733478,104.487594 C417.733478,105.174741 417.174741,105.733478 416.487594,105.733478 L408.512406,105.733478 C407.825259,105.733478 407.266522,105.174741 407.266522,104.487594 L407.266522,99.1654516 L409.207961,99.1654516 C409.039805,99.5781985 408.94579,100.028398 408.94579,100.5 C408.94579,102.459784 410.540216,104.054974 412.5,104.054974 C414.460548,104.054974 416.054974,102.459784 416.054974,100.5 C416.054974,100.028398 415.959431,99.5781985 415.792803,99.1654516 L417.733478,99.1654516 L417.733478,104.487594 L417.733478,104.487594 Z" id="Shape" fill="#868C93"></path>
                <path d="M406.327905,132.168523 L408.861712,132.168523 L408.861712,140.999168 L406.327905,140.999168 L406.327905,132.168523 Z M407.530221,131.063965 L407.511877,131.063965 C406.594661,131.063965 406,130.38891 406,129.534063 C406,128.661736 406.612241,128 407.547801,128 C408.482596,128 409.057385,128.660072 409.075729,129.531566 C409.075729,130.386413 408.482596,131.063965 407.530221,131.063965 L407.530221,131.063965 Z M419,141 L416.126823,141 L416.126823,136.42944 C416.126823,135.233321 415.677387,134.417595 414.689087,134.417595 C413.933149,134.417595 413.512759,134.967794 413.317086,135.49968 C413.243709,135.689461 413.255174,135.954988 413.255174,136.221347 L413.255174,141 L410.408749,141 C410.408749,141 410.445437,132.904341 410.408749,132.168523 L413.255174,132.168523 L413.255174,133.554424 C413.42333,132.948457 414.332902,132.083621 415.784396,132.083621 C417.585195,132.083621 419,133.354655 419,136.089 L419,141 L419,141 Z" id="Shape" fill="#868C93"></path>
                <path d="M109,155.791258 L109,151.208742 C109,151.208742 109,149 106.759701,149 L98.2395343,149 C98.2395343,149 96,149 96,151.208742 L96,155.791258 C96,155.791258 96,158 98.2395343,158 L106.759701,158 C106.759701,158 109,158 109,155.791258 M105.023871,153.506405 L100.767992,155.97061 L100.767992,151.041447 L105.023871,153.506405" id="Shape" fill="#868C93"></path>
                <path d="M93.3441666,180.627937 C91.5769522,182.876479 90.0795589,184 88.8558088,184 C88.0990863,184 87.4577832,183.316443 86.9341924,181.944833 C86.5833483,180.686399 86.2347974,179.427965 85.8847177,178.173279 C85.494891,176.800919 85.0775471,176.115114 84.6311573,176.115114 C84.5340828,176.115114 84.1954686,176.315234 83.6114929,176.716224 L83,175.943475 C83.6405388,175.392582 84.2719052,174.839441 84.8948636,174.287799 C85.7478962,173.563768 86.3891994,173.183765 86.8172444,173.144041 C87.8262076,173.048103 88.4484017,173.724914 88.6830621,175.172225 C88.9330098,176.734962 89.108814,177.706332 89.2058885,178.087085 C89.4978763,179.382245 89.8173814,180.028326 90.1674611,180.028326 C90.438811,180.028326 90.8469825,179.610097 91.3912112,178.77289 C91.9354399,177.934184 92.2251346,177.297097 92.2648817,176.857882 C92.342847,176.133851 92.0516235,175.774085 91.3912112,175.774085 C91.0801142,175.774085 90.7590804,175.838543 90.4296386,175.973456 C91.0717062,173.935527 92.2946919,172.94467 94.1016534,173.002382 C95.4400585,173.039109 96.0721893,173.887558 95.9934596,175.543235 C95.9368965,176.782931 95.0517605,178.477582 93.3441666,180.627937 Z" id="Shape" fill="#868C93"></path>
                <ellipse id="Oval" fill="#D3CFC6" cx="415" cy="267.5" rx="10" ry="10.5"></ellipse>
                <ellipse id="Oval-Copy" fill="#D3CFC6" cx="441" cy="284.5" rx="10" ry="10.5"></ellipse>
                <path d="M419,269.183411 C419,267.744159 418.175725,266.934579 416.248188,266.40771 L416.248188,264.46729 C416.780797,264.608645 417.313406,264.878505 417.820652,265.225467 L418.67029,263.721963 C417.985507,263.233645 417.211957,262.899533 416.311594,262.771028 L416.311594,262 L414.992754,262 L414.992754,262.745327 C413.394928,262.912383 412.32971,263.850467 412.32971,265.276869 C412.32971,266.793224 413.230072,267.51285 415.056159,268.014019 L415.056159,270.057243 C414.307971,269.903037 413.673913,269.543224 412.98913,269.016355 L412,270.481308 C412.836957,271.123832 413.902174,271.560748 414.992754,271.702103 L414.992754,273 L416.311594,273 L416.311594,271.727804 C417.922101,271.547897 419,270.609813 419,269.183411 Z M415.056159,266.086449 C414.358696,265.829439 414.181159,265.559579 414.181159,265.161215 C414.181159,264.75 414.447464,264.441589 415.056159,264.351636 L415.056159,266.086449 Z M417.148551,269.286215 C417.148551,269.748832 416.844203,270.031542 416.248188,270.121495 L416.248188,268.32243 C416.932971,268.579439 417.148551,268.849299 417.148551,269.286215 Z" id="$" fill="#62676D"></path>
                <path d="M444,286.183411 C444,284.744159 443.175725,283.934579 441.248188,283.40771 L441.248188,281.46729 C441.780797,281.608645 442.313406,281.878505 442.820652,282.225467 L443.67029,280.721963 C442.985507,280.233645 442.211957,279.899533 441.311594,279.771028 L441.311594,279 L439.992754,279 L439.992754,279.745327 C438.394928,279.912383 437.32971,280.850467 437.32971,282.276869 C437.32971,283.793224 438.230072,284.51285 440.056159,285.014019 L440.056159,287.057243 C439.307971,286.903037 438.673913,286.543224 437.98913,286.016355 L437,287.481308 C437.836957,288.123832 438.902174,288.560748 439.992754,288.702103 L439.992754,290 L441.311594,290 L441.311594,288.727804 C442.922101,288.547897 444,287.609813 444,286.183411 Z M440.056159,283.086449 C439.358696,282.829439 439.181159,282.559579 439.181159,282.161215 C439.181159,281.75 439.447464,281.441589 440.056159,281.351636 L440.056159,283.086449 Z M442.148551,286.286215 C442.148551,286.748832 441.844203,287.031542 441.248188,287.121495 L441.248188,285.32243 C441.932971,285.579439 442.148551,285.849299 442.148551,286.286215 Z" id="$-copy" fill="#62676D"></path>
                <path d="M322,344.761641 L246.128252,333.27876 C246.128252,333.27876 235.290548,328.578082 220.723004,319.412461 C199.819958,306.260661 177.244796,286.809145 171.915034,287.164648 C162.870907,287.767906 151.673235,283.250432 143.260506,298.965603 C134.847778,314.680773 152.62546,328.141674 152.62546,328.141674 C152.62546,328.141674 226.15643,359.531264 233.541182,361.470266 C240.925934,363.409269 315.645695,368 315.645695,368" id="Path-71-Copy" fill="#4A4F56"></path>
                <path d="M165,342.732942 L253.082934,329.335914 C253.082934,329.335914 263.898867,324.629431 278.437147,315.452489 C299.298202,302.284448 321.828014,282.808909 327.14707,283.164852 C336.173029,283.768854 347.348206,279.245802 355.744035,294.98038 C364.139863,310.714959 346.397894,324.192484 346.397894,324.192484 C346.397894,324.192484 269.035445,359.648693 261.665528,361.590089 C254.29561,363.531486 179.802333,365.590852 171.34154,366" id="Path-71" fill="#62676D"></path>
                <path d="M253,330 C253,330 272.243686,324.621503 307,294" id="Path-73" stroke="#4A4F56" stroke-width="1.76"></path>
                <rect id="Rectangle-33" fill="#BDC3CA" x="20" y="280" width="92" height="59"></rect>
                <rect id="Rectangle-33" fill="#868C93" x="20" y="280" width="92" height="8"></rect>
                <g id="Group-19" transform="translate(147.000000, 59.000000)" fill="#D3CFC6">
                    <path d="M31.4518313,17.2959829 C31.4518313,17.3922774 31.3852117,17.4737574 31.2889835,17.488572 L28.180071,18.0070811 C27.7877559,18.0737466 27.4768646,18.3626302 27.3806364,18.7404012 C27.0993538,19.8292703 26.6700278,20.8736958 26.0926583,21.8440486 C25.8927997,22.1847832 25.907604,22.6069978 26.1370714,22.9329178 L27.965408,25.5106488 C28.0172232,25.5847216 28.009821,25.6958307 27.9432015,25.7624961 L25.737354,27.9698635 C25.6855388,28.0217145 25.6337236,28.0291217 25.5967128,28.0291217 C25.5522997,28.0291217 25.5152889,28.0143072 25.4856802,27.9920854 L22.9171263,26.1624889 C22.5988329,25.9328634 22.1695069,25.9180489 21.8290069,26.1180452 C20.8593223,26.6958126 19.815616,27.1254344 18.7274966,27.4069108 C18.3425836,27.5032053 18.0538989,27.8217181 17.9946815,28.2068963 L17.4691273,31.317951 C17.4543229,31.4142456 17.372899,31.480911 17.2766708,31.480911 L14.1603561,31.480911 C14.0641279,31.480911 13.982704,31.4142456 13.9678997,31.317951 L13.4497476,28.2068963 C13.383128,27.8143108 13.0944433,27.5032053 12.7169325,27.4069108 C11.6584218,27.1328417 10.636922,26.7106271 9.68204173,26.1624889 C9.52659611,26.0736016 9.34894396,26.029158 9.17869399,26.029158 C8.97883534,26.029158 8.7715745,26.0884162 8.60132453,26.2143398 L6.01056413,28.0587508 C5.97355327,28.0809726 5.93654241,28.0957872 5.89953154,28.0957872 C5.86992285,28.0957872 5.81070547,28.0883799 5.75889026,28.036529 L3.55304284,25.8291616 C3.48642328,25.7624961 3.47902111,25.6587943 3.53083632,25.5773143 L5.35177077,23.0218051 C5.58123812,22.695885 5.59604247,22.2662632 5.39618381,21.9255286 C4.81881435,20.9625831 4.37468399,19.9181576 4.09340143,18.8292884 C3.98977102,18.4515175 3.67887977,18.1626338 3.2939668,18.0959684 L0.162847797,17.5626447 C0.0666195532,17.5478302 0,17.4663502 0,17.3700556 L0,14.2515936 C0,14.1552991 0.0666195532,14.073819 0.162847797,14.0590045 L3.24955376,13.5404954 C3.64186891,13.4738299 3.96016233,13.1849463 4.05639057,12.7997681 C4.33027096,11.7108989 4.75219479,10.6590661 5.32216208,9.68871332 C5.52202074,9.34797876 5.49981422,8.92576419 5.27034687,8.60725144 L3.4272059,6.01470582 C3.37539069,5.94063309 3.38279287,5.82952399 3.44941242,5.76285854 L5.65525985,3.55549113 C5.70707506,3.50364022 5.75889026,3.49623294 5.79590113,3.49623294 C5.84031416,3.49623294 5.87732503,3.51104749 5.90693372,3.53326931 L8.46068325,5.35545851 C8.78637885,5.58508398 9.21570486,5.59989853 9.5562048,5.39990215 C10.5184872,4.82213484 11.5621936,4.37769845 12.6503129,4.09622207 C13.0278237,3.99252025 13.3165085,3.68141477 13.383128,3.29623657 L13.9160844,0.16296001 C13.9308888,0.0666654586 14.0123127,1.95399252e-14 14.1085409,1.95399252e-14 L17.2248556,1.95399252e-14 C17.3210838,1.95399252e-14 17.4025077,0.0666654586 17.4173121,0.16296001 L17.9354642,3.25179293 C18.0020837,3.64437841 18.2907684,3.96289115 18.6756814,4.0591857 C19.7934095,4.34066209 20.8593223,4.7776912 21.8512134,5.36286578 C22.1917134,5.56286216 22.6136372,5.54804761 22.9393328,5.31842215 L25.4930824,3.4814184 C25.5300932,3.45919658 25.5671041,3.44438203 25.6041149,3.44438203 C25.6337236,3.44438203 25.692941,3.4517893 25.7447562,3.50364022 L27.9506036,5.71100762 C28.0172232,5.77767308 28.0246254,5.88137491 27.9728102,5.96285491 L26.1444735,8.53317871 C25.9150062,8.85169145 25.9002018,9.2813133 26.1000605,9.62204786 C26.67743,10.5924007 27.106756,11.6368262 27.3880385,12.7256953 C27.4842668,13.1108735 27.8025602,13.3997572 28.1874732,13.4590154 L31.2963857,13.9849318 C31.3926139,13.9997463 31.4592334,14.0812263 31.4592334,14.1775209 L31.4592334,17.2959829 L31.4518313,17.2959829 L31.4518313,17.2959829 Z M15.7512891,19.5000583 C17.7934111,19.5000583 19.452332,17.8399942 19.452332,15.7964651 C19.452332,13.7529359 17.7934111,12.0928718 15.7512891,12.0928718 C13.7091671,12.0928718 12.0502461,13.7529359 12.0502461,15.7964651 C12.0502461,17.8399942 13.7091671,19.5000583 15.7512891,19.5000583 Z" id="Combined-Shape"></path>
                </g>
                <g id="Group-19-Copy" transform="translate(178.000000, 80.000000)" fill="#62676D">
                    <path d="M17.4956257,9.62118992 C17.4956257,9.67475544 17.4585674,9.7200801 17.4050388,9.72832095 L15.6756524,10.0167506 C15.4574203,10.0538344 15.2844816,10.214531 15.230953,10.4246726 C15.0744847,11.0303749 14.8356647,11.6113547 14.5144929,12.1511302 C14.4033181,12.3406697 14.4115533,12.5755339 14.5391985,12.7568325 L15.5562424,14.1907401 C15.5850655,14.2319443 15.5809479,14.2937507 15.5438896,14.3308345 L14.3168488,15.5587208 C14.2880257,15.5875638 14.2592026,15.5916842 14.2386146,15.5916842 C14.2139091,15.5916842 14.1933212,15.5834434 14.1768508,15.5710821 L12.7480483,14.5533374 C12.570992,14.4256042 12.332172,14.4173634 12.142763,14.5286148 C11.6033592,14.8500079 11.0227795,15.0889925 10.4174942,15.2455686 C10.2033797,15.2991341 10.0427938,15.4763124 10.0098531,15.6905744 L9.71750449,17.4211525 C9.70926932,17.474718 9.66397587,17.5118018 9.61044724,17.5118018 L7.87694326,17.5118018 C7.82341463,17.5118018 7.77812118,17.474718 7.76988601,17.4211525 L7.48165494,15.6905744 C7.44459666,15.4721919 7.28401078,15.2991341 7.07401386,15.2455686 C6.48519897,15.0931129 5.91697202,14.8582488 5.38580334,14.5533374 C5.29933402,14.5038923 5.20051194,14.4791698 5.10580745,14.4791698 C4.99463261,14.4791698 4.87934018,14.5121332 4.78463569,14.5821804 L3.34348036,15.6081659 C3.32289243,15.6205272 3.30230449,15.628768 3.28171656,15.628768 C3.26524621,15.628768 3.23230552,15.6246476 3.20348241,15.5958047 L1.97644159,14.3679183 C1.93938331,14.3308345 1.93526573,14.2731486 1.96408883,14.2278239 L2.97701515,12.8062776 C3.10466033,12.624979 3.11289551,12.3859944 3.00172067,12.1964549 C2.68054891,11.6607998 2.43349371,11.07982 2.27702542,10.4741177 C2.2193792,10.2639761 2.04644056,10.1032795 1.83232606,10.0661957 L0.0905869063,9.76952519 C0.0370582798,9.76128434 0,9.71595967 0,9.66239416 L0,7.92769568 C0,7.87413017 0.0370582798,7.82880551 0.0905869063,7.82056466 L1.80762054,7.53213498 C2.02585263,7.49505117 2.20290886,7.33435463 2.25643748,7.12009259 C2.40878819,6.51439027 2.64349063,5.92929006 2.9605448,5.38951453 C3.07171964,5.19997503 3.05936688,4.96511086 2.93172169,4.78793263 L1.90644262,3.34578425 C1.87761951,3.30458001 1.8817371,3.24277365 1.91879538,3.20568983 L3.1458362,1.9778035 C3.17465931,1.94896053 3.20348241,1.9448401 3.22407035,1.9448401 C3.24877587,1.9448401 3.2693638,1.95308095 3.28583415,1.96544222 L4.70640154,2.97906652 C4.88757535,3.10679966 5.12639538,3.11504051 5.31580436,3.00378906 C5.85109063,2.68239599 6.43167035,2.43517055 7.03695558,2.27859444 C7.2469525,2.22090851 7.40753838,2.0478507 7.44459666,1.83358866 L7.7410629,0.0906493269 C7.74929807,0.0370838156 7.79459153,1.24344979e-14 7.84812015,1.24344979e-14 L9.58162413,1.24344979e-14 C9.63515276,1.24344979e-14 9.68044621,0.0370838156 9.68868139,0.0906493269 L9.97691245,1.80886611 C10.0139707,2.02724858 10.1745566,2.20442681 10.3886711,2.25799232 C11.0104267,2.41456843 11.6033592,2.65767345 12.1551158,2.98318694 C12.3445248,3.09443839 12.5792272,3.08619754 12.760401,2.9584644 L14.1809684,1.93659926 C14.2015564,1.92423798 14.2221443,1.91599714 14.2427322,1.91599714 C14.2592026,1.91599714 14.2921433,1.92011756 14.3209664,1.94896053 L15.5480072,3.17684687 C15.5850655,3.21393068 15.5891831,3.27161662 15.5603599,3.31694128 L14.543316,4.74672839 C14.4156709,4.92390662 14.4074357,5.16289121 14.5186105,5.35243071 C14.8397823,5.89220625 15.0786023,6.47318603 15.2350706,7.07888835 C15.2885992,7.29315039 15.4656555,7.45384693 15.67977,7.48681032 L17.4091564,7.77936042 C17.462685,7.78760127 17.4997433,7.83292593 17.4997433,7.88649144 L17.4997433,9.62118992 L17.4956257,9.62118992 L17.4956257,9.62118992 Z M8.76192724,10.847245 C9.89789296,10.847245 10.8206965,9.92380566 10.8206965,8.78705719 C10.8206965,7.65030871 9.89789296,6.72686933 8.76192724,6.72686933 C7.62596152,6.72686933 6.70315801,7.65030871 6.70315801,8.78705719 C6.70315801,9.92380566 7.62596152,10.847245 8.76192724,10.847245 Z" id="Combined-Shape"></path>
                </g>
                <g id="Group-19-Copy-4" transform="translate(327.000000, 59.000000)" fill="#4A4F56">
                    <path d="M19.187122,10.5513771 C19.187122,10.6101214 19.1464808,10.6598281 19.087777,10.6688657 L17.1911916,10.9851811 C16.9518606,11.0258502 16.7622021,11.202083 16.7034983,11.4325414 C16.5319024,12.0968037 16.269993,12.7339532 15.91777,13.3259148 C15.7958467,13.5337792 15.804878,13.7913503 15.9448641,13.9901771 L17.0602369,15.5627164 C17.0918467,15.6079043 17.087331,15.6756862 17.0466899,15.7163553 L15.7010174,17.062955 C15.6694077,17.0945866 15.6377979,17.0991054 15.6152195,17.0991054 C15.5881254,17.0991054 15.565547,17.0900678 15.5474843,17.0765114 L13.9805436,15.96037 C13.7863693,15.8202875 13.5244599,15.8112499 13.3167387,15.9332573 C12.7251847,16.285723 12.0884739,16.5478128 11.424669,16.7195269 C11.1898537,16.7782712 11.0137422,16.9725792 10.9776167,17.2075563 L10.6570035,19.1054486 C10.6479721,19.1641929 10.5982997,19.204862 10.5395958,19.204862 L8.63849477,19.204862 C8.57979094,19.204862 8.53011847,19.1641929 8.52108711,19.1054486 L8.20498955,17.2075563 C8.16434843,16.9680604 7.98823693,16.7782712 7.75793728,16.7195269 C7.11219512,16.5523316 6.48903136,16.2947605 5.90650871,15.96037 C5.81167944,15.9061445 5.70330314,15.8790318 5.59944251,15.8790318 C5.47751916,15.8790318 5.35108014,15.9151821 5.24721951,15.9920015 L3.66673171,17.1171805 C3.64415331,17.1307369 3.62157491,17.1397745 3.59899652,17.1397745 C3.5809338,17.1397745 3.54480836,17.1352557 3.51319861,17.1036241 L2.16752613,15.7570244 C2.12688502,15.7163553 2.12236934,15.6530922 2.15397909,15.6033855 L3.26483624,14.0444026 C3.4048223,13.8455758 3.41385366,13.5834859 3.29193031,13.3756215 C2.93970732,12.7881787 2.66876655,12.1510292 2.49717073,11.4867669 C2.43395122,11.2563085 2.24429268,11.0800757 2.00947735,11.0394066 L0.0993449477,10.7140536 C0.040641115,10.705016 0,10.6553093 0,10.596565 L0,8.69415399 C0,8.63540971 0.040641115,8.58570301 0.0993449477,8.57666543 L1.98238328,8.26035005 C2.22171429,8.21968093 2.4158885,8.04344808 2.47459233,7.80847095 C2.64167247,7.14420866 2.8990662,6.50254033 3.24677352,5.9105787 C3.36869686,5.70271431 3.35514983,5.44514322 3.21516376,5.25083521 L2.09075958,3.66925834 C2.05914983,3.62407043 2.06366551,3.55628856 2.10430662,3.51561944 L3.44997909,2.16901971 C3.48158885,2.13738817 3.51319861,2.13286938 3.535777,2.13286938 C3.56287108,2.13286938 3.58544948,2.14190696 3.6035122,2.15546333 L5.1614216,3.26708593 C5.3601115,3.40716846 5.62202091,3.41620604 5.82974216,3.29419868 C6.41678049,2.94173298 7.05349129,2.67060551 7.71729617,2.49889145 C7.94759582,2.43562838 8.12370732,2.24583916 8.16434843,2.01086202 L8.48947735,0.0994134032 C8.49850871,0.0406691195 8.54818118,-1.24344979e-14 8.60688502,-1.24344979e-14 L10.5079861,-1.24344979e-14 C10.5666899,-1.24344979e-14 10.6163624,0.0406691195 10.6253937,0.0994134032 L10.9414913,1.98374927 C10.9821324,2.2232452 11.1582439,2.41755322 11.3930592,2.4762975 C12.0749268,2.64801156 12.7251847,2.91462023 13.3302857,3.27160472 C13.538007,3.39361208 13.7954007,3.3845745 13.9940906,3.24449198 L15.552,2.1238318 C15.5745784,2.11027542 15.5971568,2.10123784 15.6197352,2.10123784 C15.6377979,2.10123784 15.6739233,2.10575663 15.7055331,2.13738817 L17.0512056,3.4839879 C17.0918467,3.52465702 17.0963624,3.5879201 17.0647526,3.6376268 L15.9493798,5.2056473 C15.8093937,5.39995531 15.8003624,5.66204519 15.9222857,5.86990958 C16.2745087,6.46187121 16.5364181,7.09902075 16.7080139,7.76328304 C16.7667178,7.99826017 16.960892,8.17449302 17.1957073,8.21064335 L19.0922927,8.53147751 C19.1509965,8.5405151 19.1916376,8.5902218 19.1916376,8.64896608 L19.1916376,10.5513771 L19.187122,10.5513771 L19.187122,10.5513771 Z M9.60903997,11.8959686 C10.8548321,11.8959686 11.8668533,10.8832501 11.8668533,9.63659951 C11.8668533,8.38994894 10.8548321,7.37723043 9.60903997,7.37723043 C8.36324784,7.37723043 7.35122668,8.38994894 7.35122668,9.63659951 C7.35122668,10.8832501 8.36324784,11.8959686 9.60903997,11.8959686 Z" id="Combined-Shape"></path>
                </g>
                <g id="Group-19-Copy-2" transform="translate(353.000000, 215.000000)" fill="#62676D">
                    <path d="M17.4956257,9.62118992 C17.4956257,9.67475544 17.4585674,9.7200801 17.4050388,9.72832095 L15.6756524,10.0167506 C15.4574203,10.0538344 15.2844816,10.214531 15.230953,10.4246726 C15.0744847,11.0303749 14.8356647,11.6113547 14.5144929,12.1511302 C14.4033181,12.3406697 14.4115533,12.5755339 14.5391985,12.7568325 L15.5562424,14.1907401 C15.5850655,14.2319443 15.5809479,14.2937507 15.5438896,14.3308345 L14.3168488,15.5587208 C14.2880257,15.5875638 14.2592026,15.5916842 14.2386146,15.5916842 C14.2139091,15.5916842 14.1933212,15.5834434 14.1768508,15.5710821 L12.7480483,14.5533374 C12.570992,14.4256042 12.332172,14.4173634 12.142763,14.5286148 C11.6033592,14.8500079 11.0227795,15.0889925 10.4174942,15.2455686 C10.2033797,15.2991341 10.0427938,15.4763124 10.0098531,15.6905744 L9.71750449,17.4211525 C9.70926932,17.474718 9.66397587,17.5118018 9.61044724,17.5118018 L7.87694326,17.5118018 C7.82341463,17.5118018 7.77812118,17.474718 7.76988601,17.4211525 L7.48165494,15.6905744 C7.44459666,15.4721919 7.28401078,15.2991341 7.07401386,15.2455686 C6.48519897,15.0931129 5.91697202,14.8582488 5.38580334,14.5533374 C5.29933402,14.5038923 5.20051194,14.4791698 5.10580745,14.4791698 C4.99463261,14.4791698 4.87934018,14.5121332 4.78463569,14.5821804 L3.34348036,15.6081659 C3.32289243,15.6205272 3.30230449,15.628768 3.28171656,15.628768 C3.26524621,15.628768 3.23230552,15.6246476 3.20348241,15.5958047 L1.97644159,14.3679183 C1.93938331,14.3308345 1.93526573,14.2731486 1.96408883,14.2278239 L2.97701515,12.8062776 C3.10466033,12.624979 3.11289551,12.3859944 3.00172067,12.1964549 C2.68054891,11.6607998 2.43349371,11.07982 2.27702542,10.4741177 C2.2193792,10.2639761 2.04644056,10.1032795 1.83232606,10.0661957 L0.0905869063,9.76952519 C0.0370582798,9.76128434 0,9.71595967 0,9.66239416 L0,7.92769568 C0,7.87413017 0.0370582798,7.82880551 0.0905869063,7.82056466 L1.80762054,7.53213498 C2.02585263,7.49505117 2.20290886,7.33435463 2.25643748,7.12009259 C2.40878819,6.51439027 2.64349063,5.92929006 2.9605448,5.38951453 C3.07171964,5.19997503 3.05936688,4.96511086 2.93172169,4.78793263 L1.90644262,3.34578425 C1.87761951,3.30458001 1.8817371,3.24277365 1.91879538,3.20568983 L3.1458362,1.9778035 C3.17465931,1.94896053 3.20348241,1.9448401 3.22407035,1.9448401 C3.24877587,1.9448401 3.2693638,1.95308095 3.28583415,1.96544222 L4.70640154,2.97906652 C4.88757535,3.10679966 5.12639538,3.11504051 5.31580436,3.00378906 C5.85109063,2.68239599 6.43167035,2.43517055 7.03695558,2.27859444 C7.2469525,2.22090851 7.40753838,2.0478507 7.44459666,1.83358866 L7.7410629,0.0906493269 C7.74929807,0.0370838156 7.79459153,1.24344979e-14 7.84812015,1.24344979e-14 L9.58162413,1.24344979e-14 C9.63515276,1.24344979e-14 9.68044621,0.0370838156 9.68868139,0.0906493269 L9.97691245,1.80886611 C10.0139707,2.02724858 10.1745566,2.20442681 10.3886711,2.25799232 C11.0104267,2.41456843 11.6033592,2.65767345 12.1551158,2.98318694 C12.3445248,3.09443839 12.5792272,3.08619754 12.760401,2.9584644 L14.1809684,1.93659926 C14.2015564,1.92423798 14.2221443,1.91599714 14.2427322,1.91599714 C14.2592026,1.91599714 14.2921433,1.92011756 14.3209664,1.94896053 L15.5480072,3.17684687 C15.5850655,3.21393068 15.5891831,3.27161662 15.5603599,3.31694128 L14.543316,4.74672839 C14.4156709,4.92390662 14.4074357,5.16289121 14.5186105,5.35243071 C14.8397823,5.89220625 15.0786023,6.47318603 15.2350706,7.07888835 C15.2885992,7.29315039 15.4656555,7.45384693 15.67977,7.48681032 L17.4091564,7.77936042 C17.462685,7.78760127 17.4997433,7.83292593 17.4997433,7.88649144 L17.4997433,9.62118992 L17.4956257,9.62118992 L17.4956257,9.62118992 Z M8.76192724,10.847245 C9.89789296,10.847245 10.8206965,9.92380566 10.8206965,8.78705719 C10.8206965,7.65030871 9.89789296,6.72686933 8.76192724,6.72686933 C7.62596152,6.72686933 6.70315801,7.65030871 6.70315801,8.78705719 C6.70315801,9.92380566 7.62596152,10.847245 8.76192724,10.847245 Z" id="Combined-Shape"></path>
                </g>
                <g id="Group-19-Copy-3" transform="translate(0.000000, 192.000000)" fill="#62676D">
                    <path d="M17.4956257,9.62118992 C17.4956257,9.67475544 17.4585674,9.7200801 17.4050388,9.72832095 L15.6756524,10.0167506 C15.4574203,10.0538344 15.2844816,10.214531 15.230953,10.4246726 C15.0744847,11.0303749 14.8356647,11.6113547 14.5144929,12.1511302 C14.4033181,12.3406697 14.4115533,12.5755339 14.5391985,12.7568325 L15.5562424,14.1907401 C15.5850655,14.2319443 15.5809479,14.2937507 15.5438896,14.3308345 L14.3168488,15.5587208 C14.2880257,15.5875638 14.2592026,15.5916842 14.2386146,15.5916842 C14.2139091,15.5916842 14.1933212,15.5834434 14.1768508,15.5710821 L12.7480483,14.5533374 C12.570992,14.4256042 12.332172,14.4173634 12.142763,14.5286148 C11.6033592,14.8500079 11.0227795,15.0889925 10.4174942,15.2455686 C10.2033797,15.2991341 10.0427938,15.4763124 10.0098531,15.6905744 L9.71750449,17.4211525 C9.70926932,17.474718 9.66397587,17.5118018 9.61044724,17.5118018 L7.87694326,17.5118018 C7.82341463,17.5118018 7.77812118,17.474718 7.76988601,17.4211525 L7.48165494,15.6905744 C7.44459666,15.4721919 7.28401078,15.2991341 7.07401386,15.2455686 C6.48519897,15.0931129 5.91697202,14.8582488 5.38580334,14.5533374 C5.29933402,14.5038923 5.20051194,14.4791698 5.10580745,14.4791698 C4.99463261,14.4791698 4.87934018,14.5121332 4.78463569,14.5821804 L3.34348036,15.6081659 C3.32289243,15.6205272 3.30230449,15.628768 3.28171656,15.628768 C3.26524621,15.628768 3.23230552,15.6246476 3.20348241,15.5958047 L1.97644159,14.3679183 C1.93938331,14.3308345 1.93526573,14.2731486 1.96408883,14.2278239 L2.97701515,12.8062776 C3.10466033,12.624979 3.11289551,12.3859944 3.00172067,12.1964549 C2.68054891,11.6607998 2.43349371,11.07982 2.27702542,10.4741177 C2.2193792,10.2639761 2.04644056,10.1032795 1.83232606,10.0661957 L0.0905869063,9.76952519 C0.0370582798,9.76128434 0,9.71595967 0,9.66239416 L0,7.92769568 C0,7.87413017 0.0370582798,7.82880551 0.0905869063,7.82056466 L1.80762054,7.53213498 C2.02585263,7.49505117 2.20290886,7.33435463 2.25643748,7.12009259 C2.40878819,6.51439027 2.64349063,5.92929006 2.9605448,5.38951453 C3.07171964,5.19997503 3.05936688,4.96511086 2.93172169,4.78793263 L1.90644262,3.34578425 C1.87761951,3.30458001 1.8817371,3.24277365 1.91879538,3.20568983 L3.1458362,1.9778035 C3.17465931,1.94896053 3.20348241,1.9448401 3.22407035,1.9448401 C3.24877587,1.9448401 3.2693638,1.95308095 3.28583415,1.96544222 L4.70640154,2.97906652 C4.88757535,3.10679966 5.12639538,3.11504051 5.31580436,3.00378906 C5.85109063,2.68239599 6.43167035,2.43517055 7.03695558,2.27859444 C7.2469525,2.22090851 7.40753838,2.0478507 7.44459666,1.83358866 L7.7410629,0.0906493269 C7.74929807,0.0370838156 7.79459153,1.24344979e-14 7.84812015,1.24344979e-14 L9.58162413,1.24344979e-14 C9.63515276,1.24344979e-14 9.68044621,0.0370838156 9.68868139,0.0906493269 L9.97691245,1.80886611 C10.0139707,2.02724858 10.1745566,2.20442681 10.3886711,2.25799232 C11.0104267,2.41456843 11.6033592,2.65767345 12.1551158,2.98318694 C12.3445248,3.09443839 12.5792272,3.08619754 12.760401,2.9584644 L14.1809684,1.93659926 C14.2015564,1.92423798 14.2221443,1.91599714 14.2427322,1.91599714 C14.2592026,1.91599714 14.2921433,1.92011756 14.3209664,1.94896053 L15.5480072,3.17684687 C15.5850655,3.21393068 15.5891831,3.27161662 15.5603599,3.31694128 L14.543316,4.74672839 C14.4156709,4.92390662 14.4074357,5.16289121 14.5186105,5.35243071 C14.8397823,5.89220625 15.0786023,6.47318603 15.2350706,7.07888835 C15.2885992,7.29315039 15.4656555,7.45384693 15.67977,7.48681032 L17.4091564,7.77936042 C17.462685,7.78760127 17.4997433,7.83292593 17.4997433,7.88649144 L17.4997433,9.62118992 L17.4956257,9.62118992 L17.4956257,9.62118992 Z M8.76192724,10.847245 C9.89789296,10.847245 10.8206965,9.92380566 10.8206965,8.78705719 C10.8206965,7.65030871 9.89789296,6.72686933 8.76192724,6.72686933 C7.62596152,6.72686933 6.70315801,7.65030871 6.70315801,8.78705719 C6.70315801,9.92380566 7.62596152,10.847245 8.76192724,10.847245 Z" id="Combined-Shape"></path>
                </g>
                <g id="Group-19-Copy-5" transform="translate(8.000000, 207.000000)" fill="#B6A694">
                    <path d="M19.9865854,11.0388049 C19.9865854,11.1002629 19.9442509,11.1522658 19.883101,11.1617209 L17.9074913,11.4926487 C17.6581882,11.5351965 17.4606272,11.7195706 17.3994774,11.9606751 C17.2207317,12.6556234 16.9479094,13.3222065 16.5810105,13.9415142 C16.454007,14.158981 16.4634146,14.4284507 16.6092334,14.6364625 L17.7710801,16.2816462 C17.804007,16.3289216 17.7993031,16.3998347 17.7569686,16.4423826 L16.3552265,17.8511894 C16.3222997,17.8842821 16.2893728,17.8890097 16.2658537,17.8890097 C16.2376307,17.8890097 16.2141115,17.8795546 16.1952962,17.865372 L14.5630662,16.6976697 C14.3608014,16.551116 14.0879791,16.5416609 13.8716028,16.6693045 C13.2554007,17.0380526 12.5921603,17.3122499 11.9006969,17.4918964 C11.6560976,17.5533544 11.4726481,17.7566386 11.4350174,18.0024706 L11.1010453,19.9880372 C11.0916376,20.0494953 11.0398955,20.0920431 10.9787456,20.0920431 L8.99843206,20.0920431 C8.93728223,20.0920431 8.88554007,20.0494953 8.8761324,19.9880372 L8.54686411,18.0024706 C8.50452962,17.751911 8.32108014,17.5533544 8.08118467,17.4918964 C7.40853659,17.3169774 6.75940767,17.0475076 6.15261324,16.6976697 C6.05383275,16.6409392 5.94094077,16.612574 5.83275261,16.612574 C5.70574913,16.612574 5.57404181,16.6503943 5.46585366,16.7307625 L3.8195122,17.9079198 C3.79599303,17.9221025 3.77247387,17.9315575 3.7489547,17.9315575 C3.73013937,17.9315575 3.69250871,17.92683 3.65958188,17.8937372 L2.25783972,16.4849304 C2.21550523,16.4423826 2.21080139,16.376197 2.24372822,16.3241941 L3.40087108,14.6931929 C3.5466899,14.4851812 3.55609756,14.2109839 3.42909408,13.9935171 C3.06219512,13.3789369 2.77996516,12.7123539 2.60121951,12.0174056 C2.53536585,11.776301 2.33780488,11.591927 2.09320557,11.5493791 L0.103484321,11.2089963 C0.0423344948,11.1995412 0,11.1475383 0,11.0860803 L0,9.09578611 C0,9.03432809 0.0423344948,8.98232516 0.103484321,8.97287008 L2.06498258,8.64194231 C2.31428571,8.59939445 2.51655052,8.41502041 2.57770035,8.16918835 C2.75174216,7.47424004 3.01986063,6.80292942 3.38205575,6.18362174 C3.50905923,5.96615492 3.49494774,5.69668517 3.34912892,5.49340096 L2.17787456,3.83876212 C2.14494774,3.79148672 2.14965157,3.72057363 2.19198606,3.67802577 L3.59372822,2.26921899 C3.62665505,2.23612621 3.65958188,2.23139867 3.68310105,2.23139867 C3.71132404,2.23139867 3.73484321,2.24085375 3.75365854,2.25503637 L5.37648084,3.4180111 C5.58344948,3.56456483 5.85627178,3.5740199 6.07264808,3.44637634 C6.68414634,3.07762825 7.34738676,2.79397588 8.03885017,2.61432937 C8.27874564,2.54814382 8.46219512,2.34958716 8.50452962,2.1037551 L8.84320557,0.10400587 C8.85261324,0.042547856 8.9043554,0 8.96550523,0 L10.9458188,0 C11.0069686,0 11.0587108,0.042547856 11.0681185,0.10400587 L11.3973868,2.07538987 C11.4397213,2.32594946 11.6231707,2.52923366 11.86777,2.59069168 C12.5780488,2.77033818 13.2554007,3.04926301 13.8857143,3.42273864 C14.1020906,3.55038221 14.3702091,3.54092713 14.5771777,3.3943734 L16.2,2.22194359 C16.2235192,2.20776097 16.2470383,2.19830589 16.2705575,2.19830589 C16.2893728,2.19830589 16.3270035,2.20303343 16.3599303,2.23612621 L17.7616725,3.644933 C17.804007,3.68748085 17.8087108,3.75366641 17.775784,3.80566934 L16.6139373,5.44612557 C16.4681185,5.64940977 16.4587108,5.92360706 16.5857143,6.14107388 C16.9526132,6.76038157 17.2254355,7.42696464 17.4041812,8.12191296 C17.465331,8.36774501 17.6675958,8.55211906 17.9121951,8.58993937 L19.8878049,8.92559468 C19.9489547,8.93504976 19.9912892,8.9870527 19.9912892,9.04851071 L19.9912892,11.0388049 L19.9865854,11.0388049 L19.9865854,11.0388049 Z M10.3954704,12.8589076 C11.71914,12.8589076 12.7944251,11.7782032 12.7944251,10.4478624 C12.7944251,9.11752164 11.71914,8.03681725 10.3954704,8.03681725 C9.07180075,8.03681725 7.99651568,9.11752164 7.99651568,10.4478624 C7.99651568,11.7782032 9.07180075,12.8589076 10.3954704,12.8589076 Z" id="Combined-Shape"></path>
                </g>
                <path d="M122.792697,36 L80.207048,36 C77.8834293,36 76,37.8008601 76,40.0226119 L76,64.4867543 C76,66.7085061 77.8834293,68.5093662 80.207048,68.5093662 L95.4912613,68.5093662 L101.499872,80 L107.508739,68.5096101 L122.792952,68.5096101 C125.116571,68.5096101 127,66.7087499 127,64.4869982 L127,40.0230996 C127,37.8013478 125.116316,36 122.792697,36 Z" id="Shape" fill="#BDC3CA"></path>
                <path d="M114.541409,45.5138795 C114.472663,44.616973 113.616316,43.9448178 112.644016,44.0035763 L106.14178,44.4195025 C105.162377,44.482458 104.423814,45.2601687 104.492102,46.1570752 C104.56039,47.0539817 105.407342,47.7236187 106.389495,47.6677981 L108.752299,47.516495 L99.7891801,56.0475992 L94.5525593,51.2520664 C93.858911,50.6160057 92.7326204,50.6160057 92.0389721,51.2520664 L85.5209237,57.2210903 C84.8263588,57.8567314 84.8263588,58.8873134 85.5209237,59.5229545 C86.214572,60.1590152 87.3408625,60.1590152 88.0345109,59.5229545 L93.2956511,54.7053873 L98.5567914,59.5229545 C98.8902101,59.8287085 99.3421012,59.9997377 99.8136996,59.9997377 L99.830657,59.9997377 C100.308213,59.9953308 100.763771,59.8156977 101.094669,59.5005003 L111.303238,49.7839434 L111.44898,51.6950635 C111.514518,52.5531475 112.295474,53.209354 113.220338,53.209354 C113.261815,53.209354 113.303979,53.207885 113.346373,53.2053668 C114.325776,53.1424112 115.064109,52.3647006 114.995592,51.4673744 L114.541409,45.5138795 Z" id="Shape" fill="#F8F5EC"></path>
                <g id="Group-20" transform="translate(39.000000, 76.000000)">
                    <mask id="mask-14" fill="white">
                        <use xlink:href="#path-13"></use>
                    </mask>
                    <use id="Path-75" fill="#868C93" transform="translate(13.657828, 22.150199) rotate(-10.000000) translate(-13.657828, -22.150199) " xlink:href="#path-13"></use>
                    <path d="M21.2531212,39.4120772 C21.2531212,39.4120772 23.5660119,35.865548 26.476653,35.865548 C29.3872942,35.865548 27.4441086,41.687939 27.4441086,41.687939 L23.6633201,42.8051924 L21.2531212,39.4120772 Z" id="Path-76" fill="#4A4F56" mask="url(#mask-14)"></path>
                    <path d="M6.10670986,4.95055285 C6.10670986,4.95055285 3.80294579,5.43936141 2.40150631,7.8054087" id="Path-78" stroke="#4A4F56" stroke-width="0.88" mask="url(#mask-14)"></path>
                    <path d="M7.37058152,10.7277159 L21.5059645,33.1446036" id="Path-79" stroke="#BDC3CA" stroke-width="0.88" mask="url(#mask-14)"></path>
                </g>
                <ellipse id="Oval-4" fill="#F8F5EC" cx="25.5" cy="283.5" rx="1.5" ry="1.5"></ellipse>
                <ellipse id="Oval-4-Copy" fill="#F8F5EC" cx="32.5" cy="283.5" rx="1.5" ry="1.5"></ellipse>
                <ellipse id="Oval-4-Copy-2" fill="#F8F5EC" cx="38.5" cy="283.5" rx="1.5" ry="1.5"></ellipse>
                <g id="Group-21" transform="translate(80.000000, 321.000000)" stroke="#62676D" stroke-width="1.76">
                    <ellipse id="Oval-5" fill-opacity="0.291666667" fill="#D3CFC6" cx="12.1244467" cy="12.1609735" rx="12.1244467" ry="12.1609735"></ellipse>
                    <path d="M20.2074112,21.0790207 L33.9484509,34.8614573" id="Path-77"></path>
                </g>
                <rect id="Rectangle-34" fill="#D8D8D8" x="29" y="293" width="41" height="19"></rect>
                <rect id="Rectangle-34-Copy" fill="#D8D8D8" x="29" y="317" width="19" height="17"></rect>
                <rect id="Rectangle-35" fill="#4A4F56" x="76" y="293" width="31" height="2"></rect>
                <rect id="Rectangle-35-Copy" fill="#868C93" x="76" y="300" width="31" height="2"></rect>
                <rect id="Rectangle-35-Copy-2" fill="#868C93" x="76" y="306" width="19" height="2"></rect>
                <rect id="Rectangle-35-Copy-3" fill="#4A4F56" x="54" y="318" width="16" height="2"></rect>
                <rect id="Rectangle-35-Copy-4" fill="#868C93" x="54" y="323" width="16" height="2"></rect>
                <rect id="Rectangle-35-Copy-5" fill="#868C93" x="54" y="329" width="16" height="2"></rect>
                <g id="Group-22" transform="translate(312.000000, 107.000000)">
                    <path d="M5.75749129,19.4771148 C2.35868896,17.801198 0,13.9829016 0,9.90250696 C0,4.43350338 4.29619442,0 9.59581882,0 C14.8954432,0 19.1916376,4.43350338 19.1916376,9.90250696 C19.1916376,13.9435686 16.8138238,17.7275607 13.4341463,19.4280543 L13.4341463,22.9054478 C13.4341463,25.021428 11.7113551,26.7367688 9.59581882,26.7367688 C7.47596906,26.7367688 5.75749129,25.0183961 5.75749129,22.9054478 L5.75749129,19.4771148 Z" id="Combined-Shape" fill="#D3CFC6"></path>
                    <path d="M5.75749129,20.7952646 L13.4341463,20.7952646 L13.4341463,25.8761999 C13.4341463,27.9921801 11.7113551,29.7075209 9.59581882,29.7075209 L9.59581882,29.7075209 C7.47596906,29.7075209 5.75749129,27.9891482 5.75749129,25.8761999 L5.75749129,20.7952646 Z" id="Rectangle-36" fill="#62676D"></path>
                    <path d="M10.1162981,19.3327627 L7.67665505,13.8635097" id="Path-80" stroke="#62676D" stroke-width="1.056"></path>
                    <path d="M9.59581882,21.9382047 L11.4456878,10.8927577" id="Path-81" stroke="#62676D" stroke-width="1.056"></path>
                </g>
                <g id="Group-23" transform="translate(374.000000, 293.000000)">
                    <path d="M32.7521433,54.97663 L4.74956491,54.97663 C2.12651367,54.97663 0,52.8126219 0,50.1429288 L0,4.83370117 C0,2.16418383 2.12634102,0 4.74956491,0 L32.7521433,0 C35.3751945,0 37.5017082,2.16400813 37.5017082,4.83370117 L37.5017082,50.1432802 C37.5017082,52.8127976 35.3753671,54.97663 32.7521433,54.97663 Z M20.3813631,17.231481 L20.3813631,22.1547613 L26.0881448,22.1547613 L26.0881448,17.231481 L20.3813631,17.231481 Z M12.2288179,17.231481 L12.2288179,22.1547613 L17.9355996,22.1547613 L17.9355996,17.231481 L12.2288179,17.231481 Z M28.5339084,17.231481 L28.5339084,22.1547613 L33.4254355,22.1547613 L33.4254355,17.231481 L28.5339084,17.231481 Z M4.07627263,17.231481 L4.07627263,22.1547613 L8.96779978,22.1547613 L8.96779978,17.231481 L4.07627263,17.231481 Z M12.2288179,23.7958548 L12.2288179,28.7191351 L17.9355996,28.7191351 L17.9355996,23.7958548 L12.2288179,23.7958548 Z M20.3813631,23.7958548 L20.3813631,28.7191351 L26.0881448,28.7191351 L26.0881448,23.7958548 L20.3813631,23.7958548 Z M4.07627263,23.7958548 L4.07627263,28.7191351 L8.96779978,28.7191351 L8.96779978,23.7958548 L4.07627263,23.7958548 Z M28.5339084,23.7958548 L28.5339084,28.7191351 L33.4254355,28.7191351 L33.4254355,23.7958548 L28.5339084,23.7958548 Z M20.3813631,32.0013219 L20.3813631,36.9246022 L26.0881448,36.9246022 L26.0881448,32.0013219 L20.3813631,32.0013219 Z M12.2288179,32.0013219 L12.2288179,36.9246022 L17.9355996,36.9246022 L17.9355996,32.0013219 L12.2288179,32.0013219 Z M4.07627263,32.0013219 L4.07627263,36.9246022 L8.96779978,36.9246022 L8.96779978,32.0013219 L4.07627263,32.0013219 Z M20.3813631,38.5656957 L20.3813631,43.488976 L26.0881448,43.488976 L26.0881448,38.5656957 L20.3813631,38.5656957 Z M12.2288179,38.5656957 L12.2288179,43.488976 L17.9355996,43.488976 L17.9355996,38.5656957 L12.2288179,38.5656957 Z M4.07627263,38.5656957 L4.07627263,43.488976 L8.96779978,43.488976 L8.96779978,38.5656957 L4.07627263,38.5656957 Z M20.3813631,45.1300694 L20.3813631,50.0533497 L26.0881448,50.0533497 L26.0881448,45.1300694 L20.3813631,45.1300694 Z M12.2288179,45.1300694 L12.2288179,50.0533497 L17.9355996,50.0533497 L17.9355996,45.1300694 L12.2288179,45.1300694 Z M28.5339084,32.0013219 L28.5339084,50.8738964 L33.4254355,50.8738964 L33.4254355,32.0013219 L28.5339084,32.0013219 Z M4.07627263,45.1300694 L4.07627263,50.0533497 L8.96779978,50.0533497 L8.96779978,45.1300694 L4.07627263,45.1300694 Z" id="Combined-Shape" fill="#D3CFC6"></path>
                    <rect id="Rectangle-path" fill="#FFFFFF" x="4.07627263" y="4.9232803" width="28.5339084" height="9.8465606"></rect>
                </g>
                <path d="M411.066515,66.4290813 L411.066515,56 L408.933278,56 L408.933278,66.4290813 C407.244715,66.8809458 406,68.3723772 406,70.1428429 C406,72.26951 407.794576,74 410,74 C412.205424,74 414,72.26951 414,70.1428429 C413.999794,68.372775 412.755079,66.8811447 411.066515,66.4290813 Z M409.999794,71.9429424 C408.970403,71.9429424 408.133031,71.1354732 408.133031,70.1428429 C408.133031,69.1502127 408.970403,68.3427435 409.999794,68.3427435 C411.029184,68.3427435 411.866557,69.1502127 411.866557,70.1428429 C411.866557,71.1356721 411.029184,71.9429424 409.999794,71.9429424 Z" id="Shape" fill="#61666C"></path>
                <rect id="Rectangle-path" fill="#D3CFC6" x="382" y="17" width="58" height="43"></rect>
                <rect id="Rectangle-path" fill="#868C93" x="381" y="55" width="62" height="6"></rect>
                <rect id="Rectangle-path" fill="#868C93" x="381" y="16" width="62" height="6"></rect>
                <circle id="Oval" fill="#B6A694" cx="399" cy="39" r="12"></circle>
                <path d="M411,39 C411,32.372583 405.627417,27 399,27 C392.372583,27 387,32.372583 387,39 C387,45.627417 392.372583,51 399,51 L399,38.904091 L411,39 Z" id="Oval" fill="#F8F5EC"></path>
                <rect id="Rectangle-37" fill="#868C93" x="417" y="32" width="18" height="2"></rect>
                <rect id="Rectangle-37-Copy" fill="#868C93" x="417" y="38" width="18" height="2"></rect>
                <rect id="Rectangle-37-Copy-2" fill="#868C93" x="417" y="43" width="12" height="2"></rect>
            </g>
        </g>
    </g>
</svg>