<?xml version="1.0" encoding="UTF-8"?>
<svg width="43px" height="63px" viewBox="0 0 43 63" version="1.1" xmlns="http://www.w3.org/2000/svg" xmlns:xlink="http://www.w3.org/1999/xlink">
    <!-- Generator: sketchtool 42 (36781) - http://www.bohemiancoding.com/sketch -->
    <title>0424AC63-8D9D-4BB7-8AD3-452D9782D1E6</title>
    <desc>Created with sketchtool.</desc>
    <defs></defs>
    <g id="Page-1" stroke="none" stroke-width="1" fill="none" fill-rule="evenodd">
        <g id="Desktop-HD-Copy-8" transform="translate(-693.000000, -1503.000000)">
            <g id="Group-2" transform="translate(0.000000, 1059.000000)">
                <g id="Group-22" transform="translate(693.000000, 444.000000)">
                    <path d="M12.9,41.5231756 C5.28478221,37.9502958 0,29.8100865 0,21.1111111 C0,9.45176639 9.62587788,0 21.5,0 C33.3741221,0 43,9.45176639 43,21.1111111 C43,29.7262328 37.6723674,37.7933088 30.1,41.4185836 L30.1,48.4033261 C30.1,53.151138 26.2399843,57 21.5,57 C16.7503512,57 12.9,53.1550665 12.9,48.4033261 L12.9,41.5231756 Z" id="Combined-Shape" fill="#D3CFC6"></path>
                    <path d="M13,44 L30,44 L30,54.500302 C30,59.1945556 26.1848682,63 21.5,63 L21.5,63 C16.8055796,63 13,59.2007315 13,54.500302 L13,44 Z" id="Rectangle-36" fill="#62676D"></path>
                    <path d="M22,41 L17,29" id="Path-80" stroke="#62676D" stroke-width="1.68"></path>
                    <path d="M22,46 L26,23" id="Path-81" stroke="#62676D" stroke-width="1.68"></path>
                </g>
            </g>
        </g>
    </g>
</svg>