<?xml version="1.0" encoding="UTF-8"?>
<svg width="155px" height="197px" viewBox="0 0 155 197" version="1.1" xmlns="http://www.w3.org/2000/svg" xmlns:xlink="http://www.w3.org/1999/xlink">
    <!-- Generator: sketchtool 42 (36781) - http://www.bohemiancoding.com/sketch -->
    <title>2D180CCC-9A94-4F79-971A-1087EDE94F38</title>
    <desc>Created with sketchtool.</desc>
    <defs>
        <path d="M23.0356543,106.192497 L22.5705174,69.9262967 C22.4504783,60.5669779 20.2181173,45.6990009 17.5866415,36.7253858 L12.9441571,20.8940151 C12.9441571,20.8940151 9.07652042,20.7689687 4.40503433,16.3313854 C-0.266451752,11.8938022 0.225715966,8.69883692 0.225715966,8.69883692 L3.03249209,0.623068096 L31.0799165,0.623068096 C31.0799165,0.623068096 47.352034,12.473936 52.7324393,23.7313595 C58.1128447,34.9887831 58.4000721,48.6740428 58.4000721,48.6740428 L87.7547625,48.6740428 C87.7547625,48.6740428 92.8937944,48.4157623 94.0943807,50.2663718 C95.294967,52.1169812 94.9356324,56.6170675 94.9356324,56.6170675 L129.872972,56.6170675 C129.872972,56.6170675 138.882019,56.6819379 138.882019,66.3416266 L138.882019,101.977892 C138.882019,101.977892 141.372124,111.474032 122.722776,113.856819 C104.073428,116.239607 56.5901792,122.324214 55.3457276,121.894747 C54.101276,121.465281 23.0356543,106.192497 23.0356543,106.192497 Z" id="path-1"></path>
    </defs>
    <g id="Page-1" stroke="none" stroke-width="1" fill="none" fill-rule="evenodd">
        <g id="Desktop-HD-Copy-8" transform="translate(-606.000000, -510.000000)">
            <g id="Group-11" transform="translate(606.000000, 120.000000)">
                <g id="Group-71-Copy" transform="translate(0.000000, 225.000000)">
                    <g id="Group-44" transform="translate(0.000000, 165.159236)">
                        <g id="Group-43" transform="translate(76.330085, 117.146497)">
                            <rect id="Rectangle-11" fill="#A2A7AD" x="2.31303289" y="0" width="6.1680877" height="7.70700637"></rect>
                            <rect id="Rectangle-11" fill="#CFD5DD" x="3.08404385" y="0" width="0.771010962" height="7.70700637"></rect>
                            <rect id="Rectangle-11-Copy-2" fill="#9198A1" x="5.39707674" y="0" width="2.31303289" height="7.70700637"></rect>
                            <rect id="Rectangle-11-Copy" fill="#A2A7AD" x="0" y="6.1656051" width="10.7941535" height="48.5541401" rx="1.54"></rect>
                            <rect id="Rectangle-11-Copy" fill="#9198A1" x="6.1680877" y="6.1656051" width="3.08404385" height="48.5541401"></rect>
                            <rect id="Rectangle-11-Copy" fill="#CFD5DD" x="2.31303289" y="6.1656051" width="1.54202192" height="48.5541401"></rect>
                            <rect id="Rectangle-11-Copy" fill="#9198A1" x="0" y="6.1656051" width="10.7941535" height="1.54140127" rx="0.770700637"></rect>
                        </g>
                        <g id="Group-42">
                            <mask id="mask-2" fill="white">
                                <use xlink:href="#path-1"></use>
                            </mask>
                            <use id="Path-5" fill="#A2A7AD" xlink:href="#path-1"></use>
                            <polygon id="Path-13" fill="#7F848A" mask="url(#mask-2)" points="9.1696026 20.5756558 41.4002244 20.5756558 53.0050401 48.8487469 11.8245181 42.1088687"></polygon>
                            <polygon id="Path-12" fill="#62676D" mask="url(#mask-2)" points="5.93562346 20.8633706 44.3575397 21.9762004 36.1859396 -2.99734682 -2.49802787 -3.73848304 -4.02769644 7.20146266"></polygon>
                            <polygon id="Path-11" fill="#62676D" mask="url(#mask-2)" points="26.5109337 107.689914 24.4582124 66.5913043 29.3676453 111.870755 26.9168997 110.584235"></polygon>
                            <path d="M27.5873372,9.09873775 C27.5873372,9.09873775 28.0139846,12.5017678 32.1153202,16.1444459 C36.2166558,19.7871239 38.8080056,21.3930178 38.8080056,21.3930178 C38.8080056,21.3930178 41.8389911,25.8406291 42.6937788,27.3141006 C46.7267521,34.2660852 48.9925333,47.6614034 49.6180991,60.5700919 C51.365351,96.6250178 49.6180991,133.648937 49.6180991,133.648937 C49.6180991,133.648937 141.852167,126.795392 144.360676,120.005318 C146.869184,113.215245 144.853673,56.7908122 139.983628,53.3804423 C135.113582,49.9700725 51.9125712,1.8076919 51.9125712,1.8076919 L28.1966053,-1.93073522 L27.5873372,9.09873775 Z" id="Path-9" fill="#4A4F56" mask="url(#mask-2)"></path>
                            <polygon id="Path-8" fill="#A2A7AD" mask="url(#mask-2)" points="-0.887304995 8.62483725 27.4093876 8.93963362 35.1670293 -8.61577408 -2.43882466 -3.0731841"></polygon>
                            <path d="M50.9566463,121.912546 C50.9566463,121.912546 55.6162934,79.5384229 58.1553815,63.445555 C58.7272364,59.82111 60.6385202,55.9782699 66.3773396,55.9782699 L139.455114,55.9782699 C139.455114,55.9782699 151.987328,116.141724 141.635459,122.265201 C131.28359,128.388677 50.9566463,121.912546 50.9566463,121.912546 Z" id="Path-6" fill="#62676D" mask="url(#mask-2)"></path>
                            <path d="M55.6364412,123.688526 C55.6364412,123.688526 62.60528,66.7250117 64.195088,62.6088056 C65.7848961,58.4925995 67.1452277,57.5477402 75.282426,57.5477402 L144.390323,57.5477402 C144.390323,57.5477402 146.614654,125.158872 139.535844,129.332265 C132.457035,133.505658 55.6364412,123.688526 55.6364412,123.688526 Z" id="Path-7" fill="#4A4F56" mask="url(#mask-2)"></path>
                        </g>
                        <rect id="Rectangle-12" fill="#BDBDBD" x="64.7649208" y="178.031847" width="3.85505481" height="6.1656051"></rect>
                        <ellipse id="Oval-17" fill="#62676D" cx="66.6924482" cy="188.436306" rx="8.0956151" ry="8.09235669"></ellipse>
                        <ellipse id="Oval-17-Copy" fill="#4A4F56" cx="69.7764921" cy="188.436306" rx="8.0956151" ry="8.09235669"></ellipse>
                        <path d="M81.5027333,169.306606 C81.5027333,169.306606 70.5129028,178.903252 68.9746003,178.903252 C67.4362977,178.903252 63.9021903,179.831177 63.2933604,179.367214 C62.6845304,178.903252 62.1284892,175.338906 62.1284892,175.338906 L77.3758281,157.163832 C77.3758281,157.163832 83.2369407,156.422742 84.1171438,159.97888 C84.9973469,163.535017 81.5027333,169.306606 81.5027333,169.306606 Z" id="Path-15" fill="#A2A7AD"></path>
                        <ellipse id="Oval-17-Copy-4" fill="#62676D" cx="52.4287454" cy="162.232484" rx="7.71010962" ry="8.09235669"></ellipse>
                        <ellipse id="Oval-17-Copy-5" fill="#4A4F56" cx="54.7417783" cy="162.232484" rx="7.71010962" ry="8.09235669"></ellipse>
                        <ellipse id="Oval-17-Copy-8" fill="#62676D" cx="131.071864" cy="161.461783" rx="6.1680877" ry="6.55095541"></ellipse>
                        <ellipse id="Oval-17-Copy-9" fill="#4A4F56" cx="133.384896" cy="161.461783" rx="6.1680877" ry="6.55095541"></ellipse>
                        <path d="M62.1029871,175.101086 C62.1029871,175.101086 64.4669778,175.558988 64.9392101,175.558988 C65.4114424,175.558988 67.2669346,176.381205 67.8297039,176.92318 C68.3924731,177.465154 68.6244739,175.950814 68.6244739,174.787163 C68.6244739,173.623512 80.2044426,157.257584 80.2044426,157.257584 C80.2044426,157.257584 79.4765464,156.583201 79.1843591,156.583201 C78.8921718,156.583201 67.3271211,172.596897 66.5444398,172.964298 C65.7617585,173.331699 62.1029871,175.101086 62.1029871,175.101086 Z" id="Path-16" fill="#CFD5DD"></path>
                        <path d="M77.2828722,155.448051 C77.2828722,155.448051 52.6454264,148.585079 51.6319612,148.585079 C50.618496,148.585079 50.1856671,152.533431 50.1856671,152.533431 L61.8680105,157.67839 C61.8680105,157.67839 6.40739936,162.562648 6.40739936,163.411821 C6.40739936,164.260994 4.82237808,166.933569 5.97658836,168.224473 C7.13079864,169.515378 7.9096888,174.08649 7.9096888,174.08649 L12.0745315,171.538971 L12.1466696,167.961754 L71.1072418,165.72738 L77.0261008,158.637996 L77.2828722,155.448051 Z" id="Path-17" fill="#A2A7AD"></path>
                        <path d="M51.4367013,149.935162 L71.7222399,155.964286 L62.3514216,157.5297 C62.3514216,157.5297 63.4929317,155.769149 59.497519,154.19941 C55.5021063,152.62967 51.182184,151.035761 51.182184,151.035761 L51.4367013,149.935162 Z" id="Path-18" fill="#CFD5DD"></path>
                        <path d="M6.97456958,166.294238 C6.97456958,166.294238 7.4271207,164.890359 8.46580946,164.425851 C9.50449822,163.961343 68.164696,158.402596 68.164696,158.402596 C68.164696,158.402596 12.1655131,166.166061 10.5417582,166.606648 C8.9180034,167.047235 6.97456958,166.294238 6.97456958,166.294238 Z" id="Path-19" fill="#CFD5DD"></path>
                        <ellipse id="Oval-17-Copy-2" fill="#62676D" cx="11.179659" cy="177.646497" rx="8.0956151" ry="8.09235669"></ellipse>
                        <ellipse id="Oval-17-Copy-3" fill="#4A4F56" cx="14.2637028" cy="177.646497" rx="8.0956151" ry="8.09235669"></ellipse>
                        <path d="M86.0842228,165.00885 L143.84725,168.786631 L144.314873,174.730902 C144.314873,174.730902 147.736182,173.018754 147.736182,173.018754 C147.736182,173.018754 148.032569,168.066569 148.032569,168.066569 C148.032569,168.066569 149.448534,164.253875 144.122294,163.23803 C138.796054,162.222185 102.123579,158.336273 102.123579,158.336273 L131.624547,153.602288 L131.667235,155.589854 L134.830964,155.789629 C134.830964,155.789629 135.250563,153.590166 135.250563,152.707665 C135.250563,151.825165 136.204726,149.859904 133.914637,149.170875 C131.624547,148.481846 86.7487901,154.454726 86.7487901,154.454726 L86.0842228,165.00885 Z" id="Path-20" fill="#A2A7AD"></path>
                        <path d="M92.066784,156.11402 L99.402249,157.741313 L131.254912,152.712029 C131.254912,152.712029 131.672571,150.683248 129.585247,150.683248 C127.497924,150.683248 92.066784,156.11402 92.066784,156.11402 Z" id="Path-21" fill="#9198A1"></path>
                        <path d="M85.246965,157.668579 C85.246965,157.668579 140.059702,163.929969 141.904967,164.866777 C143.750233,165.803585 143.494108,167.148671 143.494108,167.148671 L85.2231958,163.322401 L85.246965,157.668579 Z" id="Path-28" fill="#9198A1"></path>
                        <ellipse id="Oval-17-Copy-6" fill="#62676D" cx="145.721072" cy="177.646497" rx="6.1680877" ry="6.55095541"></ellipse>
                        <ellipse id="Oval-17-Copy-7" fill="#4A4F56" cx="148.034105" cy="177.646497" rx="6.1680877" ry="6.55095541"></ellipse>
                    </g>
                </g>
            </g>
        </g>
    </g>
</svg>