<?xml version="1.0" encoding="UTF-8"?>
<svg width="271px" height="84px" viewBox="0 0 271 84" version="1.1" xmlns="http://www.w3.org/2000/svg" xmlns:xlink="http://www.w3.org/1999/xlink">
    <!-- Generator: sketchtool 42 (36781) - http://www.bohemiancoding.com/sketch -->
    <title>312FCB7A-6C1F-449D-BE04-C5B2B03A87A4</title>
    <desc>Created with sketchtool.</desc>
    <defs>
        <polygon id="path-1" points="29.6802073 0.0615981308 0.224231707 0.0615981308 0.224231707 77.7870308 29.6802073 77.7870308 29.6802073 0.0615981308"></polygon>
        <polygon id="path-3" points="2.42922657e-21 0.00781105769 2.42922657e-21 76.9208159 37.6866434 76.9208159 37.6866434 0.00781105769 0 0.00781105769"></polygon>
    </defs>
    <g id="Page-1" stroke="none" stroke-width="1" fill="none" fill-rule="evenodd">
        <g id="Desktop-HD-Copy-8" transform="translate(-200.000000, -18.000000)">
            <g id="Group-44">
                <g id="Group-13-Copy" transform="translate(200.000000, 18.000000)">
                    <path d="M25,40 L25.2761638,42.1809777 C25.382021,43.0158277 25.8137982,43.7730881 26.4743204,44.282333 L30,47 L29.9726174,46.7831559 C29.7088092,44.7004356 28.6342082,42.8118587 26.9885794,41.538577 L25,40 Z" id="Fill-5" fill="#62676D"></path>
                    <g id="Group-9" transform="translate(9.000000, 0.000000)">
                        <mask id="mask-2" fill="white">
                            <use xlink:href="#path-1"></use>
                        </mask>
                        <g id="Clip-8"></g>
                        <path d="M6.20484146,57.6415262 L16.7158171,65.1922178 L15.4031341,55.0161336 L10.8453293,48.1506757 L17.9505732,53.5512645 L20.198378,70.9777037 L29.6802073,77.7870308 L29.6802073,72.6947972 L24.4104512,68.6938346 L21.993622,49.9596196 L15.6643537,45.1691804 C14.5785,44.3472645 13.8691098,43.1255075 13.6953293,41.7783673 L12.9965488,36.3617411 L12.9961829,36.3613766 L10.7769146,31.2749748 L21.1166707,39.1300121 L23.1274024,37.3269 L23.6000854,41.0165916 L26.4782561,63.4842364 L29.6802073,65.9149935 L29.6802073,19.400386 L24.3504512,17.6497598 L16.6272805,8.93890935 C13.921061,5.88670374 10.9217927,3.10531121 7.67264634,0.634096262 L10.261061,5.61370374 C12.9189878,10.7274421 14.7464268,16.228629 15.676061,21.9124234 L15.676061,21.9124234 L15.676061,21.9124234 L15.676061,21.9124234 L4.31886585,0.061488785 C3.0782561,7.54001215 2.68276829,15.135171 3.14410976,22.7044514 L3.26191463,24.6365916 L10.9302073,20.6210495 C5.93667073,25.770143 2.34837805,32.1056383 0.505939024,39.0261336 L0.224231707,40.0846009 L9.08667073,46.817386 L6.20484146,57.6415262 Z" id="Fill-7" fill="#62676D" mask="url(#mask-2)"></path>
                    </g>
                    <g id="Group-12" transform="translate(0.000000, 7.000000)">
                        <mask id="mask-4" fill="white">
                            <use xlink:href="#path-3"></use>
                        </mask>
                        <g id="Clip-11"></g>
                        <path d="M37.6866792,74.97875 L25.9048868,66.2081538 L25.4474528,62.5328846 L11.6441321,52.2544952 L14.4812264,41.2090673 L5.79715094,34.370875 L9.31573585,20.6719087 L9.01066038,15.4818125 C8.70701887,10.3183702 8.78158491,5.14308173 9.23149057,0 L0,0 L0,76.9130048 L37.6866792,76.9130048 L37.6866792,74.97875 Z" id="Fill-10" fill="#62676D" mask="url(#mask-4)"></path>
                    </g>
                    <path d="M48.3163655,39.4212644 C47.3294731,40.1425316 46.4975821,41.0353375 45.8516162,42.0375039 C45.0998982,43.2046254 44.6009163,44.5198773 44.4169,45.8929184 L44,49 L45.8516162,47.6521959 L50.4378977,44.313592 C51.4568593,43.5722083 52.1345126,42.4500746 52.2975312,41.2343077 L53,36 L48.3163655,39.4212644 Z" id="Fill-15" fill="#62676D"></path>
                    <g id="Group-6" transform="translate(77.000000, 38.000000)" fill="#62676D">
                        <path d="M0,8.43862287 L0,0 L3.211502,0 L3.211502,8.3541449 C3.211502,10.7592824 4.40027542,12.003899 6.36065574,12.003899 C8.32103606,12.003899 9.50980948,10.8017125 9.50980948,8.46002905 L9.50980948,0 L12.7213115,0 L12.7213115,8.33350322 C12.7213115,12.8058663 10.2398509,15 6.31909023,15 C2.39832959,15 0,12.7848424 0,8.43862287" id="Fill-17"></path>
                        <path d="M27.7205721,7.28568101 C29.2978775,7.28568101 30.2019707,6.42879329 30.2019707,5.16423358 L30.2019707,5.12152508 C30.2019707,3.70709738 29.2346329,2.9787234 27.6577085,2.9787234 L24.4406149,2.9787234 L24.4406149,7.28568101 L27.7205721,7.28568101 Z M21.2021858,0 L27.9308795,0 C29.8023105,0 31.2531267,0.535797484 32.2204646,1.5215872 C33.0407396,2.35750893 33.4819279,3.53587514 33.4819279,4.94991458 L33.4819279,4.99301134 C33.4819279,7.41419475 32.19951,8.93578195 30.328079,9.64280168 L33.9234973,15 L30.1387261,15 L26.9844962,10.1999534 L24.4406149,10.1999534 L24.4406149,15 L21.2021858,15 L21.2021858,0 Z" id="Fill-19"></path>
                        <path d="M48.3570794,8.80726821 L44.5518039,8.80726821 L44.5518039,12.1070818 L48.4639975,12.1070818 C49.9178506,12.1070818 50.7945011,11.5930269 50.7945011,10.4787234 L50.7945011,10.4356267 C50.7945011,9.42887094 50.0460748,8.80726821 48.3570794,8.80726821 L48.3570794,8.80726821 Z M49.9608502,4.43585961 C49.9608502,3.45006989 49.1911177,2.89330641 47.801183,2.89330641 L44.5518039,2.89330641 L44.5518039,6.06460631 L47.5877343,6.06460631 C49.0415874,6.06460631 49.9608502,5.59325982 49.9608502,4.47895636 L49.9608502,4.43585961 Z M41.3442623,0 L48.293161,0 C50.0034625,0 51.3507849,0.471346482 52.205742,1.32862246 C52.8898626,2.01467619 53.2319229,2.85020966 53.2319229,3.87870787 L53.2319229,3.92141637 C53.2319229,5.61422581 52.3339662,6.55730704 51.265173,7.15716726 C52.9967806,7.82147849 54.0655738,8.82901072 54.0655738,10.8429104 L54.0655738,10.8860071 C54.0655738,13.628669 51.8419882,15 48.4639975,15 L41.3442623,15 L41.3442623,0 Z" id="Fill-21"></path>
                        <path d="M68.6072849,8.76599846 L66.7470198,3.93639167 L64.8867548,8.76599846 L68.6072849,8.76599846 Z M65.3669518,0 L68.2071811,0 L74.2076503,15 L70.9872499,15 L69.7072078,11.6595991 L63.7864695,11.6595991 L62.5064274,15 L59.3661202,15 L65.3669518,0 Z" id="Fill-23"></path>
                        <polygon id="Fill-25" points="82.6885246 0 85.5930554 0 92.3011209 9.23551794 92.3011209 0 95.4098361 0 95.4098361 15 92.730612 15 85.7976103 5.46435782 85.7976103 15 82.6885246 15"></polygon>
                        <polygon id="Fill-27" points="114.491803 0.0422860072 117.786095 0.0422860072 120.680673 10.0986674 123.815079 0 126.450656 0 129.585062 10.0986674 132.480002 0.0422860072 135.693989 0.0422860072 130.922747 15 128.247378 15 125.093077 5.28267555 121.938776 15 119.263407 15"></polygon>
                        <path d="M153.68448,7.54166875 L153.68448,7.50037539 C153.68448,5.01413985 151.92936,2.94196406 149.455712,2.94196406 C146.982063,2.94196406 145.26634,4.97247109 145.26634,7.45833125 L145.26634,7.50037539 C145.26634,9.98623555 147.021821,12.0580359 149.495469,12.0580359 C151.969118,12.0580359 153.68448,10.0275289 153.68448,7.54166875 M142.054645,7.54166875 L142.054645,7.50037539 C142.054645,3.3770459 145.186463,0 149.495469,0 C153.804114,0 156.896175,3.33575254 156.896175,7.45833125 L156.896175,7.50037539 C156.896175,11.6229541 153.764356,15 149.455712,15 C145.146706,15 142.054645,11.6642475 142.054645,7.54166875" id="Fill-29"></path>
                        <polygon id="Fill-31" points="165.377049 0 168.298249 0 168.298249 11.9999223 174.918033 11.9999223 174.918033 15 165.377049 15"></polygon>
                        <polygon id="Fill-33" points="183.398907 0 194 0 194 3.00007765 186.462078 3.00007765 186.462078 6.19273179 193.105194 6.19273179 193.105194 9.19280944 186.462078 9.19280944 186.462078 15 183.398907 15"></polygon>
                    </g>
                </g>
            </g>
        </g>
    </g>
</svg>