<?xml version="1.0" encoding="UTF-8"?>
<svg width="230px" height="70px" viewBox="0 0 230 70" version="1.1" xmlns="http://www.w3.org/2000/svg" xmlns:xlink="http://www.w3.org/1999/xlink">
    <!-- Generator: Sketch 41.2 (35397) - http://www.bohemiancoding.com/sketch -->
    <title>Page 1</title>
    <desc>Created with Sketch.</desc>
    <defs>
        <polygon id="path-1" points="25.0792433 0.117074236 0.189471774 0.117074236 0.189471774 65.3016245 25.0792433 65.3016245 25.0792433 0.117074236"></polygon>
        <polygon id="path-3" points="16.2492991 63.580786 0 63.580786 0 0.0718340611 32.4985981 0.0718340611 32.4985981 63.580786"></polygon>
    </defs>
    <g id="Page-1" stroke="none" stroke-width="1" fill="none" fill-rule="evenodd">
        <g id="Desktop-HD-Copy-8" transform="translate(-200.000000, -5042.000000)">
            <g id="Page-1" transform="translate(200.000000, 5042.000000)">
                <path d="M20.9647164,32.6816245 L21.220375,34.6492664 C21.3183723,35.4024541 21.7180901,36.0856419 22.3295685,36.5450742 L25.5934664,38.9969083 L25.5681169,38.8012751 C25.3238965,36.9222795 24.3290847,35.2184367 22.8056438,34.0697031 L20.9647164,32.6816245 Z" id="Fill-1" fill="#62676D"></path>
                <g id="Group-5" transform="translate(7.419355, 0.188603)">
                    <mask id="mask-2" fill="white">
                        <use xlink:href="#path-1"></use>
                    </mask>
                    <g id="Clip-4"></g>
                    <path d="M5.24297984,48.406559 L14.1245659,54.7389607 L13.0153723,46.2047686 L9.16410887,40.447345 L15.1679126,44.9762533 L17.0672675,59.5909694 L25.0792433,65.3016245 L25.0792433,61.0310131 L20.6263938,57.6755983 L18.5842164,41.9641135 L13.2360981,37.9466026 C12.3185712,37.2573013 11.7191492,36.2326725 11.5723078,35.1028908 L10.9818508,30.5602271 L10.9815417,30.5599214 L9.10629973,26.2942009 L17.8432083,32.8818428 L19.5422406,31.3696594 L19.9416492,34.4640262 L22.3736519,53.306559 L25.0792433,55.3451179 L25.0792433,16.3355546 L20.5756949,14.8673886 L14.049754,7.56201747 C11.763047,5.00227948 9.22871909,2.66965939 6.48324866,0.597170306 L8.67041263,4.77332751 C10.9163132,9.0619738 12.4604664,13.6755546 13.2459906,18.4422795 L13.2459906,18.4422795 L13.2459906,18.4422795 L13.2459906,18.4422795 L3.64936425,0.116951965 C2.60107124,6.38882969 2.26689113,12.758524 2.6567164,19.1065153 L2.75625941,20.727214 L9.2358293,17.3592664 C5.01638038,21.6775633 1.98433737,26.9908384 0.427509409,32.7947249 L0.189471774,33.6824105 L7.67807392,39.3288734 L5.24297984,48.406559 Z" id="Fill-3" fill="#62676D" mask="url(#mask-2)"></path>
                </g>
                <g id="Group-8" transform="translate(0.000000, 6.302140)">
                    <mask id="mask-4" fill="white">
                        <use xlink:href="#path-3"></use>
                    </mask>
                    <g id="Clip-7"></g>
                    <path d="M32.4985981,61.9836245 L22.3387191,54.7415284 L21.9442567,51.7067686 L10.0411384,43.2196507 L12.4876707,34.0991703 L4.99906855,28.4527074 L8.03327554,17.1411354 L7.77019758,12.8555459 C7.50835618,8.59196507 7.57265726,4.31860262 7.96062769,0.0718340611 L-3.09139785e-05,0.0718340611 L-3.09139785e-05,63.580786 L32.4985981,63.580786 L32.4985981,61.9836245 Z" id="Fill-6" fill="#62676D" mask="url(#mask-4)"></path>
                </g>
                <polygon id="Fill-9" fill="#62676D" points="29.3027728 13.0949214 32.4986599 14.1363624 32.4986599 6.37400437 23.2989691 6.37400437"></polygon>
                <path d="M41.5377218,32.6550917 C40.7385954,33.2578865 40.0649798,34.0040437 39.5419153,34.8415983 C38.9332191,35.8170131 38.5291734,36.9162271 38.380168,38.063738 L38.0425874,40.6604629 L39.5419153,39.5340437 L43.2556116,36.7438253 C44.0807056,36.1242183 44.6294288,35.1864017 44.7614315,34.1703319 L45.3302487,29.7957904 L41.5377218,32.6550917 Z" id="Fill-11" fill="#62676D"></path>
                <path d="M65.335457,29.4325852 L65.335457,22.6844629 L67.962836,22.6844629 L67.962836,29.3650306 C67.962836,31.2883493 68.9353898,32.2836332 70.539207,32.2836332 C72.1430242,32.2836332 73.115578,31.3222795 73.115578,29.4497031 L73.115578,22.6844629 L75.742957,22.6844629 L75.742957,29.348524 C75.742957,32.9249432 73.712836,34.6795284 70.5052016,34.6795284 C67.2975672,34.6795284 65.335457,32.908131 65.335457,29.4325852" id="Fill-13" fill="#62676D"></path>
                <path d="M88.4008091,28.4203362 C89.6806478,28.4203362 90.4142366,27.7457074 90.4142366,26.7501179 L90.4142366,26.7164934 C90.4142366,25.6029127 89.6293306,25.0294629 88.3498011,25.0294629 L85.7394247,25.0294629 L85.7394247,28.4203362 L88.4008091,28.4203362 Z M83.1117366,22.68431 L88.5714543,22.68431 C90.0899489,22.68431 91.2671532,23.1061441 92.0520591,23.8822576 C92.7176371,24.5403799 93.075621,25.4681092 93.075621,26.5813843 L93.075621,26.6153144 C93.075621,28.5215153 92.0350565,29.7194629 90.5165618,30.2761004 L93.433914,34.4938297 L90.3629194,34.4938297 L87.8035511,30.7147467 L85.7394247,30.7147467 L85.7394247,34.4938297 L83.1117366,34.4938297 L83.1117366,22.68431 Z" id="Fill-15" fill="#62676D"></path>
                <path d="M105.733164,29.6182533 L102.696484,29.6182533 L102.696484,32.2162009 L105.818487,32.2162009 C106.978688,32.2162009 107.678272,31.8114847 107.678272,30.9341921 L107.678272,30.900262 C107.678272,30.1076419 107.081013,29.6182533 105.733164,29.6182533 L105.733164,29.6182533 Z M107.013003,26.1766376 C107.013003,25.400524 106.398742,24.9621834 105.289548,24.9621834 L102.696484,24.9621834 L102.696484,27.458952 L105.119212,27.458952 C106.279414,27.458952 107.013003,27.0878603 107.013003,26.2105677 L107.013003,26.1766376 Z M100.136806,22.6842795 L105.682156,22.6842795 C107.047008,22.6842795 108.122196,23.0553712 108.804468,23.7303057 C109.350409,24.2704367 109.623379,24.9282533 109.623379,25.7379913 L109.623379,25.7716157 C109.623379,27.1043668 108.906793,27.8468559 108.053876,28.3191266 C109.435731,28.8421397 110.288648,29.6353712 110.288648,31.220917 L110.288648,31.2548472 C110.288648,33.4141485 108.514185,34.4937991 105.818487,34.4937991 L100.136806,34.4937991 L100.136806,22.6842795 Z" id="Fill-17" fill="#62676D"></path>
                <path d="M124.004407,29.5507904 L122.417593,25.7212707 L120.830778,29.5507904 L124.004407,29.5507904 Z M121.240388,22.6000044 L123.663117,22.6000044 L128.781544,34.4938908 L126.034528,34.4938908 L124.942647,31.8452009 L119.89223,31.8452009 L118.800348,34.4938908 L116.121652,34.4938908 L121.240388,22.6000044 Z" id="Fill-19" fill="#62676D"></path>
                <polygon id="Fill-21" fill="#62676D" points="135.313668 22.6844017 137.736706 22.6844017 143.332754 29.9555371 143.332754 22.6844017 145.926128 22.6844017 145.926128 34.4939214 143.691047 34.4939214 137.907351 26.9864978 137.907351 34.4939214 135.313668 34.4939214"></polygon>
                <polygon id="Fill-23" fill="#62676D" points="162.370046 22.6844017 165.185382 22.6844017 167.659118 30.6809083 170.337815 22.6507773 172.590207 22.6507773 175.268903 30.6809083 177.742949 22.6844017 180.489656 22.6844017 176.412102 34.5782882 174.125704 34.5782882 171.430005 26.8513886 168.734306 34.5782882 166.447909 34.5782882"></polygon>
                <path d="M195.859468,28.6230306 L195.859468,28.5894061 C195.859468,26.5649083 194.358285,24.8775721 192.242532,24.8775721 C190.12678,24.8775721 188.659293,26.5309782 188.659293,28.5551703 L188.659293,28.5894061 C188.659293,30.6135983 190.160785,32.3006288 192.276538,32.3006288 C194.39229,32.3006288 195.859468,30.6472227 195.859468,28.6230306 M185.912277,28.6230306 L185.912277,28.5894061 C185.912277,25.2318515 188.590973,22.4819825 192.276538,22.4819825 C195.961793,22.4819825 198.606484,25.1982271 198.606484,28.5551703 L198.606484,28.5894061 C198.606484,31.9463493 195.927788,34.6962183 192.242532,34.6962183 C188.556968,34.6962183 185.912277,31.9799738 185.912277,28.6230306" id="Fill-25" fill="#62676D"></path>
                <polygon id="Fill-27" fill="#62676D" points="205.633293 22.6844017 208.260981 22.6844017 208.260981 32.1319563 214.215632 32.1319563 214.215632 34.4939214 205.633293 34.4939214"></polygon>
                <polygon id="Fill-29" fill="#62676D" points="220.884704 22.6844017 229.978669 22.6844017 229.978669 25.0463668 223.512392 25.0463668 223.512392 27.5599476 229.211075 27.5599476 229.211075 29.9219127 223.512392 29.9219127 223.512392 34.4939214 220.884704 34.4939214"></polygon>
                <polygon id="Fill-31" fill="#62676D" points="64.9393871 42.0262271 65.6259866 42.0262271 67.8137688 45.2673188 70.0018602 42.0262271 70.6881505 42.0262271 70.6881505 47.9652227 70.010207 47.9652227 70.010207 43.1544803 67.8224247 46.3362707 67.7881102 46.3362707 65.6000188 43.1630393 65.6000188 47.9652227 64.9393871 47.9652227"></polygon>
                <path d="M78.2115618,45.7847991 L76.847328,42.7641004 L75.4744382,45.7847991 L78.2115618,45.7847991 Z M76.5384973,41.9837074 L77.1734704,41.9837074 L79.9105941,47.9651921 L79.1813333,47.9651921 L78.477422,46.3955415 L75.208578,46.3955415 L74.4963199,47.9651921 L73.8010645,47.9651921 L76.5384973,41.9837074 Z" id="Fill-33" fill="#62676D"></path>
                <polygon id="Fill-35" fill="#62676D" points="83.0240645 42.0262271 83.6590376 42.0262271 87.4429086 46.7856157 87.4429086 42.0262271 88.1038495 42.0262271 88.1038495 47.9652227 87.563164 47.9652227 83.6846962 43.095179 83.6846962 47.9652227 83.0240645 47.9652227"></polygon>
                <path d="M95.6269516,45.7847991 L94.2627177,42.7641004 L92.889828,45.7847991 L95.6269516,45.7847991 Z M93.9538871,41.9837074 L94.5888602,41.9837074 L97.3259839,47.9651921 L96.5967231,47.9651921 L95.8928118,46.3955415 L92.6239677,46.3955415 L91.9117097,47.9651921 L91.2164543,47.9651921 L93.9538871,41.9837074 Z" id="Fill-37" fill="#62676D"></path>
                <path d="M99.8217621,45.0125371 L99.8217621,44.9954192 C99.8217621,43.3664672 101.031426,41.9242838 102.833402,41.9242838 C103.846144,41.9242838 104.472152,42.2128428 105.07281,42.7135415 L104.635069,43.2224934 C104.171977,42.8235852 103.65695,42.5435852 102.807743,42.5435852 C101.477515,42.5435852 100.525055,43.6553319 100.525055,44.9789127 L100.525055,44.9954192 C100.525055,46.4125371 101.4432,47.4643712 102.902031,47.4643712 C103.58863,47.4643712 104.223294,47.2014891 104.635069,46.8707467 L104.635069,45.3943275 L102.807743,45.3943275 L102.807743,44.7918384 L105.287353,44.7918384 L105.287353,47.159 C104.729665,47.6511397 103.888805,48.0668603 102.876372,48.0668603 C100.988456,48.0668603 99.8217621,46.709655 99.8217621,45.0125371" id="Fill-39" fill="#62676D"></path>
                <polygon id="Fill-41" fill="#62676D" points="108.744247 42.0262271 113.085806 42.0262271 113.085806 42.6369694 109.421882 42.6369694 109.421882 44.6648297 112.699691 44.6648297 112.699691 45.2755721 109.421882 45.2755721 109.421882 47.3544803 113.128777 47.3544803 113.128777 47.9652227 108.744247 47.9652227"></polygon>
                <polygon id="Fill-43" fill="#62676D" points="116.422321 42.0262271 117.108921 42.0262271 119.296703 45.2673188 121.484794 42.0262271 122.171085 42.0262271 122.171085 47.9652227 121.493141 47.9652227 121.493141 43.1544803 119.305359 46.3362707 119.271044 46.3362707 117.082953 43.1630393 117.082953 47.9652227 116.422321 47.9652227"></polygon>
                <polygon id="Fill-45" fill="#62676D" points="125.79918 42.0262271 130.140739 42.0262271 130.140739 42.6369694 126.476815 42.6369694 126.476815 44.6648297 129.754624 44.6648297 129.754624 45.2755721 126.476815 45.2755721 126.476815 47.3544803 130.18371 47.3544803 130.18371 47.9652227 125.79918 47.9652227"></polygon>
                <polygon id="Fill-47" fill="#62676D" points="133.477532 42.0262271 134.112505 42.0262271 137.896376 46.7856157 137.896376 42.0262271 138.557317 42.0262271 138.557317 47.9652227 138.016632 47.9652227 134.138164 43.095179 134.138164 47.9652227 133.477532 47.9652227"></polygon>
                <polygon id="Fill-49" fill="#62676D" points="143.772753 42.645345 141.756543 42.645345 141.756543 42.0263493 146.475562 42.0263493 146.475562 42.645345 144.459352 42.645345 144.459352 47.9650393 143.772753 47.9650393"></polygon>
                <polygon id="Fill-51" fill="#62676D" points="154.178738 42.0262271 154.856372 42.0262271 154.856372 47.3456157 158.237125 47.3456157 158.237125 47.9652227 154.178738 47.9652227"></polygon>
                <polygon id="Fill-53" fill="#62676D" points="161.419379 42.0262271 162.097013 42.0262271 162.097013 47.3456157 165.477766 47.3456157 165.477766 47.9652227 161.419379 47.9652227"></polygon>
                <path d="M168.050767,45.0125371 L168.050767,44.9954192 C168.050767,43.3157249 169.320405,41.9242838 171.088066,41.9242838 C172.178093,41.9242838 172.830069,42.3060742 173.430418,42.8660742 L172.967017,43.358214 C172.461265,42.8828865 171.894921,42.5435852 171.079719,42.5435852 C169.749491,42.5435852 168.75406,43.6128428 168.75406,44.9789127 L168.75406,44.9954192 C168.75406,46.370048 169.758147,47.447559 171.079719,47.447559 C171.903267,47.447559 172.443953,47.1336288 173.018644,46.5907467 L173.465042,47.0232795 C172.838415,47.6511397 172.152125,48.0668603 171.062407,48.0668603 C169.32937,48.0668603 168.050767,46.7179083 168.050767,45.0125371" id="Fill-55" fill="#62676D"></path>
            </g>
        </g>
    </g>
</svg>